STARTFONT 2.1
COMMENT
COMMENT Converted from OpenType font "ibmplex_regular.ttf" by "otf2bdf 3.0".
COMMENT
FONT -FreeType-IBM Plex Sans Thin-Medium-R-Normal--28-200-100-100-P-123-ISO10646-1
SIZE 20 100 100
FONTBOUNDINGBOX 36 36 -4 -6
STARTPROPERTIES 19
FOUNDRY "FreeType"
FAMILY_NAME "IBM Plex Sans Thin"
WEIGHT_NAME "Medium"
SLANT "R"
SETWIDTH_NAME "Normal"
ADD_STYLE_NAME ""
PIXEL_SIZE 28
POINT_SIZE 200
RESOLUTION_X 100
RESOLUTION_Y 100
SPACING "P"
AVERAGE_WIDTH 123
CHARSET_REGISTRY "ISO10646"
CHARSET_ENCODING "1"
FONT_ASCENT 28
FONT_DESCENT 7
COPYRIGHT "Copyright 2018 IBM Corp. All rights reserved."
_OTF_FONTFILE "ibmplex_regular.ttf"
_OTF_PSNAME "IBMPlexSans-Thin"
ENDPROPERTIES
CHARS 826
STARTCHAR 0000
ENCODING 0
SWIDTH 0 0
DWIDTH 0 0
BBX 0 0 0 0
BITMAP
ENDCHAR
STARTCHAR 000D
ENCODING 13
SWIDTH 216 0
DWIDTH 6 0
BBX 0 0 0 0
BITMAP
ENDCHAR
STARTCHAR 0020
ENCODING 32
SWIDTH 216 0
DWIDTH 6 0
BBX 0 0 0 0
BITMAP
ENDCHAR
STARTCHAR 0021
ENCODING 33
SWIDTH 252 0
DWIDTH 7 0
BBX 1 19 3 0
BITMAP
80
80
80
80
80
80
80
80
80
80
80
80
80
80
00
00
00
00
80
ENDCHAR
STARTCHAR 0022
ENCODING 34
SWIDTH 360 0
DWIDTH 10 0
BBX 5 7 3 14
BITMAP
08
88
88
88
88
88
88
ENDCHAR
STARTCHAR 0023
ENCODING 35
SWIDTH 684 0
DWIDTH 19 0
BBX 15 19 2 0
BITMAP
0208
0210
0410
0410
0410
0410
3FFE
0420
0820
0820
0820
0820
FFFE
0840
1040
1040
1040
1040
1080
ENDCHAR
STARTCHAR 0024
ENCODING 36
SWIDTH 540 0
DWIDTH 15 0
BBX 13 24 1 -2
BITMAP
0200
0200
0200
1FC0
6230
4200
8200
8200
8200
4200
2200
1E00
03C0
0220
0210
0210
0208
0208
0210
4210
2220
1FC0
0200
0200
ENDCHAR
STARTCHAR 0025
ENCODING 37
SWIDTH 864 0
DWIDTH 24 0
BBX 20 20 2 0
BITMAP
180000
660080
820100
810200
810200
810400
810800
810800
821000
422000
3C43E0
004410
008810
010810
010810
020810
040810
040810
080410
1003E0
ENDCHAR
STARTCHAR 0026
ENCODING 38
SWIDTH 648 0
DWIDTH 18 0
BBX 16 20 2 0
BITMAP
0700
18C0
2020
2020
2020
2020
2040
1080
1100
0E00
1407
2208
C108
8088
8048
8030
8010
8028
4044
3F82
ENDCHAR
STARTCHAR 0027
ENCODING 39
SWIDTH 216 0
DWIDTH 6 0
BBX 1 6 3 15
BITMAP
80
80
80
80
80
80
ENDCHAR
STARTCHAR 0028
ENCODING 40
SWIDTH 324 0
DWIDTH 9 0
BBX 5 25 3 -4
BITMAP
08
10
20
20
40
40
80
80
80
80
80
80
80
80
80
80
80
80
40
40
40
20
10
10
08
ENDCHAR
STARTCHAR 0029
ENCODING 41
SWIDTH 324 0
DWIDTH 9 0
BBX 5 25 1 -4
BITMAP
80
40
40
20
10
10
10
08
08
08
08
08
08
08
08
08
08
08
10
10
20
20
40
80
80
ENDCHAR
STARTCHAR 002A
ENCODING 42
SWIDTH 360 0
DWIDTH 10 0
BBX 9 8 1 13
BITMAP
1000
1000
9080
7700
1800
2C00
4400
4200
ENDCHAR
STARTCHAR 002B
ENCODING 43
SWIDTH 576 0
DWIDTH 16 0
BBX 13 13 2 2
BITMAP
0200
0200
0200
0200
0200
0200
FFF8
0200
0200
0200
0200
0200
0200
ENDCHAR
STARTCHAR 002C
ENCODING 44
SWIDTH 216 0
DWIDTH 6 0
BBX 3 5 1 -4
BITMAP
20
20
20
40
80
ENDCHAR
STARTCHAR 002D
ENCODING 45
SWIDTH 360 0
DWIDTH 10 0
BBX 7 1 2 8
BITMAP
FE
ENDCHAR
STARTCHAR 002E
ENCODING 46
SWIDTH 216 0
DWIDTH 6 0
BBX 1 1 3 0
BITMAP
80
ENDCHAR
STARTCHAR 002F
ENCODING 47
SWIDTH 288 0
DWIDTH 8 0
BBX 8 25 0 -4
BITMAP
01
02
02
02
04
04
04
04
08
08
08
08
10
10
10
10
20
20
20
40
40
40
40
80
80
ENDCHAR
STARTCHAR 0030
ENCODING 48
SWIDTH 576 0
DWIDTH 16 0
BBX 13 20 2 0
BITMAP
0700
18C0
6020
4010
8010
8010
8010
8008
8008
8008
8008
8008
8008
8008
8010
8010
8010
4020
2020
1FC0
ENDCHAR
STARTCHAR 0031
ENCODING 49
SWIDTH 576 0
DWIDTH 16 0
BBX 13 19 2 0
BITMAP
0600
0A00
1200
6200
8200
0200
0200
0200
0200
0200
0200
0200
0200
0200
0200
0200
0200
0200
7FF8
ENDCHAR
STARTCHAR 0032
ENCODING 50
SWIDTH 576 0
DWIDTH 16 0
BBX 12 20 2 0
BITMAP
0700
30C0
4020
8020
8020
0020
0020
0020
0020
0040
0040
0080
0100
0200
0400
0800
1000
2000
4000
FFF0
ENDCHAR
STARTCHAR 0033
ENCODING 51
SWIDTH 576 0
DWIDTH 16 0
BBX 12 20 2 0
BITMAP
0E00
30C0
4020
0020
0020
0020
0020
0020
0040
0380
0C80
0060
0020
0020
0010
0010
0020
8020
4040
3F80
ENDCHAR
STARTCHAR 0034
ENCODING 52
SWIDTH 576 0
DWIDTH 16 0
BBX 14 19 1 0
BITMAP
0020
0060
00A0
0120
0120
0220
0420
0820
0820
1020
2020
2020
4020
8020
FFFC
0020
0020
0020
0020
ENDCHAR
STARTCHAR 0035
ENCODING 53
SWIDTH 576 0
DWIDTH 16 0
BBX 12 19 2 0
BITMAP
7FE0
4000
4000
4000
4000
4000
4000
4000
5FC0
6020
0020
0010
0010
0010
0010
0010
8020
4020
3FC0
ENDCHAR
STARTCHAR 0036
ENCODING 54
SWIDTH 576 0
DWIDTH 16 0
BBX 12 19 2 0
BITMAP
0100
0600
0800
1000
2000
2000
4000
4200
59C0
E020
4010
8010
8010
8010
8010
8010
4020
2020
1FC0
ENDCHAR
STARTCHAR 0037
ENCODING 55
SWIDTH 576 0
DWIDTH 16 0
BBX 12 19 2 0
BITMAP
FFF0
8010
8020
8020
8040
0040
0080
0080
0080
0100
0100
0200
0200
0400
0400
0800
0800
0800
1000
ENDCHAR
STARTCHAR 0038
ENCODING 56
SWIDTH 576 0
DWIDTH 16 0
BBX 13 20 2 0
BITMAP
0F00
30C0
4020
4010
8010
8010
8010
4010
2020
1DC0
3240
4020
8010
8010
8008
8008
8010
8010
4020
3FC0
ENDCHAR
STARTCHAR 0039
ENCODING 57
SWIDTH 576 0
DWIDTH 16 0
BBX 11 20 3 0
BITMAP
0E00
3180
C040
8020
8020
8020
8020
8020
8020
8060
4060
3BA0
0440
0040
0080
0080
0100
0200
0400
0800
ENDCHAR
STARTCHAR 003A
ENCODING 58
SWIDTH 252 0
DWIDTH 7 0
BBX 1 14 3 0
BITMAP
80
00
00
00
00
00
00
00
00
00
00
00
00
80
ENDCHAR
STARTCHAR 003B
ENCODING 59
SWIDTH 252 0
DWIDTH 7 0
BBX 2 18 2 -4
BITMAP
40
00
00
00
00
00
00
00
00
00
00
00
00
40
40
40
80
80
ENDCHAR
STARTCHAR 003C
ENCODING 60
SWIDTH 576 0
DWIDTH 16 0
BBX 12 14 2 2
BITMAP
0030
00C0
0100
0600
1800
2000
C000
6000
1000
0C00
0300
0080
0060
0010
ENDCHAR
STARTCHAR 003D
ENCODING 61
SWIDTH 576 0
DWIDTH 16 0
BBX 12 5 2 6
BITMAP
FFF0
0000
0000
0000
FFF0
ENDCHAR
STARTCHAR 003E
ENCODING 62
SWIDTH 576 0
DWIDTH 16 0
BBX 12 15 2 1
BITMAP
8000
6000
1000
0C00
0300
0080
0060
0010
0020
00C0
0100
0600
1800
2000
C000
ENDCHAR
STARTCHAR 003F
ENCODING 63
SWIDTH 432 0
DWIDTH 12 0
BBX 11 20 1 0
BITMAP
0E00
3180
4040
8040
8020
0020
0020
0040
0040
0080
0F00
0800
0800
0800
0800
0000
0000
0000
0000
0C00
ENDCHAR
STARTCHAR 0040
ENCODING 64
SWIDTH 864 0
DWIDTH 24 0
BBX 20 23 2 -3
BITMAP
00F800
070600
080180
300040
200020
400020
80F210
830E10
820210
840210
840210
840210
840210
840210
840210
820210
820620
41D940
402080
200000
100000
080000
07FF00
ENDCHAR
STARTCHAR 0041
ENCODING 65
SWIDTH 576 0
DWIDTH 16 0
BBX 15 19 1 0
BITMAP
0100
0300
0480
0480
0440
0840
0840
0820
1020
1020
1010
2010
3FF0
2008
4008
4004
8004
8004
8002
ENDCHAR
STARTCHAR 0042
ENCODING 66
SWIDTH 612 0
DWIDTH 17 0
BBX 12 19 3 0
BITMAP
FFC0
8020
8020
8020
8020
8020
8020
8040
FF80
8060
8020
8010
8010
8010
8010
8010
8010
8020
FFC0
ENDCHAR
STARTCHAR 0043
ENCODING 67
SWIDTH 576 0
DWIDTH 16 0
BBX 13 20 2 0
BITMAP
0780
1860
2010
4008
C000
8000
8000
8000
8000
8000
8000
8000
8000
8000
8000
8000
4008
4008
2010
1FE0
ENDCHAR
STARTCHAR 0044
ENCODING 68
SWIDTH 648 0
DWIDTH 18 0
BBX 13 19 3 0
BITMAP
FFC0
8020
8010
8010
8008
8008
8008
8008
8008
8008
8008
8008
8008
8008
8008
8010
8010
8060
FF80
ENDCHAR
STARTCHAR 0045
ENCODING 69
SWIDTH 540 0
DWIDTH 15 0
BBX 11 19 3 0
BITMAP
FFC0
8000
8000
8000
8000
8000
8000
8000
8000
FFC0
8000
8000
8000
8000
8000
8000
8000
8000
FFE0
ENDCHAR
STARTCHAR 0046
ENCODING 70
SWIDTH 504 0
DWIDTH 14 0
BBX 10 19 3 0
BITMAP
FFC0
8000
8000
8000
8000
8000
8000
8000
8000
FF80
8000
8000
8000
8000
8000
8000
8000
8000
8000
ENDCHAR
STARTCHAR 0047
ENCODING 71
SWIDTH 648 0
DWIDTH 18 0
BBX 14 20 2 0
BITMAP
0780
1870
2008
4008
4000
8000
8000
8000
8000
8000
8000
807C
8004
8004
8004
8004
4004
400C
2014
1FE4
ENDCHAR
STARTCHAR 0048
ENCODING 72
SWIDTH 684 0
DWIDTH 19 0
BBX 13 19 3 0
BITMAP
8008
8008
8008
8008
8008
8008
8008
8008
8008
FFF8
8008
8008
8008
8008
8008
8008
8008
8008
8008
ENDCHAR
STARTCHAR 0049
ENCODING 73
SWIDTH 360 0
DWIDTH 10 0
BBX 6 19 2 0
BITMAP
FC
20
20
20
20
20
20
20
20
20
20
20
20
20
20
20
20
20
FC
ENDCHAR
STARTCHAR 004A
ENCODING 74
SWIDTH 432 0
DWIDTH 12 0
BBX 9 19 1 0
BITMAP
3F80
0080
0080
0080
0080
0080
0080
0080
0080
0080
0080
0080
0080
0080
0080
0080
8080
8100
7E00
ENDCHAR
STARTCHAR 004B
ENCODING 75
SWIDTH 540 0
DWIDTH 15 0
BBX 12 19 3 0
BITMAP
8030
8020
8040
8080
8100
8200
8400
8800
9800
A400
C200
8200
8100
8080
8080
8040
8020
8020
8010
ENDCHAR
STARTCHAR 004C
ENCODING 76
SWIDTH 468 0
DWIDTH 13 0
BBX 10 19 3 0
BITMAP
8000
8000
8000
8000
8000
8000
8000
8000
8000
8000
8000
8000
8000
8000
8000
8000
8000
8000
FFC0
ENDCHAR
STARTCHAR 004D
ENCODING 77
SWIDTH 792 0
DWIDTH 22 0
BBX 16 19 3 0
BITMAP
8003
C003
A005
A005
9009
8811
8811
8421
8441
8241
8181
8181
8001
8001
8001
8001
8001
8001
8001
ENDCHAR
STARTCHAR 004E
ENCODING 78
SWIDTH 684 0
DWIDTH 19 0
BBX 13 19 3 0
BITMAP
8008
C008
A008
A008
9008
8808
8808
8408
8408
8208
8108
8108
8088
8048
8048
8028
8028
8018
8008
ENDCHAR
STARTCHAR 004F
ENCODING 79
SWIDTH 648 0
DWIDTH 18 0
BBX 15 20 2 0
BITMAP
0780
1870
2008
4004
4004
8004
8002
8002
8002
8002
8002
8002
8002
8002
8002
8004
4004
4008
2010
1FE0
ENDCHAR
STARTCHAR 0050
ENCODING 80
SWIDTH 576 0
DWIDTH 16 0
BBX 12 19 3 0
BITMAP
FFC0
8020
8010
8010
8010
8010
8010
8010
8020
FFC0
8000
8000
8000
8000
8000
8000
8000
8000
8000
ENDCHAR
STARTCHAR 0051
ENCODING 81
SWIDTH 648 0
DWIDTH 18 0
BBX 15 24 2 -4
BITMAP
0780
1870
2008
4004
4004
8004
8002
8002
8002
8002
8002
8002
8002
8002
8002
8004
4004
4008
2010
1860
0780
0100
0100
01E0
ENDCHAR
STARTCHAR 0052
ENCODING 82
SWIDTH 612 0
DWIDTH 17 0
BBX 12 19 3 0
BITMAP
FFC0
8020
8010
8010
8010
8010
8010
8010
8020
FFC0
8100
8100
8080
8080
8040
8020
8020
8010
8010
ENDCHAR
STARTCHAR 0053
ENCODING 83
SWIDTH 540 0
DWIDTH 15 0
BBX 13 20 1 0
BITMAP
0F80
3060
4010
8000
8000
8000
8000
4000
2000
1800
07C0
0020
0010
0010
0008
0008
0010
8010
4020
3FC0
ENDCHAR
STARTCHAR 0054
ENCODING 84
SWIDTH 540 0
DWIDTH 15 0
BBX 14 19 1 0
BITMAP
FFFC
0200
0200
0200
0200
0200
0200
0200
0200
0200
0200
0200
0200
0200
0200
0200
0200
0200
0200
ENDCHAR
STARTCHAR 0055
ENCODING 85
SWIDTH 648 0
DWIDTH 18 0
BBX 12 19 3 0
BITMAP
8010
8010
8010
8010
8010
8010
8010
8010
8010
8010
8010
8010
8010
8010
8010
8010
8010
4020
3FC0
ENDCHAR
STARTCHAR 0056
ENCODING 86
SWIDTH 540 0
DWIDTH 15 0
BBX 14 19 1 0
BITMAP
8004
8008
8008
4008
4010
2010
2010
2020
1020
1020
1040
0840
0840
0880
0480
0480
0500
0300
0300
ENDCHAR
STARTCHAR 0057
ENCODING 87
SWIDTH 864 0
DWIDTH 24 0
BBX 22 19 1 0
BITMAP
803004
803004
805004
404808
404808
404808
408808
208410
208410
210410
210210
110220
110220
120220
120140
0A0140
0A0140
0C00C0
040080
ENDCHAR
STARTCHAR 0058
ENCODING 88
SWIDTH 540 0
DWIDTH 15 0
BBX 13 19 1 0
BITMAP
8008
4010
2010
2020
1040
0840
0880
0500
0300
0200
0500
0480
0880
1040
1020
2020
4010
4008
8008
ENDCHAR
STARTCHAR 0059
ENCODING 89
SWIDTH 540 0
DWIDTH 15 0
BBX 13 19 1 0
BITMAP
8008
8010
4010
2020
2020
1040
1080
0880
0500
0500
0200
0200
0200
0200
0200
0200
0200
0200
0200
ENDCHAR
STARTCHAR 005A
ENCODING 90
SWIDTH 540 0
DWIDTH 15 0
BBX 14 19 1 0
BITMAP
7FF8
0010
0010
0020
0040
0040
0080
0100
0200
0200
0400
0800
0800
1000
2000
2000
4000
8000
FFFC
ENDCHAR
STARTCHAR 005B
ENCODING 91
SWIDTH 288 0
DWIDTH 8 0
BBX 3 25 3 -4
BITMAP
E0
80
80
80
80
80
80
80
80
80
80
80
80
80
80
80
80
80
80
80
80
80
80
80
E0
ENDCHAR
STARTCHAR 005C
ENCODING 92
SWIDTH 288 0
DWIDTH 8 0
BBX 7 25 1 -4
BITMAP
80
80
80
80
40
40
40
20
20
20
20
10
10
10
10
08
08
08
08
04
04
04
04
02
02
ENDCHAR
STARTCHAR 005D
ENCODING 93
SWIDTH 288 0
DWIDTH 8 0
BBX 3 25 2 -4
BITMAP
E0
20
20
20
20
20
20
20
20
20
20
20
20
20
20
20
20
20
20
20
20
20
20
20
E0
ENDCHAR
STARTCHAR 005E
ENCODING 94
SWIDTH 576 0
DWIDTH 16 0
BBX 13 10 2 9
BITMAP
0600
0500
0900
1080
1040
2040
2020
4020
8010
8008
ENDCHAR
STARTCHAR 005F
ENCODING 95
SWIDTH 540 0
DWIDTH 15 0
BBX 14 1 1 -4
BITMAP
FFFC
ENDCHAR
STARTCHAR 0060
ENCODING 96
SWIDTH 576 0
DWIDTH 16 0
BBX 3 3 6 17
BITMAP
80
40
20
ENDCHAR
STARTCHAR 0061
ENCODING 97
SWIDTH 504 0
DWIDTH 14 0
BBX 12 14 2 0
BITMAP
3F00
C080
8080
0080
0040
0040
0FC0
6040
8040
8040
8040
8040
81C0
7E70
ENDCHAR
STARTCHAR 0062
ENCODING 98
SWIDTH 540 0
DWIDTH 15 0
BBX 11 21 3 0
BITMAP
8000
8000
8000
8000
8000
8000
8000
BF00
C0C0
8040
8020
8020
8020
8020
8020
8020
8020
8020
8040
C080
BF00
ENDCHAR
STARTCHAR 0063
ENCODING 99
SWIDTH 468 0
DWIDTH 13 0
BBX 10 14 2 0
BITMAP
3F00
40C0
8040
8000
8000
8000
8000
8000
8000
8000
8000
8000
4040
3F80
ENDCHAR
STARTCHAR 0064
ENCODING 100
SWIDTH 540 0
DWIDTH 15 0
BBX 11 21 2 0
BITMAP
0020
0020
0020
0020
0020
0020
0020
3FA0
4060
8020
8020
8020
8020
8020
8020
8020
8020
8020
8020
4060
3FA0
ENDCHAR
STARTCHAR 0065
ENCODING 101
SWIDTH 504 0
DWIDTH 14 0
BBX 11 14 2 0
BITMAP
3F00
40C0
8040
8020
8020
8020
FFE0
8000
8000
8000
8020
8060
4040
3F80
ENDCHAR
STARTCHAR 0066
ENCODING 102
SWIDTH 252 0
DWIDTH 7 0
BBX 6 21 1 0
BITMAP
1C
20
20
20
20
20
20
FC
20
20
20
20
20
20
20
20
20
20
20
20
20
ENDCHAR
STARTCHAR 0067
ENCODING 103
SWIDTH 504 0
DWIDTH 14 0
BBX 13 22 1 -6
BITMAP
0038
0040
1FC0
2040
4020
4020
4020
4020
2020
2040
1F80
3000
4000
4000
3000
2FF0
4008
8008
8008
8008
4010
3FE0
ENDCHAR
STARTCHAR 0068
ENCODING 104
SWIDTH 540 0
DWIDTH 15 0
BBX 10 21 3 0
BITMAP
8000
8000
8000
8000
8000
8000
8000
BF00
C080
8080
8040
8040
8040
8040
8040
8040
8040
8040
8040
8040
8040
ENDCHAR
STARTCHAR 0069
ENCODING 105
SWIDTH 216 0
DWIDTH 6 0
BBX 1 20 3 0
BITMAP
80
00
00
00
00
00
80
80
80
80
80
80
80
80
80
80
80
80
80
80
ENDCHAR
STARTCHAR 006A
ENCODING 106
SWIDTH 216 0
DWIDTH 6 0
BBX 3 26 1 -6
BITMAP
20
00
00
00
00
00
20
20
20
20
20
20
20
20
20
20
20
20
20
20
20
20
20
20
20
C0
ENDCHAR
STARTCHAR 006B
ENCODING 107
SWIDTH 468 0
DWIDTH 13 0
BBX 10 21 3 0
BITMAP
8000
8000
8000
8000
8000
8000
8000
8080
8100
8200
8400
8800
9000
B000
C800
8400
8400
8200
8100
8080
8040
ENDCHAR
STARTCHAR 006C
ENCODING 108
SWIDTH 216 0
DWIDTH 6 0
BBX 3 21 3 0
BITMAP
80
80
80
80
80
80
80
80
80
80
80
80
80
80
80
80
80
80
80
80
E0
ENDCHAR
STARTCHAR 006D
ENCODING 109
SWIDTH 864 0
DWIDTH 24 0
BBX 19 14 3 0
BITMAP
BF1F80
C0A040
804040
804020
804020
804020
804020
804020
804020
804020
804020
804020
804020
804020
ENDCHAR
STARTCHAR 006E
ENCODING 110
SWIDTH 540 0
DWIDTH 15 0
BBX 10 14 3 0
BITMAP
BF00
C080
8080
8040
8040
8040
8040
8040
8040
8040
8040
8040
8040
8040
ENDCHAR
STARTCHAR 006F
ENCODING 111
SWIDTH 540 0
DWIDTH 15 0
BBX 11 14 2 0
BITMAP
3F80
4040
8040
8020
8020
8020
8020
8020
8020
8020
8020
8040
4040
3F80
ENDCHAR
STARTCHAR 0070
ENCODING 112
SWIDTH 540 0
DWIDTH 15 0
BBX 11 20 3 -6
BITMAP
BF00
C0C0
8040
8020
8020
8020
8020
8020
8020
8020
8020
8040
C080
A100
9E00
8000
8000
8000
8000
8000
ENDCHAR
STARTCHAR 0071
ENCODING 113
SWIDTH 540 0
DWIDTH 15 0
BBX 11 20 2 -6
BITMAP
3FA0
4060
8020
8020
8020
8020
8020
8020
8020
8020
8020
8020
4060
31A0
0E20
0020
0020
0020
0020
0020
ENDCHAR
STARTCHAR 0072
ENCODING 114
SWIDTH 324 0
DWIDTH 9 0
BBX 6 14 3 0
BITMAP
BC
C0
80
80
80
80
80
80
80
80
80
80
80
80
ENDCHAR
STARTCHAR 0073
ENCODING 115
SWIDTH 432 0
DWIDTH 12 0
BBX 10 14 1 0
BITMAP
3F80
4040
8000
8000
4000
4000
3800
0780
0040
0040
0040
0040
4040
3F80
ENDCHAR
STARTCHAR 0074
ENCODING 116
SWIDTH 288 0
DWIDTH 8 0
BBX 6 18 1 0
BITMAP
20
20
20
20
FC
20
20
20
20
20
20
20
20
20
20
20
20
1C
ENDCHAR
STARTCHAR 0075
ENCODING 117
SWIDTH 540 0
DWIDTH 15 0
BBX 10 14 3 0
BITMAP
8040
8040
8040
8040
8040
8040
8040
8040
8040
8040
8040
8040
80C0
7F40
ENDCHAR
STARTCHAR 0076
ENCODING 118
SWIDTH 432 0
DWIDTH 12 0
BBX 11 14 1 0
BITMAP
8020
8040
8040
4040
4080
4080
2100
2100
2100
1200
1200
0A00
0C00
0400
ENDCHAR
STARTCHAR 0077
ENCODING 119
SWIDTH 720 0
DWIDTH 20 0
BBX 18 14 1 0
BITMAP
804040
80C040
80C080
414080
412080
412100
222100
221100
221100
241200
140A00
140A00
180C00
080400
ENDCHAR
STARTCHAR 0078
ENCODING 120
SWIDTH 468 0
DWIDTH 13 0
BBX 11 14 1 0
BITMAP
8020
4040
2080
2100
1100
0A00
0400
0C00
0A00
1100
2080
4080
4040
8020
ENDCHAR
STARTCHAR 0079
ENCODING 121
SWIDTH 432 0
DWIDTH 12 0
BBX 11 20 1 -6
BITMAP
8020
8040
8040
4040
4080
4080
2100
2100
2100
1200
1200
0A00
0C00
0400
0800
0800
0800
1000
1000
6000
ENDCHAR
STARTCHAR 007A
ENCODING 122
SWIDTH 396 0
DWIDTH 11 0
BBX 10 14 1 0
BITMAP
7FC0
0080
0100
0100
0200
0400
0800
0800
1000
2000
2000
4000
8000
FFC0
ENDCHAR
STARTCHAR 007B
ENCODING 123
SWIDTH 288 0
DWIDTH 8 0
BBX 6 25 1 -4
BITMAP
38
20
20
20
20
20
20
20
20
20
20
40
80
40
20
20
20
20
20
20
20
20
20
20
3C
ENDCHAR
STARTCHAR 007C
ENCODING 124
SWIDTH 216 0
DWIDTH 6 0
BBX 1 25 3 -4
BITMAP
80
80
80
80
80
80
80
80
80
80
80
80
80
80
80
80
80
80
80
80
80
80
80
80
80
ENDCHAR
STARTCHAR 007D
ENCODING 125
SWIDTH 288 0
DWIDTH 8 0
BBX 6 25 2 -4
BITMAP
E0
20
20
20
20
20
20
20
20
20
10
08
04
18
10
20
20
20
20
20
20
20
20
20
E0
ENDCHAR
STARTCHAR 007E
ENCODING 126
SWIDTH 576 0
DWIDTH 16 0
BBX 13 3 2 7
BITMAP
7800
8608
01F0
ENDCHAR
STARTCHAR 00A0
ENCODING 160
SWIDTH 216 0
DWIDTH 6 0
BBX 0 0 0 0
BITMAP
ENDCHAR
STARTCHAR 00A1
ENCODING 161
SWIDTH 252 0
DWIDTH 7 0
BBX 1 19 3 -5
BITMAP
80
00
00
00
00
80
80
80
80
80
80
80
80
80
80
80
80
80
80
ENDCHAR
STARTCHAR 00A2
ENCODING 162
SWIDTH 468 0
DWIDTH 13 0
BBX 10 20 2 -3
BITMAP
0400
0400
0400
3F00
44C0
8440
8400
8400
8400
8400
8400
8400
8400
8400
8400
4440
3580
0E00
0400
0400
ENDCHAR
STARTCHAR 00A3
ENCODING 163
SWIDTH 576 0
DWIDTH 16 0
BBX 12 20 2 0
BITMAP
0380
1860
2010
4000
4000
4000
4000
4000
4000
2000
2000
FF80
2000
1000
1000
2000
2000
2000
4000
FFF0
ENDCHAR
STARTCHAR 00A4
ENCODING 164
SWIDTH 576 0
DWIDTH 16 0
BBX 15 15 1 2
BITMAP
8004
4788
3870
2010
2010
2010
4010
4008
4010
2010
2010
3010
4868
8784
0002
ENDCHAR
STARTCHAR 00A5
ENCODING 165
SWIDTH 576 0
DWIDTH 16 0
BBX 12 19 2 0
BITMAP
8010
8010
4020
4040
2040
1080
1080
0900
0600
FFF0
0400
0400
0400
0400
7FE0
0400
0400
0400
0400
ENDCHAR
STARTCHAR 00A6
ENCODING 166
SWIDTH 216 0
DWIDTH 6 0
BBX 1 25 3 -4
BITMAP
80
80
80
80
80
80
80
80
80
80
00
00
00
00
00
80
80
80
80
80
80
80
80
80
80
ENDCHAR
STARTCHAR 00A7
ENCODING 167
SWIDTH 540 0
DWIDTH 15 0
BBX 11 24 2 -4
BITMAP
0E00
30C0
4000
4000
4000
4000
2000
1800
2700
40C0
8020
8020
8020
8020
4020
3040
0E80
0180
0040
0040
0040
0040
4040
3F80
ENDCHAR
STARTCHAR 00A8
ENCODING 168
SWIDTH 576 0
DWIDTH 16 0
BBX 7 1 5 18
BITMAP
86
ENDCHAR
STARTCHAR 00A9
ENCODING 169
SWIDTH 684 0
DWIDTH 19 0
BBX 18 20 1 0
BITMAP
01E000
0E1800
100600
200100
400100
81E080
861080
840080
880040
880040
880040
880040
880040
840080
841080
43C080
400100
200200
100400
0FF800
ENDCHAR
STARTCHAR 00AA
ENCODING 170
SWIDTH 324 0
DWIDTH 9 0
BBX 8 10 1 10
BITMAP
10
6C
02
02
02
7E
82
82
82
7F
ENDCHAR
STARTCHAR 00AB
ENCODING 171
SWIDTH 468 0
DWIDTH 13 0
BBX 11 10 1 3
BITMAP
0840
1080
2100
4200
8400
8400
4200
2100
1080
0C60
ENDCHAR
STARTCHAR 00AC
ENCODING 172
SWIDTH 576 0
DWIDTH 16 0
BBX 13 6 2 3
BITMAP
FFF8
0008
0008
0008
0008
0008
ENDCHAR
STARTCHAR 00AD
ENCODING 173
SWIDTH 360 0
DWIDTH 10 0
BBX 7 1 2 8
BITMAP
FE
ENDCHAR
STARTCHAR 00AE
ENCODING 174
SWIDTH 432 0
DWIDTH 12 0
BBX 11 12 1 8
BITMAP
0E00
3180
4040
9E40
9120
9120
9E20
9220
8140
4040
2080
1F00
ENDCHAR
STARTCHAR 00AF
ENCODING 175
SWIDTH 576 0
DWIDTH 16 0
BBX 7 1 5 18
BITMAP
FE
ENDCHAR
STARTCHAR 00B0
ENCODING 176
SWIDTH 432 0
DWIDTH 12 0
BBX 9 10 2 10
BITMAP
1C00
6300
8100
8080
8080
8080
8080
8100
4200
2C00
ENDCHAR
STARTCHAR 00B1
ENCODING 177
SWIDTH 576 0
DWIDTH 16 0
BBX 13 17 2 0
BITMAP
0200
0200
0200
0200
0200
0200
0200
FFF0
0200
0200
0200
0200
0200
0200
0000
0000
FFF8
ENDCHAR
STARTCHAR 00B2
ENCODING 178
SWIDTH 324 0
DWIDTH 9 0
BBX 7 11 1 9
BITMAP
10
64
82
02
02
04
08
10
20
40
FE
ENDCHAR
STARTCHAR 00B3
ENCODING 179
SWIDTH 324 0
DWIDTH 9 0
BBX 7 11 1 9
BITMAP
18
64
02
02
04
38
06
02
02
82
7C
ENDCHAR
STARTCHAR 00B4
ENCODING 180
SWIDTH 576 0
DWIDTH 16 0
BBX 3 4 8 16
BITMAP
20
40
80
80
ENDCHAR
STARTCHAR 00B5
ENCODING 181
SWIDTH 540 0
DWIDTH 15 0
BBX 10 20 3 -6
BITMAP
8040
8040
8040
8040
8040
8040
8040
8040
8040
8040
8040
8040
C0C0
A140
9E00
8000
8000
8000
8000
8000
ENDCHAR
STARTCHAR 00B6
ENCODING 182
SWIDTH 576 0
DWIDTH 16 0
BBX 12 23 1 -4
BITMAP
1FF0
3E20
7E20
7E20
FE20
FE20
7E20
7E20
3E20
0E20
0220
0220
0220
0220
0220
0220
0220
0220
0220
0220
0220
0220
0220
ENDCHAR
STARTCHAR 00B7
ENCODING 183
SWIDTH 288 0
DWIDTH 8 0
BBX 2 1 3 8
BITMAP
C0
ENDCHAR
STARTCHAR 00B8
ENCODING 184
SWIDTH 576 0
DWIDTH 16 0
BBX 4 6 7 -6
BITMAP
40
80
60
10
10
E0
ENDCHAR
STARTCHAR 00B9
ENCODING 185
SWIDTH 360 0
DWIDTH 10 0
BBX 8 10 1 9
BITMAP
18
68
88
08
08
08
08
08
08
7F
ENDCHAR
STARTCHAR 00BA
ENCODING 186
SWIDTH 360 0
DWIDTH 10 0
BBX 8 10 1 10
BITMAP
10
66
82
81
81
81
81
81
42
3C
ENDCHAR
STARTCHAR 00BB
ENCODING 187
SWIDTH 468 0
DWIDTH 13 0
BBX 11 10 1 3
BITMAP
4200
2100
1080
0840
0420
0420
0840
1080
6300
8400
ENDCHAR
STARTCHAR 00BC
ENCODING 188
SWIDTH 828 0
DWIDTH 23 0
BBX 22 19 1 0
BITMAP
180040
680080
880080
080100
080200
080200
080400
080800
080800
7F1010
002070
002050
004090
008110
008210
010210
0103FC
020010
040010
ENDCHAR
STARTCHAR 00BD
ENCODING 189
SWIDTH 864 0
DWIDTH 24 0
BBX 22 19 1 0
BITMAP
180040
680080
880080
080100
080200
080200
080400
080800
080800
7F10F8
002104
002004
004004
008008
008008
010030
010040
020080
0401F8
ENDCHAR
STARTCHAR 00BE
ENCODING 190
SWIDTH 792 0
DWIDTH 22 0
BBX 21 20 1 0
BITMAP
180000
640080
020100
020100
040200
380400
060400
020800
021000
821000
6C2020
1040E0
0040A0
008120
010220
010420
020420
0207F8
040020
080020
ENDCHAR
STARTCHAR 00BF
ENCODING 191
SWIDTH 432 0
DWIDTH 12 0
BBX 11 20 1 -6
BITMAP
0600
0000
0000
0000
0000
0400
0400
0400
0400
0C00
3000
4000
8000
8000
8000
8020
8040
8040
4080
2D00
ENDCHAR
STARTCHAR 00C0
ENCODING 192
SWIDTH 576 0
DWIDTH 16 0
BBX 15 25 1 1
BITMAP
0400
0200
0100
0000
0000
0000
0100
0300
0480
0480
0440
0840
0840
0820
1020
1020
1010
2010
3FF0
2008
4008
4004
8004
8004
8002
ENDCHAR
STARTCHAR 00C1
ENCODING 193
SWIDTH 576 0
DWIDTH 16 0
BBX 15 26 1 0
BITMAP
0040
0080
0100
0100
0000
0000
0000
0100
0300
0480
0480
0440
0840
0840
0820
1020
1020
1010
2010
3FF0
2008
4008
4004
8004
8004
8002
ENDCHAR
STARTCHAR 00C2
ENCODING 194
SWIDTH 576 0
DWIDTH 16 0
BBX 15 26 1 0
BITMAP
0100
0280
0440
0820
0000
0000
0000
0100
0300
0480
0480
0440
0840
0840
0820
1020
1020
1010
2010
3FF0
2008
4008
4004
8004
8004
8002
ENDCHAR
STARTCHAR 00C3
ENCODING 195
SWIDTH 576 0
DWIDTH 16 0
BBX 15 25 1 0
BITMAP
0400
1B00
00E0
0000
0000
0000
0100
0300
0480
0480
0440
0840
0840
0820
1020
1020
1010
2010
3FF0
2008
4008
4004
8004
8004
8002
ENDCHAR
STARTCHAR 00C4
ENCODING 196
SWIDTH 576 0
DWIDTH 16 0
BBX 15 24 1 0
BITMAP
0860
0000
0000
0000
0000
0100
0300
0480
0480
0440
0840
0840
0820
1020
1020
1010
2010
3FF0
2008
4008
4004
8004
8004
8002
ENDCHAR
STARTCHAR 00C5
ENCODING 197
SWIDTH 576 0
DWIDTH 16 0
BBX 15 26 1 0
BITMAP
0780
0840
0840
0480
0300
0000
0000
0100
0300
0480
0480
0440
0840
0840
0820
1020
1020
1010
2010
3FF0
2008
4008
4004
8004
8004
8002
ENDCHAR
STARTCHAR 00C6
ENCODING 198
SWIDTH 828 0
DWIDTH 23 0
BBX 22 19 0 0
BITMAP
003FF8
005000
005000
009000
009000
011000
011000
021000
041000
041FF8
081000
081000
1FF000
101000
201000
201000
401000
401000
801FFC
ENDCHAR
STARTCHAR 00C7
ENCODING 199
SWIDTH 576 0
DWIDTH 16 0
BBX 13 26 2 -6
BITMAP
0780
1860
2010
4008
C000
8000
8000
8000
8000
8000
8000
8000
8000
8000
8000
8000
4008
4008
2010
1860
0780
0200
0180
0040
0440
0380
ENDCHAR
STARTCHAR 00C8
ENCODING 200
SWIDTH 540 0
DWIDTH 15 0
BBX 11 25 3 1
BITMAP
1000
0800
0400
0000
0000
0000
FFC0
8000
8000
8000
8000
8000
8000
8000
8000
FFC0
8000
8000
8000
8000
8000
8000
8000
8000
FFE0
ENDCHAR
STARTCHAR 00C9
ENCODING 201
SWIDTH 540 0
DWIDTH 15 0
BBX 11 26 3 0
BITMAP
0100
0200
0400
0400
0000
0000
0000
FFC0
8000
8000
8000
8000
8000
8000
8000
8000
FFC0
8000
8000
8000
8000
8000
8000
8000
8000
FFE0
ENDCHAR
STARTCHAR 00CA
ENCODING 202
SWIDTH 540 0
DWIDTH 15 0
BBX 11 26 3 0
BITMAP
0400
0A00
1100
2080
0000
0000
0000
FFC0
8000
8000
8000
8000
8000
8000
8000
8000
FFC0
8000
8000
8000
8000
8000
8000
8000
8000
FFE0
ENDCHAR
STARTCHAR 00CB
ENCODING 203
SWIDTH 540 0
DWIDTH 15 0
BBX 11 24 3 0
BITMAP
2180
0000
0000
0000
0000
FFC0
8000
8000
8000
8000
8000
8000
8000
8000
FFC0
8000
8000
8000
8000
8000
8000
8000
8000
FFE0
ENDCHAR
STARTCHAR 00CC
ENCODING 204
SWIDTH 360 0
DWIDTH 10 0
BBX 6 26 2 0
BITMAP
80
40
20
20
10
00
00
FC
20
20
20
20
20
20
20
20
20
20
20
20
20
20
20
20
20
FC
ENDCHAR
STARTCHAR 00CD
ENCODING 205
SWIDTH 360 0
DWIDTH 10 0
BBX 6 26 2 0
BITMAP
04
08
10
10
20
00
00
FC
20
20
20
20
20
20
20
20
20
20
20
20
20
20
20
20
20
FC
ENDCHAR
STARTCHAR 00CE
ENCODING 206
SWIDTH 360 0
DWIDTH 10 0
BBX 7 26 2 0
BITMAP
10
68
44
82
00
00
00
FC
20
20
20
20
20
20
20
20
20
20
20
20
20
20
20
20
20
FC
ENDCHAR
STARTCHAR 00CF
ENCODING 207
SWIDTH 360 0
DWIDTH 10 0
BBX 6 24 2 0
BITMAP
84
00
00
00
00
FC
20
20
20
20
20
20
20
20
20
20
20
20
20
20
20
20
20
FC
ENDCHAR
STARTCHAR 00D0
ENCODING 208
SWIDTH 648 0
DWIDTH 18 0
BBX 15 19 1 0
BITMAP
3FF0
2008
2004
2004
2002
2002
2002
2002
FE02
2002
2002
2002
2002
2002
2002
2004
2004
2008
3FF0
ENDCHAR
STARTCHAR 00D1
ENCODING 209
SWIDTH 684 0
DWIDTH 19 0
BBX 13 24 3 1
BITMAP
1E20
01C0
0000
0000
0000
8008
C008
A008
A008
9008
8808
8808
8408
8408
8208
8108
8108
8088
8048
8048
8028
8028
8018
8008
ENDCHAR
STARTCHAR 00D2
ENCODING 210
SWIDTH 648 0
DWIDTH 18 0
BBX 15 26 2 0
BITMAP
0400
0400
0200
0100
0000
0000
0780
1870
2008
4004
4004
8004
8002
8002
8002
8002
8002
8002
8002
8002
8002
8004
4004
4008
2010
1FE0
ENDCHAR
STARTCHAR 00D3
ENCODING 211
SWIDTH 648 0
DWIDTH 18 0
BBX 15 26 2 0
BITMAP
0040
0080
0080
0100
0000
0000
0780
1870
2008
4004
4004
8004
8002
8002
8002
8002
8002
8002
8002
8002
8002
8004
4004
4008
2010
1FE0
ENDCHAR
STARTCHAR 00D4
ENCODING 212
SWIDTH 648 0
DWIDTH 18 0
BBX 15 26 2 0
BITMAP
0100
0280
0440
0820
0000
0000
0780
1870
2008
4004
4004
8004
8002
8002
8002
8002
8002
8002
8002
8002
8002
8004
4004
4008
2010
1FE0
ENDCHAR
STARTCHAR 00D5
ENCODING 213
SWIDTH 648 0
DWIDTH 18 0
BBX 15 25 2 0
BITMAP
0400
1B10
00E0
0000
0000
0780
1870
2008
4004
4004
8004
8002
8002
8002
8002
8002
8002
8002
8002
8002
8004
4004
4008
2010
1FE0
ENDCHAR
STARTCHAR 00D6
ENCODING 214
SWIDTH 648 0
DWIDTH 18 0
BBX 15 24 2 0
BITMAP
0C60
0000
0000
0000
0780
1870
2008
4004
4004
8004
8002
8002
8002
8002
8002
8002
8002
8002
8002
8004
4004
4008
2010
1FE0
ENDCHAR
STARTCHAR 00D7
ENCODING 215
SWIDTH 576 0
DWIDTH 16 0
BBX 11 11 3 3
BITMAP
8020
4040
2080
1100
0A00
0400
0A00
1100
2080
4040
8020
ENDCHAR
STARTCHAR 00D8
ENCODING 216
SWIDTH 648 0
DWIDTH 18 0
BBX 15 21 2 -1
BITMAP
0782
1874
2008
4008
4014
8024
8042
8042
8082
8102
8102
8202
8402
8402
8802
9004
6004
2008
6010
9C60
8380
ENDCHAR
STARTCHAR 00D9
ENCODING 217
SWIDTH 648 0
DWIDTH 18 0
BBX 12 26 3 0
BITMAP
1000
0800
0400
0400
0200
0000
0000
8010
8010
8010
8010
8010
8010
8010
8010
8010
8010
8010
8010
8010
8010
8010
8010
8010
4020
3FC0
ENDCHAR
STARTCHAR 00DA
ENCODING 218
SWIDTH 648 0
DWIDTH 18 0
BBX 12 26 3 0
BITMAP
0080
0100
0200
0400
0400
0000
0000
8010
8010
8010
8010
8010
8010
8010
8010
8010
8010
8010
8010
8010
8010
8010
8010
8010
4020
3FC0
ENDCHAR
STARTCHAR 00DB
ENCODING 219
SWIDTH 648 0
DWIDTH 18 0
BBX 12 26 3 0
BITMAP
0200
0E00
1100
2080
0000
0000
0000
8010
8010
8010
8010
8010
8010
8010
8010
8010
8010
8010
8010
8010
8010
8010
8010
8010
4020
3FC0
ENDCHAR
STARTCHAR 00DC
ENCODING 220
SWIDTH 648 0
DWIDTH 18 0
BBX 12 24 3 0
BITMAP
1080
0000
0000
0000
0000
8010
8010
8010
8010
8010
8010
8010
8010
8010
8010
8010
8010
8010
8010
8010
8010
8010
4020
3FC0
ENDCHAR
STARTCHAR 00DD
ENCODING 221
SWIDTH 540 0
DWIDTH 15 0
BBX 13 26 1 0
BITMAP
0080
0080
0100
0200
0000
0000
0000
8008
8010
4010
2020
2020
1040
1080
0880
0500
0500
0200
0200
0200
0200
0200
0200
0200
0200
0200
ENDCHAR
STARTCHAR 00DE
ENCODING 222
SWIDTH 576 0
DWIDTH 16 0
BBX 12 19 3 0
BITMAP
8000
8000
8000
8000
FFC0
8020
8010
8010
8010
8010
8010
8010
8020
8060
FF80
8000
8000
8000
8000
ENDCHAR
STARTCHAR 00DF
ENCODING 223
SWIDTH 612 0
DWIDTH 17 0
BBX 15 21 2 0
BITMAP
0780
1860
2010
2010
4010
4008
4008
C070
4180
4200
4200
4200
4100
40C0
4038
4004
4004
4002
4004
4404
43F8
ENDCHAR
STARTCHAR 00E0
ENCODING 224
SWIDTH 504 0
DWIDTH 14 0
BBX 12 21 2 0
BITMAP
2000
1000
1000
0800
0400
0000
0000
3F00
C080
8080
0080
0040
0040
0FC0
6040
8040
8040
8040
8040
81C0
7E70
ENDCHAR
STARTCHAR 00E1
ENCODING 225
SWIDTH 504 0
DWIDTH 14 0
BBX 12 21 2 0
BITMAP
0100
0200
0400
0800
0800
0000
0000
3F00
C080
8080
0080
0040
0040
0FC0
6040
8040
8040
8040
8040
81C0
7E70
ENDCHAR
STARTCHAR 00E2
ENCODING 226
SWIDTH 504 0
DWIDTH 14 0
BBX 12 21 2 0
BITMAP
0800
1400
2200
4100
0000
0000
0000
3F00
C080
8080
0080
0040
0040
0FC0
6040
8040
8040
8040
8040
81C0
7E70
ENDCHAR
STARTCHAR 00E3
ENCODING 227
SWIDTH 504 0
DWIDTH 14 0
BBX 12 19 2 1
BITMAP
7880
0500
0000
0000
0000
3F00
C080
8080
0080
0040
0040
0FC0
6040
8040
8040
8040
8040
81C0
7E70
ENDCHAR
STARTCHAR 00E4
ENCODING 228
SWIDTH 504 0
DWIDTH 14 0
BBX 12 19 2 0
BITMAP
2100
0000
0000
0000
0000
3F00
C080
8080
0080
0040
0040
0FC0
6040
8040
8040
8040
8040
81C0
7E70
ENDCHAR
STARTCHAR 00E5
ENCODING 229
SWIDTH 504 0
DWIDTH 14 0
BBX 12 21 2 0
BITMAP
1E00
2200
2200
2200
1C00
0000
0000
3F00
C080
8080
0080
0040
0040
0FC0
6040
8040
8040
8040
8040
81C0
7E70
ENDCHAR
STARTCHAR 00E6
ENCODING 230
SWIDTH 828 0
DWIDTH 23 0
BBX 20 14 2 0
BITMAP
3F1FC0
C0A020
80C020
004010
004010
008010
0FFFF0
608000
808000
804000
804010
80C010
812020
7E0FC0
ENDCHAR
STARTCHAR 00E7
ENCODING 231
SWIDTH 468 0
DWIDTH 13 0
BBX 10 20 2 -6
BITMAP
3F00
40C0
8040
8000
8000
8000
8000
8000
8000
8000
8000
8000
4040
3180
0E00
0800
0700
0100
0100
0C00
ENDCHAR
STARTCHAR 00E8
ENCODING 232
SWIDTH 504 0
DWIDTH 14 0
BBX 11 21 2 0
BITMAP
1000
1000
0800
0400
0000
0000
0000
3F00
40C0
8040
8020
8020
8020
FFE0
8000
8000
8000
8020
8060
4040
3F80
ENDCHAR
STARTCHAR 00E9
ENCODING 233
SWIDTH 504 0
DWIDTH 14 0
BBX 11 21 2 0
BITMAP
0100
0200
0200
0400
0000
0000
0000
3F00
40C0
8040
8020
8020
8020
FFE0
8000
8000
8000
8020
8060
4040
3F80
ENDCHAR
STARTCHAR 00EA
ENCODING 234
SWIDTH 504 0
DWIDTH 14 0
BBX 11 21 2 0
BITMAP
0400
0A00
1100
2080
0000
0000
0000
3F00
40C0
8040
8020
8020
8020
FFE0
8000
8000
8000
8020
8060
4040
3F80
ENDCHAR
STARTCHAR 00EB
ENCODING 235
SWIDTH 504 0
DWIDTH 14 0
BBX 11 19 2 0
BITMAP
3180
0000
0000
0000
0000
3F00
40C0
8040
8020
8020
8020
FFE0
8000
8000
8000
8020
8060
4040
3F80
ENDCHAR
STARTCHAR 00EC
ENCODING 236
SWIDTH 216 0
DWIDTH 6 0
BBX 3 20 1 1
BITMAP
80
40
40
20
00
00
20
20
20
20
20
20
20
20
20
20
20
20
20
20
ENDCHAR
STARTCHAR 00ED
ENCODING 237
SWIDTH 216 0
DWIDTH 6 0
BBX 4 21 2 0
BITMAP
10
20
40
40
80
00
00
40
40
40
40
40
40
40
40
40
40
40
40
40
40
ENDCHAR
STARTCHAR 00EE
ENCODING 238
SWIDTH 216 0
DWIDTH 6 0
BBX 7 21 0 0
BITMAP
10
28
44
82
00
00
00
10
10
10
10
10
10
10
10
10
10
10
10
10
10
ENDCHAR
STARTCHAR 00EF
ENCODING 239
SWIDTH 216 0
DWIDTH 6 0
BBX 6 19 0 0
BITMAP
84
00
00
00
00
10
10
10
10
10
10
10
10
10
10
10
10
10
10
ENDCHAR
STARTCHAR 00F0
ENCODING 240
SWIDTH 540 0
DWIDTH 15 0
BBX 11 21 2 0
BITMAP
2080
1900
0600
0A00
1100
0080
0080
0F40
20C0
4060
8020
8020
8020
8020
8020
8020
8020
8020
8040
4040
3F80
ENDCHAR
STARTCHAR 00F1
ENCODING 241
SWIDTH 540 0
DWIDTH 15 0
BBX 10 19 3 1
BITMAP
7880
0500
0000
0000
0000
BF00
C080
8080
8040
8040
8040
8040
8040
8040
8040
8040
8040
8040
8040
ENDCHAR
STARTCHAR 00F2
ENCODING 242
SWIDTH 540 0
DWIDTH 15 0
BBX 11 21 2 0
BITMAP
1000
1000
0800
0400
0000
0000
0000
3F80
4040
8040
8020
8020
8020
8020
8020
8020
8020
8020
8040
4040
3F80
ENDCHAR
STARTCHAR 00F3
ENCODING 243
SWIDTH 540 0
DWIDTH 15 0
BBX 11 21 2 0
BITMAP
0100
0200
0200
0400
0000
0000
0000
3F80
4040
8040
8020
8020
8020
8020
8020
8020
8020
8020
8040
4040
3F80
ENDCHAR
STARTCHAR 00F4
ENCODING 244
SWIDTH 540 0
DWIDTH 15 0
BBX 11 21 2 0
BITMAP
0400
0A00
1100
2080
0000
0000
0000
3F80
4040
8040
8020
8020
8020
8020
8020
8020
8020
8020
8040
4040
3F80
ENDCHAR
STARTCHAR 00F5
ENCODING 245
SWIDTH 540 0
DWIDTH 15 0
BBX 11 19 2 1
BITMAP
7C40
0380
0000
0000
0000
3F80
4040
8040
8020
8020
8020
8020
8020
8020
8020
8020
8040
4040
3F80
ENDCHAR
STARTCHAR 00F6
ENCODING 246
SWIDTH 540 0
DWIDTH 15 0
BBX 11 19 2 0
BITMAP
3180
0000
0000
0000
0000
3F80
4040
8040
8020
8020
8020
8020
8020
8020
8020
8020
8040
4040
3F80
ENDCHAR
STARTCHAR 00F7
ENCODING 247
SWIDTH 576 0
DWIDTH 16 0
BBX 13 13 2 2
BITMAP
0200
0600
0000
0000
0000
0000
FFF8
0000
0000
0000
0000
0600
0200
ENDCHAR
STARTCHAR 00F8
ENCODING 248
SWIDTH 540 0
DWIDTH 15 0
BBX 13 16 1 -1
BITMAP
0008
1FD0
2020
4050
4050
4090
8110
8210
8410
8410
4810
5010
2010
2020
58C0
8700
ENDCHAR
STARTCHAR 00F9
ENCODING 249
SWIDTH 540 0
DWIDTH 15 0
BBX 10 21 3 0
BITMAP
2000
2000
1000
0800
0000
0000
0000
8040
8040
8040
8040
8040
8040
8040
8040
8040
8040
8040
8040
80C0
7F40
ENDCHAR
STARTCHAR 00FA
ENCODING 250
SWIDTH 540 0
DWIDTH 15 0
BBX 10 20 3 1
BITMAP
0200
0400
0800
0000
0000
0000
8040
8040
8040
8040
8040
8040
8040
8040
8040
8040
8040
8040
80C0
7F40
ENDCHAR
STARTCHAR 00FB
ENCODING 251
SWIDTH 540 0
DWIDTH 15 0
BBX 10 21 3 0
BITMAP
0800
1400
2200
4100
0000
0000
0000
8040
8040
8040
8040
8040
8040
8040
8040
8040
8040
8040
8040
80C0
7F40
ENDCHAR
STARTCHAR 00FC
ENCODING 252
SWIDTH 540 0
DWIDTH 15 0
BBX 10 19 3 0
BITMAP
6300
0000
0000
0000
0000
8040
8040
8040
8040
8040
8040
8040
8040
8040
8040
8040
8040
80C0
7F40
ENDCHAR
STARTCHAR 00FD
ENCODING 253
SWIDTH 432 0
DWIDTH 12 0
BBX 11 27 1 -6
BITMAP
0100
0200
0200
0400
0000
0000
0000
8020
8040
8040
4040
4080
4080
2100
2100
2100
1200
1200
0A00
0C00
0400
0800
0800
0800
1000
1000
6000
ENDCHAR
STARTCHAR 00FE
ENCODING 254
SWIDTH 540 0
DWIDTH 15 0
BBX 11 27 3 -6
BITMAP
8000
8000
8000
8000
8000
8000
8000
BF00
C0C0
8040
8020
8020
8020
8020
8020
8020
8020
8020
8040
C080
A100
9E00
8000
8000
8000
8000
8000
ENDCHAR
STARTCHAR 00FF
ENCODING 255
SWIDTH 432 0
DWIDTH 12 0
BBX 11 25 1 -6
BITMAP
2180
0000
0000
0000
0000
8020
8040
8040
4040
4080
4080
2100
2100
2100
1200
1200
0A00
0C00
0400
0800
0800
0800
1000
1000
6000
ENDCHAR
STARTCHAR 0100
ENCODING 256
SWIDTH 576 0
DWIDTH 16 0
BBX 15 24 1 0
BITMAP
0FE0
0000
0000
0000
0000
0100
0300
0480
0480
0440
0840
0840
0820
1020
1020
1010
2010
3FF0
2008
4008
4004
8004
8004
8002
ENDCHAR
STARTCHAR 0101
ENCODING 257
SWIDTH 504 0
DWIDTH 14 0
BBX 12 19 2 0
BITMAP
7F80
0000
0000
0000
0000
3F00
C080
8080
0080
0040
0040
0FC0
6040
8040
8040
8040
8040
81C0
7E70
ENDCHAR
STARTCHAR 0102
ENCODING 258
SWIDTH 576 0
DWIDTH 16 0
BBX 15 25 1 0
BITMAP
0820
0840
0480
0300
0000
0000
0100
0300
0480
0480
0440
0840
0840
0820
1020
1020
1010
2010
3FF0
2008
4008
4004
8004
8004
8002
ENDCHAR
STARTCHAR 0103
ENCODING 259
SWIDTH 504 0
DWIDTH 14 0
BBX 12 20 2 0
BITMAP
4100
2100
1200
0C00
0000
0000
3F00
C080
8080
0080
0040
0040
0FC0
6040
8040
8040
8040
8040
81C0
7E70
ENDCHAR
STARTCHAR 0104
ENCODING 260
SWIDTH 576 0
DWIDTH 16 0
BBX 15 25 1 -6
BITMAP
0100
0300
0480
0480
0440
0840
0840
0820
1020
1020
1010
2010
3FF0
2008
4008
4004
8004
8004
8002
0004
0008
0010
0010
0010
000E
ENDCHAR
STARTCHAR 0105
ENCODING 261
SWIDTH 504 0
DWIDTH 14 0
BBX 12 20 2 -6
BITMAP
3F00
C080
8080
0080
0040
0040
0FC0
6040
8040
8040
8040
8040
81C0
4270
3C20
0040
0080
0080
0080
0030
ENDCHAR
STARTCHAR 0106
ENCODING 262
SWIDTH 576 0
DWIDTH 16 0
BBX 13 26 2 0
BITMAP
0040
0080
0100
0100
0200
0000
0780
1860
2010
4008
C000
8000
8000
8000
8000
8000
8000
8000
8000
8000
8000
8000
4008
4008
2010
1FE0
ENDCHAR
STARTCHAR 0107
ENCODING 263
SWIDTH 468 0
DWIDTH 13 0
BBX 10 21 2 0
BITMAP
0100
0200
0200
0400
0000
0000
0000
3F00
40C0
8040
8000
8000
8000
8000
8000
8000
8000
8000
8000
4040
3F80
ENDCHAR
STARTCHAR 0108
ENCODING 264
SWIDTH 576 0
DWIDTH 16 0
BBX 13 26 2 0
BITMAP
0100
0680
0840
0820
0000
0000
0780
1860
2010
4008
C000
8000
8000
8000
8000
8000
8000
8000
8000
8000
8000
8000
4008
4008
2010
1FE0
ENDCHAR
STARTCHAR 0109
ENCODING 265
SWIDTH 468 0
DWIDTH 13 0
BBX 10 21 2 0
BITMAP
0400
0A00
1100
2080
0000
0000
0000
3F00
40C0
8040
8000
8000
8000
8000
8000
8000
8000
8000
8000
4040
3F80
ENDCHAR
STARTCHAR 010A
ENCODING 266
SWIDTH 576 0
DWIDTH 16 0
BBX 13 24 2 0
BITMAP
0100
0000
0000
0000
0780
1860
2010
4008
C000
8000
8000
8000
8000
8000
8000
8000
8000
8000
8000
8000
4008
4008
2010
1FE0
ENDCHAR
STARTCHAR 010B
ENCODING 267
SWIDTH 468 0
DWIDTH 13 0
BBX 10 19 2 0
BITMAP
0400
0000
0000
0000
0000
3F00
40C0
8040
8000
8000
8000
8000
8000
8000
8000
8000
8000
4040
3F80
ENDCHAR
STARTCHAR 010C
ENCODING 268
SWIDTH 576 0
DWIDTH 16 0
BBX 13 26 2 0
BITMAP
1020
0840
0480
0300
0000
0000
0780
1860
2010
4008
C000
8000
8000
8000
8000
8000
8000
8000
8000
8000
8000
8000
4008
4008
2010
1FE0
ENDCHAR
STARTCHAR 010D
ENCODING 269
SWIDTH 468 0
DWIDTH 13 0
BBX 10 20 2 1
BITMAP
2080
1100
0A00
0400
0000
0000
3F00
40C0
8040
8000
8000
8000
8000
8000
8000
8000
8000
8000
4040
3F80
ENDCHAR
STARTCHAR 010E
ENCODING 270
SWIDTH 648 0
DWIDTH 18 0
BBX 13 26 3 0
BITMAP
4000
2180
1200
0C00
0000
0000
0000
FFC0
8020
8010
8010
8008
8008
8008
8008
8008
8008
8008
8008
8008
8008
8008
8010
8010
8060
FF80
ENDCHAR
STARTCHAR 010F
ENCODING 271
SWIDTH 540 0
DWIDTH 15 0
BBX 14 21 2 0
BITMAP
0020
0024
0024
0024
0024
0020
0020
3FA0
4060
8020
8020
8020
8020
8020
8020
8020
8020
8020
8020
4060
3FA0
ENDCHAR
STARTCHAR 0110
ENCODING 272
SWIDTH 648 0
DWIDTH 18 0
BBX 15 19 1 0
BITMAP
3FF0
2008
2004
2004
2002
2002
2002
2002
FE02
2002
2002
2002
2002
2002
2002
2004
2004
2008
3FF0
ENDCHAR
STARTCHAR 0111
ENCODING 273
SWIDTH 540 0
DWIDTH 15 0
BBX 13 21 2 0
BITMAP
0020
0020
0020
03F8
0020
0020
0020
3FA0
4060
8020
8020
8020
8020
8020
8020
8020
8020
8020
8020
4060
3FA0
ENDCHAR
STARTCHAR 0112
ENCODING 274
SWIDTH 540 0
DWIDTH 15 0
BBX 11 24 3 0
BITMAP
3F80
0000
0000
0000
0000
FFC0
8000
8000
8000
8000
8000
8000
8000
8000
FFC0
8000
8000
8000
8000
8000
8000
8000
8000
FFE0
ENDCHAR
STARTCHAR 0113
ENCODING 275
SWIDTH 504 0
DWIDTH 14 0
BBX 11 19 2 0
BITMAP
3F80
0000
0000
0000
0000
3F00
40C0
8040
8020
8020
8020
FFE0
8000
8000
8000
8020
8060
4040
3F80
ENDCHAR
STARTCHAR 0114
ENCODING 276
SWIDTH 540 0
DWIDTH 15 0
BBX 11 25 3 0
BITMAP
2080
2100
1200
0C00
0000
0000
FFC0
8000
8000
8000
8000
8000
8000
8000
8000
FFC0
8000
8000
8000
8000
8000
8000
8000
8000
FFE0
ENDCHAR
STARTCHAR 0115
ENCODING 277
SWIDTH 504 0
DWIDTH 14 0
BBX 11 20 2 0
BITMAP
2080
2100
1A00
0400
0000
0000
3F00
40C0
8040
8020
8020
8020
FFE0
8000
8000
8000
8020
8060
4040
3F80
ENDCHAR
STARTCHAR 0116
ENCODING 278
SWIDTH 540 0
DWIDTH 15 0
BBX 11 24 3 0
BITMAP
0400
0000
0000
0000
0000
FFC0
8000
8000
8000
8000
8000
8000
8000
8000
FFC0
8000
8000
8000
8000
8000
8000
8000
8000
FFE0
ENDCHAR
STARTCHAR 0117
ENCODING 279
SWIDTH 504 0
DWIDTH 14 0
BBX 11 19 2 0
BITMAP
0400
0000
0000
0000
0000
3F00
40C0
8040
8020
8020
8020
FFE0
8000
8000
8000
8020
8060
4040
3F80
ENDCHAR
STARTCHAR 0118
ENCODING 280
SWIDTH 540 0
DWIDTH 15 0
BBX 11 24 3 -6
BITMAP
FFC0
8000
8000
8000
8000
8000
8000
8000
8000
FFC0
8000
8000
8000
8000
8000
8000
8000
8000
FFE0
0040
0080
0100
0200
0120
ENDCHAR
STARTCHAR 0119
ENCODING 281
SWIDTH 504 0
DWIDTH 14 0
BBX 11 20 2 -6
BITMAP
3F00
40C0
8040
8020
8020
8020
FFE0
8000
8000
8000
8020
8040
4040
3180
0E00
0400
0800
0800
0880
0600
ENDCHAR
STARTCHAR 011A
ENCODING 282
SWIDTH 540 0
DWIDTH 15 0
BBX 11 26 3 0
BITMAP
4000
2180
1200
0C00
0000
0000
0000
FFC0
8000
8000
8000
8000
8000
8000
8000
8000
FFC0
8000
8000
8000
8000
8000
8000
8000
8000
FFE0
ENDCHAR
STARTCHAR 011B
ENCODING 283
SWIDTH 504 0
DWIDTH 14 0
BBX 11 20 2 1
BITMAP
2180
1100
0A00
0400
0000
0000
3F00
40C0
8040
8020
8020
8020
FFE0
8000
8000
8000
8020
8060
4040
3F80
ENDCHAR
STARTCHAR 011C
ENCODING 284
SWIDTH 648 0
DWIDTH 18 0
BBX 14 26 2 0
BITMAP
0100
0280
0440
0820
0000
0000
0780
1870
2008
4008
4000
8000
8000
8000
8000
8000
8000
807C
8004
8004
8004
8004
4004
400C
2014
1FE4
ENDCHAR
STARTCHAR 011D
ENCODING 285
SWIDTH 504 0
DWIDTH 14 0
BBX 13 27 1 -6
BITMAP
0200
0500
0880
1040
0000
0000
0000
1FF0
2040
4020
4020
4020
4020
2020
2040
1F80
3000
4000
4000
3000
2FF0
4008
8008
8008
8008
4010
3FE0
ENDCHAR
STARTCHAR 011E
ENCODING 286
SWIDTH 648 0
DWIDTH 18 0
BBX 14 25 2 0
BITMAP
0820
0840
0680
0100
0000
0780
1870
2008
4008
4000
8000
8000
8000
8000
8000
8000
807C
8004
8004
8004
8004
4004
400C
2014
1FE4
ENDCHAR
STARTCHAR 011F
ENCODING 287
SWIDTH 504 0
DWIDTH 14 0
BBX 13 26 1 -6
BITMAP
1040
1080
0900
0600
0000
0000
1FF0
2040
4020
4020
4020
4020
2020
2040
1F80
3000
4000
4000
3000
2FF0
4008
8008
8008
8008
4010
3FE0
ENDCHAR
STARTCHAR 0120
ENCODING 288
SWIDTH 648 0
DWIDTH 18 0
BBX 14 24 2 0
BITMAP
0100
0000
0000
0000
0780
1870
2008
4008
4000
8000
8000
8000
8000
8000
8000
807C
8004
8004
8004
8004
4004
400C
2014
1FE4
ENDCHAR
STARTCHAR 0121
ENCODING 289
SWIDTH 504 0
DWIDTH 14 0
BBX 13 25 1 -6
BITMAP
0200
0000
0000
0000
0000
1FF0
2040
4020
4020
4020
4020
2020
2040
1F80
3000
4000
4000
3000
2FF0
4008
8008
8008
8008
4010
3FE0
ENDCHAR
STARTCHAR 0122
ENCODING 290
SWIDTH 648 0
DWIDTH 18 0
BBX 14 25 2 -6
BITMAP
0780
1870
2008
4008
4000
8000
8000
8000
8000
8000
8000
807C
8004
8004
8004
8004
4004
400C
2014
1864
0780
0000
0100
0100
0100
ENDCHAR
STARTCHAR 0123
ENCODING 291
SWIDTH 504 0
DWIDTH 14 0
BBX 13 26 1 -5
BITMAP
0200
0400
0200
0000
0000
0000
1FF0
2040
4020
4020
4020
4020
2020
2040
1F80
3000
4000
4000
3000
2FF0
4008
8008
8008
8008
4010
3FE0
ENDCHAR
STARTCHAR 0124
ENCODING 292
SWIDTH 684 0
DWIDTH 19 0
BBX 13 26 3 0
BITMAP
0200
0500
0880
1040
0000
0000
0000
8008
8008
8008
8008
8008
8008
8008
8008
8008
FFF8
8008
8008
8008
8008
8008
8008
8008
8008
8008
ENDCHAR
STARTCHAR 0125
ENCODING 293
SWIDTH 540 0
DWIDTH 15 0
BBX 14 25 -1 0
BITMAP
1800
2400
4200
8100
0800
0800
0800
0800
0800
0800
0800
0BF0
0C08
0808
0804
0804
0804
0804
0804
0804
0804
0804
0804
0804
0804
ENDCHAR
STARTCHAR 0126
ENCODING 294
SWIDTH 684 0
DWIDTH 19 0
BBX 17 19 1 0
BITMAP
200200
200200
200200
200200
FFFF80
200200
200200
200200
200200
3FFE00
200200
200200
200200
200200
200200
200200
200200
200200
200200
ENDCHAR
STARTCHAR 0127
ENCODING 295
SWIDTH 540 0
DWIDTH 15 0
BBX 12 21 1 0
BITMAP
2000
2000
2000
FE00
2000
2000
2000
2FC0
3020
2010
2010
2010
2010
2010
2010
2010
2010
2010
2010
2010
2010
ENDCHAR
STARTCHAR 0128
ENCODING 296
SWIDTH 360 0
DWIDTH 10 0
BBX 8 24 1 1
BITMAP
F8
05
00
00
00
7E
10
10
10
10
10
10
10
10
10
10
10
10
10
10
10
10
10
7E
ENDCHAR
STARTCHAR 0129
ENCODING 297
SWIDTH 216 0
DWIDTH 6 0
BBX 8 19 -1 1
BITMAP
F8
05
00
00
00
08
08
08
08
08
08
08
08
08
08
08
08
08
08
ENDCHAR
STARTCHAR 012A
ENCODING 298
SWIDTH 360 0
DWIDTH 10 0
BBX 7 24 2 0
BITMAP
FE
00
00
00
00
FC
20
20
20
20
20
20
20
20
20
20
20
20
20
20
20
20
20
FC
ENDCHAR
STARTCHAR 012B
ENCODING 299
SWIDTH 216 0
DWIDTH 6 0
BBX 7 19 0 0
BITMAP
FE
00
00
00
00
10
10
10
10
10
10
10
10
10
10
10
10
10
10
ENDCHAR
STARTCHAR 012C
ENCODING 300
SWIDTH 360 0
DWIDTH 10 0
BBX 8 25 1 0
BITMAP
81
42
24
18
00
00
7E
10
10
10
10
10
10
10
10
10
10
10
10
10
10
10
10
10
7E
ENDCHAR
STARTCHAR 012D
ENCODING 301
SWIDTH 216 0
DWIDTH 6 0
BBX 7 20 0 0
BITMAP
82
84
48
30
00
00
10
10
10
10
10
10
10
10
10
10
10
10
10
10
ENDCHAR
STARTCHAR 012E
ENCODING 302
SWIDTH 360 0
DWIDTH 10 0
BBX 7 25 2 -6
BITMAP
FC
20
20
20
20
20
20
20
20
20
20
20
20
20
20
20
20
20
FC
04
18
20
20
22
18
ENDCHAR
STARTCHAR 012F
ENCODING 303
SWIDTH 216 0
DWIDTH 6 0
BBX 4 26 0 -6
BITMAP
10
00
00
00
00
00
10
10
10
10
10
10
10
10
10
10
10
10
10
10
20
40
80
80
80
70
ENDCHAR
STARTCHAR 0130
ENCODING 304
SWIDTH 360 0
DWIDTH 10 0
BBX 6 24 2 0
BITMAP
10
00
00
00
00
FC
20
20
20
20
20
20
20
20
20
20
20
20
20
20
20
20
20
FC
ENDCHAR
STARTCHAR 0131
ENCODING 305
SWIDTH 216 0
DWIDTH 6 0
BBX 1 14 3 0
BITMAP
80
80
80
80
80
80
80
80
80
80
80
80
80
80
ENDCHAR
STARTCHAR 0132
ENCODING 306
SWIDTH 612 0
DWIDTH 17 0
BBX 12 19 3 0
BITMAP
83F0
8010
8010
8010
8010
8010
8010
8010
8010
8010
0010
0010
0010
0010
0010
0020
8020
4040
3F80
ENDCHAR
STARTCHAR 0133
ENCODING 307
SWIDTH 432 0
DWIDTH 12 0
BBX 7 26 3 -6
BITMAP
82
00
00
00
00
00
82
82
82
82
82
82
82
82
82
82
82
82
82
82
02
02
02
02
02
0C
ENDCHAR
STARTCHAR 0134
ENCODING 308
SWIDTH 432 0
DWIDTH 12 0
BBX 9 26 1 0
BITMAP
0400
0A00
1100
2080
0000
0000
0000
3F80
0080
0080
0080
0080
0080
0080
0080
0080
0080
0080
0080
0080
0080
0080
0080
8080
8100
7E00
ENDCHAR
STARTCHAR 0135
ENCODING 309
SWIDTH 216 0
DWIDTH 6 0
BBX 7 27 0 -6
BITMAP
10
28
44
82
00
00
00
10
10
10
10
10
10
10
10
10
10
10
10
10
10
10
10
10
10
10
60
ENDCHAR
STARTCHAR 0136
ENCODING 310
SWIDTH 540 0
DWIDTH 15 0
BBX 12 24 3 -6
BITMAP
8030
8020
8040
8080
8100
8200
8400
8800
9800
A400
C200
8200
8100
8080
8080
8040
8020
8020
8010
0000
0000
0400
0400
0400
ENDCHAR
STARTCHAR 0137
ENCODING 311
SWIDTH 468 0
DWIDTH 13 0
BBX 10 26 3 -6
BITMAP
8000
8000
8000
8000
8000
8000
8000
8080
8100
8200
8400
8800
9000
B000
C800
8400
8400
8200
8100
8080
8040
0000
0000
0800
0800
0800
ENDCHAR
STARTCHAR 0138
ENCODING 312
SWIDTH 468 0
DWIDTH 13 0
BBX 10 14 3 0
BITMAP
8080
8100
8200
8400
8800
9000
B000
C800
8800
8400
8200
8100
8080
8040
ENDCHAR
STARTCHAR 0139
ENCODING 313
SWIDTH 468 0
DWIDTH 13 0
BBX 10 26 3 0
BITMAP
2000
4000
8000
8000
0000
0000
0000
8000
8000
8000
8000
8000
8000
8000
8000
8000
8000
8000
8000
8000
8000
8000
8000
8000
8000
FFC0
ENDCHAR
STARTCHAR 013A
ENCODING 314
SWIDTH 216 0
DWIDTH 6 0
BBX 4 26 2 0
BITMAP
20
20
40
80
00
40
40
40
40
40
40
40
40
40
40
40
40
40
40
40
40
40
40
40
40
70
ENDCHAR
STARTCHAR 013B
ENCODING 315
SWIDTH 468 0
DWIDTH 13 0
BBX 10 25 3 -6
BITMAP
8000
8000
8000
8000
8000
8000
8000
8000
8000
8000
8000
8000
8000
8000
8000
8000
8000
8000
FFC0
0000
0000
0C00
0400
0800
0800
ENDCHAR
STARTCHAR 013C
ENCODING 316
SWIDTH 216 0
DWIDTH 6 0
BBX 3 26 3 -6
BITMAP
80
80
80
80
80
80
80
80
80
80
80
80
80
80
80
80
80
80
80
80
E0
00
00
40
40
40
ENDCHAR
STARTCHAR 013D
ENCODING 317
SWIDTH 468 0
DWIDTH 13 0
BBX 10 21 3 0
BITMAP
0800
1000
9000
9000
9000
8000
8000
8000
8000
8000
8000
8000
8000
8000
8000
8000
8000
8000
8000
8000
FFC0
ENDCHAR
STARTCHAR 013E
ENCODING 318
SWIDTH 216 0
DWIDTH 6 0
BBX 4 21 3 0
BITMAP
80
90
90
90
90
80
80
80
80
80
80
80
80
80
80
80
80
80
80
80
E0
ENDCHAR
STARTCHAR 013F
ENCODING 319
SWIDTH 468 0
DWIDTH 13 0
BBX 10 19 3 0
BITMAP
8000
8000
8000
8000
8000
8000
8000
8000
8000
8000
8300
8000
8000
8000
8000
8000
8000
8000
FFC0
ENDCHAR
STARTCHAR 0140
ENCODING 320
SWIDTH 252 0
DWIDTH 7 0
BBX 5 21 3 0
BITMAP
80
80
80
80
80
80
80
80
80
80
80
80
80
98
80
80
80
80
80
80
E0
ENDCHAR
STARTCHAR 0141
ENCODING 321
SWIDTH 468 0
DWIDTH 13 0
BBX 12 19 1 0
BITMAP
2000
2000
2000
2000
2000
2000
2000
2000
2100
2E00
7000
A000
2000
2000
2000
2000
2000
2000
3FF0
ENDCHAR
STARTCHAR 0142
ENCODING 322
SWIDTH 252 0
DWIDTH 7 0
BBX 5 21 1 0
BITMAP
20
20
20
20
20
20
20
20
20
20
38
E0
20
20
20
20
20
20
20
20
38
ENDCHAR
STARTCHAR 0143
ENCODING 323
SWIDTH 684 0
DWIDTH 19 0
BBX 13 25 3 1
BITMAP
0080
0100
0200
0000
0000
0000
8008
C008
A008
A008
9008
8808
8808
8408
8408
8208
8108
8108
8088
8048
8048
8028
8028
8018
8008
ENDCHAR
STARTCHAR 0144
ENCODING 324
SWIDTH 540 0
DWIDTH 15 0
BBX 10 21 3 0
BITMAP
0100
0200
0400
0800
0800
0000
0000
BF00
C080
8080
8040
8040
8040
8040
8040
8040
8040
8040
8040
8040
8040
ENDCHAR
STARTCHAR 0145
ENCODING 325
SWIDTH 684 0
DWIDTH 19 0
BBX 13 24 3 -6
BITMAP
8008
C008
A008
A008
9008
8808
8808
8408
8408
8208
8108
8108
8088
8048
8048
8028
8028
8018
8008
0000
0000
0200
0200
0200
ENDCHAR
STARTCHAR 0146
ENCODING 326
SWIDTH 540 0
DWIDTH 15 0
BBX 10 20 3 -6
BITMAP
BF00
C080
8080
8040
8040
8040
8040
8040
8040
8040
8040
8040
8040
8040
0000
0000
0C00
0800
0800
0800
ENDCHAR
STARTCHAR 0147
ENCODING 327
SWIDTH 684 0
DWIDTH 19 0
BBX 13 25 3 1
BITMAP
1040
0880
0500
0200
0000
0000
8008
C008
A008
A008
9008
8808
8808
8408
8408
8208
8108
8108
8088
8048
8048
8028
8028
8018
8008
ENDCHAR
STARTCHAR 0148
ENCODING 328
SWIDTH 540 0
DWIDTH 15 0
BBX 10 21 3 0
BITMAP
4080
2100
1200
0C00
0000
0000
0000
BF00
C080
8080
8040
8040
8040
8040
8040
8040
8040
8040
8040
8040
8040
ENDCHAR
STARTCHAR 0149
ENCODING 329
SWIDTH 756 0
DWIDTH 21 0
BBX 17 21 2 0
BITMAP
400000
400000
400000
400000
800000
000000
000000
02FE00
030100
020100
020100
020100
020080
020080
020080
020080
020080
020080
020080
020080
020080
ENDCHAR
STARTCHAR 014A
ENCODING 330
SWIDTH 684 0
DWIDTH 19 0
BBX 13 25 3 -6
BITMAP
8008
C008
A008
A008
9008
8808
8808
8408
8408
8208
8108
8108
8088
8048
8048
8028
8028
8018
8008
0008
0008
0008
0008
0008
0038
ENDCHAR
STARTCHAR 014B
ENCODING 331
SWIDTH 540 0
DWIDTH 15 0
BBX 10 20 3 -6
BITMAP
BF00
C080
8080
8040
8040
8040
8040
8040
8040
8040
8040
8040
8040
8040
0040
0040
0040
0040
0040
0180
ENDCHAR
STARTCHAR 014C
ENCODING 332
SWIDTH 648 0
DWIDTH 18 0
BBX 15 24 2 0
BITMAP
0FE0
0000
0000
0000
0780
1870
2008
4004
4004
8004
8002
8002
8002
8002
8002
8002
8002
8002
8002
8004
4004
4008
2010
1FE0
ENDCHAR
STARTCHAR 014D
ENCODING 333
SWIDTH 540 0
DWIDTH 15 0
BBX 11 19 2 0
BITMAP
3F80
0000
0000
0000
0000
3F80
4040
8040
8020
8020
8020
8020
8020
8020
8020
8020
8040
4040
3F80
ENDCHAR
STARTCHAR 014E
ENCODING 334
SWIDTH 648 0
DWIDTH 18 0
BBX 15 25 2 0
BITMAP
0820
0840
0680
0100
0000
0780
1870
2008
4004
4004
8004
8002
8002
8002
8002
8002
8002
8002
8002
8002
8004
4004
4008
2010
1FE0
ENDCHAR
STARTCHAR 014F
ENCODING 335
SWIDTH 540 0
DWIDTH 15 0
BBX 11 20 2 0
BITMAP
2080
2100
1A00
0400
0000
0000
3F80
4040
8040
8020
8020
8020
8020
8020
8020
8020
8020
8040
4040
3F80
ENDCHAR
STARTCHAR 0150
ENCODING 336
SWIDTH 648 0
DWIDTH 18 0
BBX 15 26 2 0
BITMAP
0008
0110
0220
0420
0040
0000
0780
1870
2008
4004
4004
8004
8002
8002
8002
8002
8002
8002
8002
8002
8002
8004
4004
4008
2010
1FE0
ENDCHAR
STARTCHAR 0151
ENCODING 337
SWIDTH 540 0
DWIDTH 15 0
BBX 11 21 2 0
BITMAP
0020
0440
0880
1080
0100
0000
0000
3F80
4040
8040
8020
8020
8020
8020
8020
8020
8020
8020
8040
4040
3F80
ENDCHAR
STARTCHAR 0152
ENCODING 338
SWIDTH 936 0
DWIDTH 26 0
BBX 23 20 2 0
BITMAP
03E000
0C0FFC
300800
400800
400800
800800
800800
800800
800800
800800
800FFC
800800
800800
800800
800800
800800
400800
200800
100800
0FFFFE
ENDCHAR
STARTCHAR 0153
ENCODING 339
SWIDTH 900 0
DWIDTH 25 0
BBX 22 14 2 0
BITMAP
3F87E0
404818
805008
803004
802004
802004
801FFC
802000
802000
802000
803004
80500C
404808
3F87F0
ENDCHAR
STARTCHAR 0154
ENCODING 340
SWIDTH 612 0
DWIDTH 17 0
BBX 12 26 3 0
BITMAP
0100
0200
0200
0400
0000
0000
0000
FFC0
8020
8010
8010
8010
8010
8010
8010
8020
FFC0
8100
8100
8080
8080
8040
8020
8020
8010
8010
ENDCHAR
STARTCHAR 0155
ENCODING 341
SWIDTH 324 0
DWIDTH 9 0
BBX 6 21 3 0
BITMAP
04
08
10
10
20
00
00
BC
C0
80
80
80
80
80
80
80
80
80
80
80
80
ENDCHAR
STARTCHAR 0156
ENCODING 342
SWIDTH 612 0
DWIDTH 17 0
BBX 12 24 3 -6
BITMAP
FFC0
8020
8010
8010
8010
8010
8010
8010
8020
FFC0
8100
8100
8080
8080
8040
8020
8020
8010
8010
0000
0000
0400
0400
0400
ENDCHAR
STARTCHAR 0157
ENCODING 343
SWIDTH 324 0
DWIDTH 9 0
BBX 7 20 2 -6
BITMAP
5E
60
40
40
40
40
40
40
40
40
40
40
40
40
00
00
40
40
80
80
ENDCHAR
STARTCHAR 0158
ENCODING 344
SWIDTH 612 0
DWIDTH 17 0
BBX 12 25 3 1
BITMAP
2180
1200
0A00
0400
0000
0000
FFC0
8020
8010
8010
8010
8010
8010
8010
8020
FFC0
8100
8100
8080
8080
8040
8020
8020
8010
8010
ENDCHAR
STARTCHAR 0159
ENCODING 345
SWIDTH 324 0
DWIDTH 9 0
BBX 8 21 2 0
BITMAP
81
42
24
18
00
00
00
5E
60
40
40
40
40
40
40
40
40
40
40
40
40
ENDCHAR
STARTCHAR 015A
ENCODING 346
SWIDTH 540 0
DWIDTH 15 0
BBX 13 26 1 0
BITMAP
0080
0100
0100
0200
0000
0000
0F80
3060
4010
8000
8000
8000
8000
4000
2000
1800
07C0
0020
0010
0010
0008
0008
0010
8010
4020
3FC0
ENDCHAR
STARTCHAR 015B
ENCODING 347
SWIDTH 432 0
DWIDTH 12 0
BBX 10 21 1 0
BITMAP
0100
0200
0400
0400
0800
0000
0000
3F80
4040
8000
8000
4000
4000
3800
0780
0040
0040
0040
0040
4040
3F80
ENDCHAR
STARTCHAR 015C
ENCODING 348
SWIDTH 540 0
DWIDTH 15 0
BBX 13 26 1 0
BITMAP
0200
0500
0880
1040
0000
0000
0F80
3060
4010
8000
8000
8000
8000
4000
2000
1800
07C0
0020
0010
0010
0008
0008
0010
8010
4020
3FC0
ENDCHAR
STARTCHAR 015D
ENCODING 349
SWIDTH 432 0
DWIDTH 12 0
BBX 10 21 1 0
BITMAP
0400
0A00
1100
2080
0000
0000
0000
3F80
4040
8000
8000
4000
4000
3800
0780
0040
0040
0040
0040
4040
3F80
ENDCHAR
STARTCHAR 015E
ENCODING 350
SWIDTH 540 0
DWIDTH 15 0
BBX 13 26 1 -6
BITMAP
0F80
3060
4010
8000
8000
8000
8000
4000
2000
1800
07C0
0020
0010
0010
0008
0008
0010
8010
4020
3040
0F80
0200
0180
0080
0080
0700
ENDCHAR
STARTCHAR 015F
ENCODING 351
SWIDTH 432 0
DWIDTH 12 0
BBX 10 20 1 -6
BITMAP
3F80
4040
8000
8000
4000
4000
3800
0780
0040
0040
0040
0040
4040
3080
0F00
0400
0300
0100
0100
0C00
ENDCHAR
STARTCHAR 0160
ENCODING 352
SWIDTH 540 0
DWIDTH 15 0
BBX 13 25 1 1
BITMAP
10C0
0880
0500
0200
0000
0F80
3060
4010
8000
8000
8000
8000
4000
2000
1800
07C0
0020
0010
0010
0008
0008
0010
8010
4020
3FC0
ENDCHAR
STARTCHAR 0161
ENCODING 353
SWIDTH 432 0
DWIDTH 12 0
BBX 10 21 1 0
BITMAP
4080
2100
1200
0C00
0000
0000
0000
3F80
4040
8000
8000
4000
4000
3800
0780
0040
0040
0040
0040
4040
3F80
ENDCHAR
STARTCHAR 0162
ENCODING 354
SWIDTH 540 0
DWIDTH 15 0
BBX 14 24 1 -6
BITMAP
FFFC
0200
0200
0200
0200
0200
0200
0200
0200
0200
0200
0200
0200
0200
0200
0200
0200
0200
0200
0000
0000
0200
0200
0200
ENDCHAR
STARTCHAR 0163
ENCODING 355
SWIDTH 288 0
DWIDTH 8 0
BBX 6 24 1 -6
BITMAP
20
20
20
20
FC
20
20
20
20
20
20
20
20
20
20
20
20
1C
00
00
08
08
08
10
ENDCHAR
STARTCHAR 0164
ENCODING 356
SWIDTH 540 0
DWIDTH 15 0
BBX 14 26 1 0
BITMAP
1020
0840
0480
0300
0000
0000
0000
FFFC
0200
0200
0200
0200
0200
0200
0200
0200
0200
0200
0200
0200
0200
0200
0200
0200
0200
0200
ENDCHAR
STARTCHAR 0165
ENCODING 357
SWIDTH 288 0
DWIDTH 8 0
BBX 7 21 1 0
BITMAP
02
02
02
22
24
20
20
FC
20
20
20
20
20
20
20
20
20
20
20
20
1C
ENDCHAR
STARTCHAR 0166
ENCODING 358
SWIDTH 540 0
DWIDTH 15 0
BBX 14 19 1 0
BITMAP
FFFC
0200
0200
0200
0200
0200
0200
0200
7FF0
0200
0200
0200
0200
0200
0200
0200
0200
0200
0200
ENDCHAR
STARTCHAR 0167
ENCODING 359
SWIDTH 288 0
DWIDTH 8 0
BBX 6 18 1 0
BITMAP
20
20
20
20
FC
20
20
20
20
20
78
20
20
20
20
20
20
1C
ENDCHAR
STARTCHAR 0168
ENCODING 360
SWIDTH 648 0
DWIDTH 18 0
BBX 12 24 3 1
BITMAP
3C40
0280
0000
0000
0000
8010
8010
8010
8010
8010
8010
8010
8010
8010
8010
8010
8010
8010
8010
8010
8010
8010
4020
3FC0
ENDCHAR
STARTCHAR 0169
ENCODING 361
SWIDTH 540 0
DWIDTH 15 0
BBX 10 19 3 1
BITMAP
7880
0700
0000
0000
0000
8040
8040
8040
8040
8040
8040
8040
8040
8040
8040
8040
8040
80C0
7F40
ENDCHAR
STARTCHAR 016A
ENCODING 362
SWIDTH 648 0
DWIDTH 18 0
BBX 12 24 3 0
BITMAP
3FC0
0000
0000
0000
0000
8010
8010
8010
8010
8010
8010
8010
8010
8010
8010
8010
8010
8010
8010
8010
8010
8010
4020
3FC0
ENDCHAR
STARTCHAR 016B
ENCODING 363
SWIDTH 540 0
DWIDTH 15 0
BBX 10 19 3 0
BITMAP
7F00
0000
0000
0000
0000
8040
8040
8040
8040
8040
8040
8040
8040
8040
8040
8040
8040
80C0
7F40
ENDCHAR
STARTCHAR 016C
ENCODING 364
SWIDTH 648 0
DWIDTH 18 0
BBX 12 25 3 0
BITMAP
2080
1080
0900
0600
0000
0000
8010
8010
8010
8010
8010
8010
8010
8010
8010
8010
8010
8010
8010
8010
8010
8010
8010
4020
3FC0
ENDCHAR
STARTCHAR 016D
ENCODING 365
SWIDTH 540 0
DWIDTH 15 0
BBX 10 20 3 0
BITMAP
4100
4200
3600
0800
0000
0000
8040
8040
8040
8040
8040
8040
8040
8040
8040
8040
8040
8040
80C0
7F40
ENDCHAR
STARTCHAR 016E
ENCODING 366
SWIDTH 648 0
DWIDTH 18 0
BBX 12 26 3 0
BITMAP
0F00
1100
1080
0900
0600
0000
0000
8010
8010
8010
8010
8010
8010
8010
8010
8010
8010
8010
8010
8010
8010
8010
8010
8010
4020
3FC0
ENDCHAR
STARTCHAR 016F
ENCODING 367
SWIDTH 540 0
DWIDTH 15 0
BBX 10 21 3 0
BITMAP
3E00
2200
2200
2200
1C00
0000
0000
8040
8040
8040
8040
8040
8040
8040
8040
8040
8040
8040
8040
80C0
7F40
ENDCHAR
STARTCHAR 0170
ENCODING 368
SWIDTH 648 0
DWIDTH 18 0
BBX 12 26 3 0
BITMAP
0200
0420
0840
0880
0000
0000
0000
8010
8010
8010
8010
8010
8010
8010
8010
8010
8010
8010
8010
8010
8010
8010
8010
8010
4020
3FC0
ENDCHAR
STARTCHAR 0171
ENCODING 369
SWIDTH 540 0
DWIDTH 15 0
BBX 10 21 3 0
BITMAP
0440
0880
1080
2100
2000
0000
0000
8040
8040
8040
8040
8040
8040
8040
8040
8040
8040
8040
8040
80C0
7F40
ENDCHAR
STARTCHAR 0172
ENCODING 370
SWIDTH 648 0
DWIDTH 18 0
BBX 12 25 3 -6
BITMAP
8010
8010
8010
8010
8010
8010
8010
8010
8010
8010
8010
8010
8010
8010
8010
8010
8010
4020
30C0
0F00
0200
0400
0400
0400
0380
ENDCHAR
STARTCHAR 0173
ENCODING 371
SWIDTH 540 0
DWIDTH 15 0
BBX 10 20 3 -6
BITMAP
8040
8040
8040
8040
8040
8040
8040
8040
8040
8040
8040
8040
80C0
6340
1C80
0100
0200
0200
0200
01C0
ENDCHAR
STARTCHAR 0174
ENCODING 372
SWIDTH 864 0
DWIDTH 24 0
BBX 22 26 1 0
BITMAP
001000
007000
008800
010400
000000
000000
000000
803004
803004
805004
404808
404808
404808
408808
208410
208410
210410
210210
110220
110220
120220
120140
0A0140
0A0140
0C00C0
040080
ENDCHAR
STARTCHAR 0175
ENCODING 373
SWIDTH 720 0
DWIDTH 20 0
BBX 18 21 1 0
BITMAP
004000
01A000
022000
041000
000000
000000
000000
804040
80C040
80C080
414080
412080
412100
222100
221100
221100
241200
140A00
140A00
180C00
080400
ENDCHAR
STARTCHAR 0176
ENCODING 374
SWIDTH 540 0
DWIDTH 15 0
BBX 13 26 1 0
BITMAP
0200
0500
0880
1040
0000
0000
0000
8008
8010
4010
2020
2020
1040
1080
0880
0500
0500
0200
0200
0200
0200
0200
0200
0200
0200
0200
ENDCHAR
STARTCHAR 0177
ENCODING 375
SWIDTH 432 0
DWIDTH 12 0
BBX 11 27 1 -6
BITMAP
0400
0A00
1100
2080
0000
0000
0000
8020
8040
8040
4040
4080
4080
2100
2100
2100
1200
1200
0A00
0C00
0400
0800
0800
0800
1000
1000
6000
ENDCHAR
STARTCHAR 0178
ENCODING 376
SWIDTH 540 0
DWIDTH 15 0
BBX 13 24 1 0
BITMAP
18C0
0000
0000
0000
0000
8008
8010
4010
2020
2020
1040
1080
0880
0500
0500
0200
0200
0200
0200
0200
0200
0200
0200
0200
ENDCHAR
STARTCHAR 0179
ENCODING 377
SWIDTH 540 0
DWIDTH 15 0
BBX 14 26 1 0
BITMAP
0040
0080
0100
0200
0200
0000
0000
7FF8
0010
0010
0020
0040
0040
0080
0100
0200
0200
0400
0800
0800
1000
2000
2000
4000
8000
FFFC
ENDCHAR
STARTCHAR 017A
ENCODING 378
SWIDTH 396 0
DWIDTH 11 0
BBX 10 21 1 0
BITMAP
0100
0200
0400
0800
0000
0000
0000
7FC0
0080
0100
0100
0200
0400
0800
0800
1000
2000
2000
4000
8000
FFC0
ENDCHAR
STARTCHAR 017B
ENCODING 379
SWIDTH 540 0
DWIDTH 15 0
BBX 14 24 1 0
BITMAP
0300
0000
0000
0000
0000
7FF8
0010
0010
0020
0040
0040
0080
0100
0200
0200
0400
0800
0800
1000
2000
2000
4000
8000
FFFC
ENDCHAR
STARTCHAR 017C
ENCODING 380
SWIDTH 396 0
DWIDTH 11 0
BBX 10 19 1 0
BITMAP
0800
0000
0000
0000
0000
7FC0
0080
0100
0100
0200
0400
0800
0800
1000
2000
2000
4000
8000
FFC0
ENDCHAR
STARTCHAR 017D
ENCODING 381
SWIDTH 540 0
DWIDTH 15 0
BBX 14 26 1 0
BITMAP
1020
0840
0480
0300
0000
0000
0000
7FF8
0010
0010
0020
0040
0040
0080
0100
0200
0200
0400
0800
0800
1000
2000
2000
4000
8000
FFFC
ENDCHAR
STARTCHAR 017E
ENCODING 382
SWIDTH 396 0
DWIDTH 11 0
BBX 10 21 1 0
BITMAP
4080
2100
1200
0C00
0000
0000
0000
7FC0
0080
0100
0100
0200
0400
0800
0800
1000
2000
2000
4000
8000
FFC0
ENDCHAR
STARTCHAR 018F
ENCODING 399
SWIDTH 648 0
DWIDTH 18 0
BBX 15 20 2 0
BITMAP
0380
1C70
2008
4008
4004
0004
0002
0002
0002
0002
FFFE
8002
8002
8002
8002
8004
4004
4008
2010
1FE0
ENDCHAR
STARTCHAR 0192
ENCODING 402
SWIDTH 468 0
DWIDTH 13 0
BBX 12 23 0 -4
BITMAP
01F0
0100
0200
0200
0200
0200
0200
0200
0200
0200
3FF0
0200
0400
0400
0400
0400
0400
0400
0400
0400
0400
0400
F800
ENDCHAR
STARTCHAR 01A0
ENCODING 416
SWIDTH 648 0
DWIDTH 18 0
BBX 15 23 2 0
BITMAP
0002
0002
0002
07C2
183C
2008
4008
4004
8004
8002
8002
8002
8002
8002
8002
8002
8002
8002
8004
4004
4008
2010
1FE0
ENDCHAR
STARTCHAR 01A1
ENCODING 417
SWIDTH 540 0
DWIDTH 15 0
BBX 11 16 2 1
BITMAP
0020
0020
3FC0
4040
8040
8020
8020
8020
8020
8020
8020
8020
8020
8040
4040
3F80
ENDCHAR
STARTCHAR 01AF
ENCODING 431
SWIDTH 648 0
DWIDTH 18 0
BBX 15 22 3 0
BITMAP
0002
0002
0004
8018
8010
8010
8010
8010
8010
8010
8010
8010
8010
8010
8010
8010
8010
8010
8010
8010
4020
3FC0
ENDCHAR
STARTCHAR 01B0
ENCODING 432
SWIDTH 540 0
DWIDTH 15 0
BBX 12 17 3 0
BITMAP
0010
0010
0010
8060
8040
8040
8040
8040
8040
8040
8040
8040
8040
8040
8040
80C0
7F40
ENDCHAR
STARTCHAR 01FA
ENCODING 506
SWIDTH 576 0
DWIDTH 16 0
BBX 15 30 1 0
BITMAP
0080
0100
0100
0000
0780
0840
0840
0480
0300
0000
0000
0100
0300
0480
0480
0440
0840
0840
0820
1020
1020
1010
2010
3FF0
2008
4008
4004
8004
8004
8002
ENDCHAR
STARTCHAR 01FB
ENCODING 507
SWIDTH 504 0
DWIDTH 14 0
BBX 12 25 2 0
BITMAP
0200
0400
0000
0000
1E00
2200
2200
2200
1C00
0000
0000
3F00
C080
8080
0080
0040
0040
0FC0
6040
8040
8040
8040
8040
81C0
7E70
ENDCHAR
STARTCHAR 01FC
ENCODING 508
SWIDTH 828 0
DWIDTH 23 0
BBX 22 25 0 1
BITMAP
000020
000040
000080
000000
000000
000000
003FF8
005000
005000
009000
009000
011000
011000
021000
041000
041FF8
081000
081000
1FF000
101000
201000
201000
401000
401000
801FFC
ENDCHAR
STARTCHAR 01FD
ENCODING 509
SWIDTH 828 0
DWIDTH 23 0
BBX 20 21 2 0
BITMAP
000800
001000
002000
004000
004000
000000
000000
3F1FC0
C0A020
80C020
004010
004010
008010
0FFFF0
608000
808000
804000
804010
80C010
812020
7E0FC0
ENDCHAR
STARTCHAR 01FE
ENCODING 510
SWIDTH 648 0
DWIDTH 18 0
BBX 15 27 2 -1
BITMAP
0040
0080
0080
0100
0000
0000
0782
1874
2008
4008
4014
8024
8042
8042
8082
8102
8102
8202
8402
8402
8802
9004
6004
2008
6010
9C60
8380
ENDCHAR
STARTCHAR 01FF
ENCODING 511
SWIDTH 540 0
DWIDTH 15 0
BBX 13 21 1 0
BITMAP
0080
0100
0200
0000
0000
0008
1FD0
2020
4050
4050
4090
8110
8210
8410
8410
4810
5010
2010
2020
58C0
8700
ENDCHAR
STARTCHAR 0218
ENCODING 536
SWIDTH 540 0
DWIDTH 15 0
BBX 13 25 1 -6
BITMAP
0F80
3060
4010
8000
8000
8000
8000
4000
2000
1800
07C0
0020
0010
0010
0008
0008
0010
8010
4020
3040
0F80
0000
0200
0200
0200
ENDCHAR
STARTCHAR 0219
ENCODING 537
SWIDTH 432 0
DWIDTH 12 0
BBX 10 19 1 -6
BITMAP
3F80
4040
8000
8000
4000
4000
3800
0780
0040
0040
0040
0040
4040
3080
0F00
0000
0400
0400
0400
ENDCHAR
STARTCHAR 021A
ENCODING 538
SWIDTH 540 0
DWIDTH 15 0
BBX 14 24 1 -6
BITMAP
FFFC
0200
0200
0200
0200
0200
0200
0200
0200
0200
0200
0200
0200
0200
0200
0200
0200
0200
0200
0000
0000
0200
0200
0200
ENDCHAR
STARTCHAR 021B
ENCODING 539
SWIDTH 288 0
DWIDTH 8 0
BBX 6 24 1 -6
BITMAP
20
20
20
20
FC
20
20
20
20
20
20
20
20
20
20
20
20
1C
00
00
08
08
08
10
ENDCHAR
STARTCHAR 0237
ENCODING 567
SWIDTH 216 0
DWIDTH 6 0
BBX 3 20 1 -6
BITMAP
20
20
20
20
20
20
20
20
20
20
20
20
20
20
20
20
20
20
20
C0
ENDCHAR
STARTCHAR 0259
ENCODING 601
SWIDTH 504 0
DWIDTH 14 0
BBX 11 14 2 0
BITMAP
3F80
4040
8040
0020
0020
0020
0020
FFE0
8020
8020
8020
8040
4040
3F80
ENDCHAR
STARTCHAR 02BB
ENCODING 699
SWIDTH 576 0
DWIDTH 16 0
BBX 1 3 8 18
BITMAP
80
80
80
ENDCHAR
STARTCHAR 02BC
ENCODING 700
SWIDTH 576 0
DWIDTH 16 0
BBX 1 5 7 16
BITMAP
80
80
80
80
80
ENDCHAR
STARTCHAR 02C6
ENCODING 710
SWIDTH 576 0
DWIDTH 16 0
BBX 7 4 5 17
BITMAP
10
28
44
82
ENDCHAR
STARTCHAR 02C7
ENCODING 711
SWIDTH 576 0
DWIDTH 16 0
BBX 8 4 4 17
BITMAP
80
43
24
18
ENDCHAR
STARTCHAR 02D8
ENCODING 728
SWIDTH 576 0
DWIDTH 16 0
BBX 7 3 5 17
BITMAP
82
84
78
ENDCHAR
STARTCHAR 02D9
ENCODING 729
SWIDTH 576 0
DWIDTH 16 0
BBX 1 1 8 18
BITMAP
80
ENDCHAR
STARTCHAR 02DA
ENCODING 730
SWIDTH 576 0
DWIDTH 16 0
BBX 5 5 6 16
BITMAP
F0
88
88
90
60
ENDCHAR
STARTCHAR 02DB
ENCODING 731
SWIDTH 576 0
DWIDTH 16 0
BBX 4 6 4 -6
BITMAP
10
60
80
80
80
70
ENDCHAR
STARTCHAR 02DC
ENCODING 732
SWIDTH 576 0
DWIDTH 16 0
BBX 8 3 4 17
BITMAP
20
D8
07
ENDCHAR
STARTCHAR 02DD
ENCODING 733
SWIDTH 576 0
DWIDTH 16 0
BBX 8 5 6 16
BITMAP
01
22
44
88
08
ENDCHAR
STARTCHAR 0300
ENCODING 768
SWIDTH 0 0
DWIDTH 0 0
BBX 4 5 -3 16
BITMAP
80
40
20
20
10
ENDCHAR
STARTCHAR 0301
ENCODING 769
SWIDTH 0 0
DWIDTH 0 0
BBX 4 5 -1 16
BITMAP
10
20
40
80
80
ENDCHAR
STARTCHAR 0302
ENCODING 770
SWIDTH 0 0
DWIDTH 0 0
BBX 7 4 -4 17
BITMAP
08
38
44
82
ENDCHAR
STARTCHAR 0303
ENCODING 771
SWIDTH 0 0
DWIDTH 0 0
BBX 8 2 -4 18
BITMAP
F1
0A
ENDCHAR
STARTCHAR 0304
ENCODING 772
SWIDTH 0 0
DWIDTH 0 0
BBX 8 1 -4 18
BITMAP
FF
ENDCHAR
STARTCHAR 0306
ENCODING 774
SWIDTH 0 0
DWIDTH 0 0
BBX 7 3 -4 17
BITMAP
82
42
3C
ENDCHAR
STARTCHAR 0307
ENCODING 775
SWIDTH 0 0
DWIDTH 0 0
BBX 2 1 -1 18
BITMAP
C0
ENDCHAR
STARTCHAR 0308
ENCODING 776
SWIDTH 0 0
DWIDTH 0 0
BBX 6 1 -3 18
BITMAP
84
ENDCHAR
STARTCHAR 0309
ENCODING 777
SWIDTH 0 0
DWIDTH 0 0
BBX 4 3 -2 16
BITMAP
F0
10
20
ENDCHAR
STARTCHAR 030A
ENCODING 778
SWIDTH 0 0
DWIDTH 0 0
BBX 5 5 -2 16
BITMAP
F0
90
88
90
60
ENDCHAR
STARTCHAR 030B
ENCODING 779
SWIDTH 0 0
DWIDTH 0 0
BBX 8 5 -3 16
BITMAP
10
21
42
44
80
ENDCHAR
STARTCHAR 030C
ENCODING 780
SWIDTH 0 0
DWIDTH 0 0
BBX 8 4 -4 17
BITMAP
81
42
24
18
ENDCHAR
STARTCHAR 0312
ENCODING 786
SWIDTH 0 0
DWIDTH 0 0
BBX 2 4 -1 17
BITMAP
40
80
80
C0
ENDCHAR
STARTCHAR 0315
ENCODING 789
SWIDTH 0 0
DWIDTH 0 0
BBX 1 5 0 16
BITMAP
80
80
80
80
80
ENDCHAR
STARTCHAR 031B
ENCODING 795
SWIDTH 0 0
DWIDTH 0 0
BBX 3 3 -2 14
BITMAP
20
20
E0
ENDCHAR
STARTCHAR 0323
ENCODING 803
SWIDTH 0 0
DWIDTH 0 0
BBX 2 1 -1 -3
BITMAP
C0
ENDCHAR
STARTCHAR 0326
ENCODING 806
SWIDTH 0 0
DWIDTH 0 0
BBX 2 4 -1 -6
BITMAP
C0
40
80
80
ENDCHAR
STARTCHAR 0327
ENCODING 807
SWIDTH 0 0
DWIDTH 0 0
BBX 5 6 -2 -6
BITMAP
40
40
30
08
90
20
ENDCHAR
STARTCHAR 0328
ENCODING 808
SWIDTH 0 0
DWIDTH 0 0
BBX 4 6 -4 -6
BITMAP
30
40
80
80
80
30
ENDCHAR
STARTCHAR 037E
ENCODING 894
SWIDTH 252 0
DWIDTH 7 0
BBX 2 18 2 -4
BITMAP
40
40
00
00
00
00
00
00
00
00
00
00
00
40
40
40
80
80
ENDCHAR
STARTCHAR 0384
ENCODING 900
SWIDTH 576 0
DWIDTH 16 0
BBX 2 4 8 17
BITMAP
40
80
80
80
ENDCHAR
STARTCHAR 0385
ENCODING 901
SWIDTH 576 0
DWIDTH 16 0
BBX 7 5 5 16
BITMAP
08
10
96
20
20
ENDCHAR
STARTCHAR 0386
ENCODING 902
SWIDTH 576 0
DWIDTH 16 0
BBX 15 21 1 0
BITMAP
1000
2000
2100
4300
4480
0480
0440
0840
0840
0820
1020
1020
1010
2010
3FF0
2008
4008
4004
8004
8004
8002
ENDCHAR
STARTCHAR 0387
ENCODING 903
SWIDTH 252 0
DWIDTH 7 0
BBX 1 2 3 12
BITMAP
80
80
ENDCHAR
STARTCHAR 0388
ENCODING 904
SWIDTH 576 0
DWIDTH 16 0
BBX 15 21 -1 0
BITMAP
2000
4000
4FFE
8800
8800
0800
0800
0800
0800
0800
0800
0FFC
0800
0800
0800
0800
0800
0800
0800
0800
07FE
ENDCHAR
STARTCHAR 0389
ENCODING 905
SWIDTH 684 0
DWIDTH 19 0
BBX 18 21 -1 0
BITMAP
200000
400000
480040
880040
880040
080040
080040
080040
080040
080040
080040
0FFFC0
080040
080040
080040
080040
080040
080040
080040
080040
080040
ENDCHAR
STARTCHAR 038A
ENCODING 906
SWIDTH 396 0
DWIDTH 11 0
BBX 11 21 -1 0
BITMAP
2000
4000
47C0
8100
8100
0100
0100
0100
0100
0100
0100
0100
0100
0100
0100
0100
0100
0100
0100
0100
0FE0
ENDCHAR
STARTCHAR 038C
ENCODING 908
SWIDTH 648 0
DWIDTH 18 0
BBX 18 21 -1 0
BITMAP
200000
40F000
430E00
840100
880080
080080
100080
100040
100040
100040
100040
100040
100040
100040
100040
100040
100080
080080
080100
040200
03FC00
ENDCHAR
STARTCHAR 038E
ENCODING 910
SWIDTH 612 0
DWIDTH 17 0
BBX 17 21 -1 0
BITMAP
200000
400000
480080
840080
840100
020200
020200
010400
008400
008800
004800
005000
002000
002000
002000
002000
002000
002000
002000
002000
002000
ENDCHAR
STARTCHAR 038F
ENCODING 911
SWIDTH 684 0
DWIDTH 19 0
BBX 18 21 -1 0
BITMAP
200000
407800
438600
840100
880080
080080
100040
100040
100040
100040
100040
100040
100040
100040
100040
0800C0
080080
040100
020200
010400
1F87C0
ENDCHAR
STARTCHAR 0390
ENCODING 912
SWIDTH 252 0
DWIDTH 7 0
BBX 7 21 0 0
BITMAP
08
10
D2
20
20
00
00
10
10
10
10
10
10
10
10
10
10
10
10
10
1E
ENDCHAR
STARTCHAR 0391
ENCODING 913
SWIDTH 576 0
DWIDTH 16 0
BBX 15 19 1 0
BITMAP
0100
0300
0480
0480
0440
0840
0840
0820
1020
1020
1010
2010
3FF0
2008
4008
4004
8004
8004
8002
ENDCHAR
STARTCHAR 0392
ENCODING 914
SWIDTH 612 0
DWIDTH 17 0
BBX 12 19 3 0
BITMAP
FFC0
8020
8020
8020
8020
8020
8020
8040
FF80
8060
8020
8010
8010
8010
8010
8010
8010
8020
FFC0
ENDCHAR
STARTCHAR 0393
ENCODING 915
SWIDTH 504 0
DWIDTH 14 0
BBX 9 19 3 0
BITMAP
FF80
8000
8000
8000
8000
8000
8000
8000
8000
8000
8000
8000
8000
8000
8000
8000
8000
8000
8000
ENDCHAR
STARTCHAR 0394
ENCODING 916
SWIDTH 576 0
DWIDTH 16 0
BBX 15 19 1 0
BITMAP
0100
0300
0480
0480
0440
0840
0840
0820
1020
1020
1010
2010
2010
2008
4008
4004
8004
8004
FFFE
ENDCHAR
STARTCHAR 0395
ENCODING 917
SWIDTH 540 0
DWIDTH 15 0
BBX 11 19 3 0
BITMAP
FFC0
8000
8000
8000
8000
8000
8000
8000
8000
FFC0
8000
8000
8000
8000
8000
8000
8000
8000
FFE0
ENDCHAR
STARTCHAR 0396
ENCODING 918
SWIDTH 540 0
DWIDTH 15 0
BBX 14 19 1 0
BITMAP
7FF8
0010
0010
0020
0040
0040
0080
0100
0200
0200
0400
0800
0800
1000
2000
2000
4000
8000
FFFC
ENDCHAR
STARTCHAR 0397
ENCODING 919
SWIDTH 684 0
DWIDTH 19 0
BBX 13 19 3 0
BITMAP
8008
8008
8008
8008
8008
8008
8008
8008
8008
FFF8
8008
8008
8008
8008
8008
8008
8008
8008
8008
ENDCHAR
STARTCHAR 0398
ENCODING 920
SWIDTH 648 0
DWIDTH 18 0
BBX 15 20 2 0
BITMAP
0780
1870
2008
4004
4004
8004
8002
8002
8002
8002
9FE2
8002
8002
8002
8002
8004
4004
4008
2010
1FE0
ENDCHAR
STARTCHAR 0399
ENCODING 921
SWIDTH 360 0
DWIDTH 10 0
BBX 6 19 2 0
BITMAP
FC
20
20
20
20
20
20
20
20
20
20
20
20
20
20
20
20
20
FC
ENDCHAR
STARTCHAR 039A
ENCODING 922
SWIDTH 540 0
DWIDTH 15 0
BBX 12 19 3 0
BITMAP
8030
8020
8040
8080
8100
8200
8400
8800
9800
A400
C200
8200
8100
8080
8080
8040
8020
8020
8010
ENDCHAR
STARTCHAR 039B
ENCODING 923
SWIDTH 576 0
DWIDTH 16 0
BBX 14 19 1 0
BITMAP
0300
0300
0480
0480
0480
0840
0840
0840
1020
1020
1020
2010
2010
4008
4008
4008
8004
8004
8004
ENDCHAR
STARTCHAR 039C
ENCODING 924
SWIDTH 792 0
DWIDTH 22 0
BBX 16 19 3 0
BITMAP
8003
C003
A005
A005
9009
8811
8811
8421
8441
8241
8181
8181
8001
8001
8001
8001
8001
8001
8001
ENDCHAR
STARTCHAR 039D
ENCODING 925
SWIDTH 684 0
DWIDTH 19 0
BBX 13 19 3 0
BITMAP
8008
C008
A008
A008
9008
8808
8808
8408
8408
8208
8108
8108
8088
8048
8048
8028
8028
8018
8008
ENDCHAR
STARTCHAR 039E
ENCODING 926
SWIDTH 540 0
DWIDTH 15 0
BBX 11 19 2 0
BITMAP
FFE0
0000
0000
0000
0000
0000
0000
0000
0000
7FC0
0000
0000
0000
0000
0000
0000
0000
0000
FFE0
ENDCHAR
STARTCHAR 039F
ENCODING 927
SWIDTH 648 0
DWIDTH 18 0
BBX 15 20 2 0
BITMAP
0780
1870
2008
4004
4004
8004
8002
8002
8002
8002
8002
8002
8002
8002
8002
8004
4004
4008
2010
1FE0
ENDCHAR
STARTCHAR 03A0
ENCODING 928
SWIDTH 648 0
DWIDTH 18 0
BBX 13 19 3 0
BITMAP
FFF8
8008
8008
8008
8008
8008
8008
8008
8008
8008
8008
8008
8008
8008
8008
8008
8008
8008
8008
ENDCHAR
STARTCHAR 03A1
ENCODING 929
SWIDTH 576 0
DWIDTH 16 0
BBX 12 19 3 0
BITMAP
FFC0
8020
8010
8010
8010
8010
8010
8010
8020
FFC0
8000
8000
8000
8000
8000
8000
8000
8000
8000
ENDCHAR
STARTCHAR 03A3
ENCODING 931
SWIDTH 540 0
DWIDTH 15 0
BBX 13 19 1 0
BITMAP
7FF8
4000
2000
1000
0800
0400
0200
0200
0100
0080
0100
0200
0400
0800
1000
1000
2000
4000
FFF8
ENDCHAR
STARTCHAR 03A4
ENCODING 932
SWIDTH 540 0
DWIDTH 15 0
BBX 14 19 1 0
BITMAP
FFFC
0200
0200
0200
0200
0200
0200
0200
0200
0200
0200
0200
0200
0200
0200
0200
0200
0200
0200
ENDCHAR
STARTCHAR 03A5
ENCODING 933
SWIDTH 540 0
DWIDTH 15 0
BBX 13 19 1 0
BITMAP
8008
8010
4010
2020
2020
1040
1080
0880
0500
0500
0200
0200
0200
0200
0200
0200
0200
0200
0200
ENDCHAR
STARTCHAR 03A6
ENCODING 934
SWIDTH 792 0
DWIDTH 22 0
BBX 19 21 2 -1
BITMAP
004000
03F000
0C4600
304180
404040
804040
804020
804020
804020
804020
804020
804020
804020
804020
804040
404040
204080
104100
0FFE00
004000
004000
ENDCHAR
STARTCHAR 03A7
ENCODING 935
SWIDTH 540 0
DWIDTH 15 0
BBX 13 19 1 0
BITMAP
8008
4010
2010
2020
1040
0840
0880
0500
0300
0200
0500
0480
0880
1040
1020
2020
4010
4008
8008
ENDCHAR
STARTCHAR 03A8
ENCODING 936
SWIDTH 720 0
DWIDTH 20 0
BBX 17 19 2 0
BITMAP
808080
808080
808080
808080
808080
808080
808080
808100
808100
408100
408200
208200
1EBC00
01C000
008000
008000
008000
008000
008000
ENDCHAR
STARTCHAR 03A9
ENCODING 937
SWIDTH 684 0
DWIDTH 19 0
BBX 15 20 2 0
BITMAP
03C0
1C30
2008
4004
4004
8002
8002
8002
8002
8002
8002
8002
8002
8002
4006
4004
2008
1010
0820
FC3E
ENDCHAR
STARTCHAR 03AA
ENCODING 938
SWIDTH 360 0
DWIDTH 10 0
BBX 6 24 2 0
BITMAP
84
00
00
00
00
FC
20
20
20
20
20
20
20
20
20
20
20
20
20
20
20
20
20
FC
ENDCHAR
STARTCHAR 03AB
ENCODING 939
SWIDTH 540 0
DWIDTH 15 0
BBX 13 24 1 0
BITMAP
18C0
0000
0000
0000
0000
8008
8010
4010
2020
2020
1040
1080
0880
0500
0500
0200
0200
0200
0200
0200
0200
0200
0200
0200
ENDCHAR
STARTCHAR 03AC
ENCODING 940
SWIDTH 612 0
DWIDTH 17 0
BBX 14 20 2 1
BITMAP
0200
0200
0400
0400
0000
0000
3F08
4088
8048
8050
8050
8030
8020
8020
8060
8050
8050
8090
4090
3F0C
ENDCHAR
STARTCHAR 03AD
ENCODING 941
SWIDTH 504 0
DWIDTH 14 0
BBX 11 21 2 0
BITMAP
0100
0200
0200
0400
0400
0000
0000
3F80
4060
4000
8000
4000
4000
3F00
2000
C000
8000
8000
8000
4020
3FC0
ENDCHAR
STARTCHAR 03AE
ENCODING 942
SWIDTH 540 0
DWIDTH 15 0
BBX 12 27 1 -6
BITMAP
0080
0080
0100
0100
0000
0000
0000
EFC0
3020
2010
2010
2010
2010
2010
2010
2010
2010
2010
2010
2010
2010
0010
0010
0010
0010
0010
0010
ENDCHAR
STARTCHAR 03AF
ENCODING 943
SWIDTH 252 0
DWIDTH 7 0
BBX 4 20 3 1
BITMAP
40
40
80
80
00
00
80
80
80
80
80
80
80
80
80
80
80
80
80
F0
ENDCHAR
STARTCHAR 03B0
ENCODING 944
SWIDTH 540 0
DWIDTH 15 0
BBX 10 21 3 0
BITMAP
0400
0400
2900
0800
0000
0000
0000
8040
8040
8040
8040
8040
8040
8040
8040
8040
8080
8080
8080
8080
7F00
ENDCHAR
STARTCHAR 03B1
ENCODING 945
SWIDTH 612 0
DWIDTH 17 0
BBX 14 14 2 0
BITMAP
3F08
4088
8048
8050
8050
8030
8020
8020
8060
8050
8050
8090
4090
3F0C
ENDCHAR
STARTCHAR 03B2
ENCODING 946
SWIDTH 540 0
DWIDTH 15 0
BBX 11 27 3 -6
BITMAP
1E00
6180
8080
8040
8040
8040
8040
8080
8080
9F00
8180
8040
8040
8020
8020
8020
8020
8020
8040
C040
A180
9E00
8000
8000
8000
8000
8000
ENDCHAR
STARTCHAR 03B3
ENCODING 947
SWIDTH 468 0
DWIDTH 13 0
BBX 11 20 1 -6
BITMAP
8020
4020
4040
4040
2040
2080
2080
1100
1100
1100
0A00
0A00
0A00
0400
0400
0400
0400
0400
0400
0400
ENDCHAR
STARTCHAR 03B4
ENCODING 948
SWIDTH 540 0
DWIDTH 15 0
BBX 11 21 2 0
BITMAP
7FC0
4000
2000
1000
0800
0600
0100
0F00
3080
4040
8040
8020
8020
8020
8020
8020
8020
8020
8020
4040
3F80
ENDCHAR
STARTCHAR 03B5
ENCODING 949
SWIDTH 504 0
DWIDTH 14 0
BBX 11 14 2 0
BITMAP
3F80
4060
4000
8000
4000
4000
3F00
2000
C000
8000
8000
8000
4020
3FC0
ENDCHAR
STARTCHAR 03B6
ENCODING 950
SWIDTH 396 0
DWIDTH 11 0
BBX 9 25 2 -4
BITMAP
FF80
0080
0100
0200
0400
0400
0800
1000
2000
4000
4000
8000
8000
8000
8000
8000
8000
8000
4000
3000
0E00
0180
0100
0100
0100
ENDCHAR
STARTCHAR 03B7
ENCODING 951
SWIDTH 540 0
DWIDTH 15 0
BBX 12 20 1 -6
BITMAP
EFC0
3020
2010
2010
2010
2010
2010
2010
2010
2010
2010
2010
2010
2010
0010
0010
0010
0010
0010
0010
ENDCHAR
STARTCHAR 03B8
ENCODING 952
SWIDTH 540 0
DWIDTH 15 0
BBX 11 21 2 0
BITMAP
0F00
3080
4040
4040
8020
8020
8020
8020
8020
8020
FFE0
8020
8020
8020
8020
8020
8020
8040
4040
4080
3F80
ENDCHAR
STARTCHAR 03B9
ENCODING 953
SWIDTH 252 0
DWIDTH 7 0
BBX 4 14 3 0
BITMAP
80
80
80
80
80
80
80
80
80
80
80
80
80
F0
ENDCHAR
STARTCHAR 03BA
ENCODING 954
SWIDTH 468 0
DWIDTH 13 0
BBX 10 14 3 0
BITMAP
80C0
8100
8200
8400
8800
9000
B000
C800
8800
8400
8200
8100
8080
8040
ENDCHAR
STARTCHAR 03BB
ENCODING 955
SWIDTH 468 0
DWIDTH 13 0
BBX 13 21 0 0
BITMAP
3000
0800
0800
0800
0400
0400
0400
0200
0600
0A00
0900
0900
1100
1080
1080
2080
2040
4040
4040
4020
8038
ENDCHAR
STARTCHAR 03BC
ENCODING 956
SWIDTH 576 0
DWIDTH 16 0
BBX 12 20 3 -6
BITMAP
8040
8040
8040
8040
8040
8040
8040
8040
8040
8040
8040
8040
C0C0
A170
9E00
8000
8000
8000
8000
8000
ENDCHAR
STARTCHAR 03BD
ENCODING 957
SWIDTH 468 0
DWIDTH 13 0
BBX 11 14 1 0
BITMAP
8020
4020
4040
4040
2040
2080
2080
1080
1100
1100
0A00
0A00
0A00
0400
ENDCHAR
STARTCHAR 03BE
ENCODING 958
SWIDTH 432 0
DWIDTH 12 0
BBX 9 25 2 -4
BITMAP
FF80
1000
6000
4000
4000
8000
4000
4000
2000
1F00
2000
4000
8000
8000
8000
8000
8000
8000
4000
3000
0E00
0180
0080
0080
0100
ENDCHAR
STARTCHAR 03BF
ENCODING 959
SWIDTH 540 0
DWIDTH 15 0
BBX 11 14 2 0
BITMAP
3F80
4040
8040
8020
8020
8020
8020
8020
8020
8020
8020
8040
4040
3F80
ENDCHAR
STARTCHAR 03C0
ENCODING 960
SWIDTH 576 0
DWIDTH 16 0
BBX 14 14 1 0
BITMAP
FFFC
2020
2020
2020
2020
2020
2020
2020
2020
2020
2020
2020
2020
2018
ENDCHAR
STARTCHAR 03C1
ENCODING 961
SWIDTH 504 0
DWIDTH 14 0
BBX 11 20 2 -6
BITMAP
1F80
6040
4040
8020
8020
8020
8020
8020
8020
8020
8020
8040
C040
A180
9E00
8000
8000
8000
8000
8000
ENDCHAR
STARTCHAR 03C2
ENCODING 962
SWIDTH 468 0
DWIDTH 13 0
BBX 10 18 2 -4
BITMAP
3F00
40C0
8040
8000
8000
8000
8000
8000
8000
8000
8000
6000
1000
0B00
0080
0080
0080
0100
ENDCHAR
STARTCHAR 03C3
ENCODING 963
SWIDTH 540 0
DWIDTH 15 0
BBX 12 14 2 0
BITMAP
1FF0
6080
8040
8020
8020
8020
8020
8020
8020
8020
8020
8040
4040
3F80
ENDCHAR
STARTCHAR 03C4
ENCODING 964
SWIDTH 468 0
DWIDTH 13 0
BBX 11 14 1 0
BITMAP
FFE0
0400
0400
0400
0400
0400
0400
0400
0400
0400
0400
0400
0400
0780
ENDCHAR
STARTCHAR 03C5
ENCODING 965
SWIDTH 540 0
DWIDTH 15 0
BBX 10 14 3 0
BITMAP
8040
8040
8040
8040
8040
8040
8040
8040
8040
8080
8080
8080
8080
7F00
ENDCHAR
STARTCHAR 03C6
ENCODING 966
SWIDTH 648 0
DWIDTH 18 0
BBX 15 19 2 -6
BITMAP
20F8
4104
8104
8102
8202
8202
8202
8202
8202
8202
8204
8204
4208
3A20
07C0
0200
0200
0200
0200
ENDCHAR
STARTCHAR 03C7
ENCODING 967
SWIDTH 432 0
DWIDTH 12 0
BBX 11 20 1 -6
BITMAP
8020
4040
4080
2080
2100
1100
1200
0A00
0C00
0400
0C00
1200
1200
2200
2100
4100
4080
8080
8040
0020
ENDCHAR
STARTCHAR 03C8
ENCODING 968
SWIDTH 684 0
DWIDTH 19 0
BBX 14 26 3 -6
BITMAP
0200
0200
0200
0200
0200
0200
8204
8204
8204
8204
8204
8204
8204
8204
8204
8208
8208
8208
4210
3220
0FC0
0200
0200
0200
0200
0200
ENDCHAR
STARTCHAR 03C9
ENCODING 969
SWIDTH 684 0
DWIDTH 19 0
BBX 16 14 2 0
BITMAP
2008
4004
8002
8002
8102
8102
8101
8101
8101
8102
8102
8302
8282
7C7C
ENDCHAR
STARTCHAR 03CA
ENCODING 970
SWIDTH 252 0
DWIDTH 7 0
BBX 7 19 0 0
BITMAP
C6
00
00
00
00
10
10
10
10
10
10
10
10
10
10
10
10
10
1E
ENDCHAR
STARTCHAR 03CB
ENCODING 971
SWIDTH 540 0
DWIDTH 15 0
BBX 10 19 3 0
BITMAP
6300
0000
0000
0000
0000
8040
8040
8040
8040
8040
8040
8040
8040
8040
8080
8080
8080
8080
7F00
ENDCHAR
STARTCHAR 03CC
ENCODING 972
SWIDTH 540 0
DWIDTH 15 0
BBX 11 20 2 1
BITMAP
0200
0200
0400
0400
0000
0000
3F80
4040
8040
8020
8020
8020
8020
8020
8020
8020
8020
8040
4040
3F80
ENDCHAR
STARTCHAR 03CD
ENCODING 973
SWIDTH 540 0
DWIDTH 15 0
BBX 10 21 3 0
BITMAP
0200
0400
0400
0800
0800
0000
0000
8040
8040
8040
8040
8040
8040
8040
8040
8040
8080
8080
8080
8080
7F00
ENDCHAR
STARTCHAR 03CE
ENCODING 974
SWIDTH 684 0
DWIDTH 19 0
BBX 16 21 2 0
BITMAP
0040
0080
0080
0100
0100
0000
0000
2008
4004
8002
8002
8102
8102
8101
8101
8101
8102
8102
8302
8282
7C7C
ENDCHAR
STARTCHAR 0400
ENCODING 1024
SWIDTH 540 0
DWIDTH 15 0
BBX 11 25 3 1
BITMAP
1000
0800
0400
0000
0000
0000
FFC0
8000
8000
8000
8000
8000
8000
8000
8000
FFC0
8000
8000
8000
8000
8000
8000
8000
8000
FFE0
ENDCHAR
STARTCHAR 0401
ENCODING 1025
SWIDTH 540 0
DWIDTH 15 0
BBX 11 24 3 0
BITMAP
2180
0000
0000
0000
0000
FFC0
8000
8000
8000
8000
8000
8000
8000
8000
FFC0
8000
8000
8000
8000
8000
8000
8000
8000
FFE0
ENDCHAR
STARTCHAR 0402
ENCODING 1026
SWIDTH 756 0
DWIDTH 21 0
BBX 19 24 1 -5
BITMAP
FFFC00
020000
020000
020000
020000
020000
020000
023C00
03C380
020040
020040
020040
020040
020020
020020
020020
020020
020020
020020
000040
000040
000040
000080
000600
ENDCHAR
STARTCHAR 0403
ENCODING 1027
SWIDTH 504 0
DWIDTH 14 0
BBX 9 26 3 0
BITMAP
0100
0200
0400
0800
0800
0000
0000
FF80
8000
8000
8000
8000
8000
8000
8000
8000
8000
8000
8000
8000
8000
8000
8000
8000
8000
8000
ENDCHAR
STARTCHAR 0404
ENCODING 1028
SWIDTH 576 0
DWIDTH 16 0
BBX 13 20 2 0
BITMAP
0780
1860
2010
4008
C000
8000
8000
8000
8000
8000
FFC0
8000
8000
8000
8000
8000
4008
4008
2010
1FE0
ENDCHAR
STARTCHAR 0405
ENCODING 1029
SWIDTH 540 0
DWIDTH 15 0
BBX 13 20 1 0
BITMAP
0F80
3060
4010
8000
8000
8000
8000
4000
2000
1800
07C0
0020
0010
0010
0008
0008
0010
8010
4020
3FC0
ENDCHAR
STARTCHAR 0406
ENCODING 1030
SWIDTH 360 0
DWIDTH 10 0
BBX 6 19 2 0
BITMAP
FC
20
20
20
20
20
20
20
20
20
20
20
20
20
20
20
20
20
FC
ENDCHAR
STARTCHAR 0407
ENCODING 1031
SWIDTH 360 0
DWIDTH 10 0
BBX 6 24 2 0
BITMAP
84
00
00
00
00
FC
20
20
20
20
20
20
20
20
20
20
20
20
20
20
20
20
20
FC
ENDCHAR
STARTCHAR 0408
ENCODING 1032
SWIDTH 432 0
DWIDTH 12 0
BBX 9 19 1 0
BITMAP
3F80
0080
0080
0080
0080
0080
0080
0080
0080
0080
0080
0080
0080
0080
0080
0080
8080
8100
7E00
ENDCHAR
STARTCHAR 0409
ENCODING 1033
SWIDTH 972 0
DWIDTH 27 0
BBX 25 19 0 0
BITMAP
07FC0000
04040000
04040000
04040000
04040000
04040000
04040000
04040000
0407FE00
08040100
08040080
08040080
08040080
08040080
08040080
10040080
10040080
20040100
E007FE00
ENDCHAR
STARTCHAR 040A
ENCODING 1034
SWIDTH 1008 0
DWIDTH 28 0
BBX 24 19 3 0
BITMAP
800800
800800
800800
800800
800800
800800
800800
800800
FFFFE0
80081C
800802
800801
800801
800801
800801
800801
800801
800802
800FFC
ENDCHAR
STARTCHAR 040B
ENCODING 1035
SWIDTH 756 0
DWIDTH 21 0
BBX 19 19 1 0
BITMAP
FFFC00
020000
020000
020000
020000
020000
020000
023C00
03C380
020040
020040
020020
020020
020020
020020
020020
020020
020020
020020
ENDCHAR
STARTCHAR 040C
ENCODING 1036
SWIDTH 612 0
DWIDTH 17 0
BBX 13 26 3 0
BITMAP
0100
0200
0200
0400
0000
0000
0000
8030
8040
8040
8080
8100
8100
8200
8200
8400
FC00
8400
8200
8100
8100
8080
8080
8040
8020
8018
ENDCHAR
STARTCHAR 040D
ENCODING 1037
SWIDTH 684 0
DWIDTH 19 0
BBX 13 26 3 0
BITMAP
0800
0800
0400
0200
0000
0000
0000
8008
8018
8028
8028
8048
8088
8088
8108
8208
8208
8408
8408
8808
9008
9008
A008
C008
C008
8008
ENDCHAR
STARTCHAR 040E
ENCODING 1038
SWIDTH 540 0
DWIDTH 15 0
BBX 14 25 1 0
BITMAP
0820
0840
0680
0100
0000
0000
8004
8008
4008
4008
2010
2010
1020
1020
0820
0840
0440
0480
0280
0280
0100
0100
0200
0200
1E00
ENDCHAR
STARTCHAR 040F
ENCODING 1039
SWIDTH 648 0
DWIDTH 18 0
BBX 13 23 3 -4
BITMAP
8008
8008
8008
8008
8008
8008
8008
8008
8008
8008
8008
8008
8008
8008
8008
8008
8008
8008
FFF8
0200
0200
0200
0200
ENDCHAR
STARTCHAR 0410
ENCODING 1040
SWIDTH 576 0
DWIDTH 16 0
BBX 15 19 1 0
BITMAP
0100
0300
0480
0480
0440
0840
0840
0820
1020
1020
1010
2010
3FF0
2008
4008
4004
8004
8004
8002
ENDCHAR
STARTCHAR 0411
ENCODING 1041
SWIDTH 576 0
DWIDTH 16 0
BBX 12 19 3 0
BITMAP
FFC0
8000
8000
8000
8000
8000
8000
8000
FFC0
8020
8020
8010
8010
8010
8010
8010
8020
8020
FFC0
ENDCHAR
STARTCHAR 0412
ENCODING 1042
SWIDTH 612 0
DWIDTH 17 0
BBX 12 19 3 0
BITMAP
FFC0
8020
8020
8020
8020
8020
8020
8040
FF80
8060
8020
8010
8010
8010
8010
8010
8010
8020
FFC0
ENDCHAR
STARTCHAR 0413
ENCODING 1043
SWIDTH 504 0
DWIDTH 14 0
BBX 9 19 3 0
BITMAP
FF80
8000
8000
8000
8000
8000
8000
8000
8000
8000
8000
8000
8000
8000
8000
8000
8000
8000
8000
ENDCHAR
STARTCHAR 0414
ENCODING 1044
SWIDTH 648 0
DWIDTH 18 0
BBX 17 23 0 -4
BITMAP
07FE00
040200
040200
040200
040200
040200
040200
040200
080200
080200
080200
080200
080200
080200
080200
100200
100200
300200
FFFF80
800080
800080
800080
800080
ENDCHAR
STARTCHAR 0415
ENCODING 1045
SWIDTH 540 0
DWIDTH 15 0
BBX 11 19 3 0
BITMAP
FFC0
8000
8000
8000
8000
8000
8000
8000
8000
FFC0
8000
8000
8000
8000
8000
8000
8000
8000
FFE0
ENDCHAR
STARTCHAR 0416
ENCODING 1046
SWIDTH 900 0
DWIDTH 25 0
BBX 23 19 1 0
BITMAP
60100C
101010
101010
081020
081020
041040
041040
021080
021080
03FF00
021080
041080
041040
081020
081020
101010
101010
201008
E01006
ENDCHAR
STARTCHAR 0417
ENCODING 1047
SWIDTH 540 0
DWIDTH 15 0
BBX 12 20 2 0
BITMAP
0E00
30C0
4020
0020
0010
0010
0010
0020
0020
0080
1F80
0060
0010
0010
0010
0010
0010
0010
8020
7FC0
ENDCHAR
STARTCHAR 0418
ENCODING 1048
SWIDTH 684 0
DWIDTH 19 0
BBX 13 19 3 0
BITMAP
8008
8018
8028
8028
8048
8088
8088
8108
8208
8208
8408
8408
8808
9008
9008
A008
C008
C008
8008
ENDCHAR
STARTCHAR 0419
ENCODING 1049
SWIDTH 684 0
DWIDTH 19 0
BBX 13 25 3 0
BITMAP
1040
1080
0D80
0200
0000
0000
8008
8018
8028
8028
8048
8088
8088
8108
8208
8208
8408
8408
8808
9008
9008
A008
C008
C008
8008
ENDCHAR
STARTCHAR 041A
ENCODING 1050
SWIDTH 612 0
DWIDTH 17 0
BBX 13 19 3 0
BITMAP
8030
8040
8040
8080
8100
8100
8200
8200
8400
FC00
8400
8200
8100
8100
8080
8080
8040
8020
8018
ENDCHAR
STARTCHAR 041B
ENCODING 1051
SWIDTH 612 0
DWIDTH 17 0
BBX 15 19 0 0
BITMAP
07FE
0402
0402
0402
0402
0402
0402
0402
0402
0802
0802
0802
0802
0802
0802
1002
1002
2002
E002
ENDCHAR
STARTCHAR 041C
ENCODING 1052
SWIDTH 792 0
DWIDTH 22 0
BBX 16 19 3 0
BITMAP
8003
C003
A005
A005
9009
8811
8811
8421
8441
8241
8181
8181
8001
8001
8001
8001
8001
8001
8001
ENDCHAR
STARTCHAR 041D
ENCODING 1053
SWIDTH 684 0
DWIDTH 19 0
BBX 13 19 3 0
BITMAP
8008
8008
8008
8008
8008
8008
8008
8008
8008
FFF8
8008
8008
8008
8008
8008
8008
8008
8008
8008
ENDCHAR
STARTCHAR 041E
ENCODING 1054
SWIDTH 648 0
DWIDTH 18 0
BBX 15 20 2 0
BITMAP
0780
1870
2008
4004
4004
8004
8002
8002
8002
8002
8002
8002
8002
8002
8002
8004
4004
4008
2010
1FE0
ENDCHAR
STARTCHAR 041F
ENCODING 1055
SWIDTH 648 0
DWIDTH 18 0
BBX 13 19 3 0
BITMAP
FFF8
8008
8008
8008
8008
8008
8008
8008
8008
8008
8008
8008
8008
8008
8008
8008
8008
8008
8008
ENDCHAR
STARTCHAR 0420
ENCODING 1056
SWIDTH 576 0
DWIDTH 16 0
BBX 12 19 3 0
BITMAP
FFC0
8020
8010
8010
8010
8010
8010
8010
8020
FFC0
8000
8000
8000
8000
8000
8000
8000
8000
8000
ENDCHAR
STARTCHAR 0421
ENCODING 1057
SWIDTH 576 0
DWIDTH 16 0
BBX 13 20 2 0
BITMAP
0780
1860
2010
4008
C000
8000
8000
8000
8000
8000
8000
8000
8000
8000
8000
8000
4008
4008
2010
1FE0
ENDCHAR
STARTCHAR 0422
ENCODING 1058
SWIDTH 540 0
DWIDTH 15 0
BBX 14 19 1 0
BITMAP
FFFC
0200
0200
0200
0200
0200
0200
0200
0200
0200
0200
0200
0200
0200
0200
0200
0200
0200
0200
ENDCHAR
STARTCHAR 0423
ENCODING 1059
SWIDTH 540 0
DWIDTH 15 0
BBX 14 19 1 0
BITMAP
8004
8008
4008
4008
2010
2010
1020
1020
0820
0840
0440
0480
0280
0280
0100
0100
0200
0200
1E00
ENDCHAR
STARTCHAR 0424
ENCODING 1060
SWIDTH 792 0
DWIDTH 22 0
BBX 19 21 2 -1
BITMAP
004000
004000
03F800
1C4600
204180
404040
804040
804020
804020
804020
804020
804020
804020
804040
804040
404080
204100
1C4600
03F800
004000
004000
ENDCHAR
STARTCHAR 0425
ENCODING 1061
SWIDTH 540 0
DWIDTH 15 0
BBX 13 19 1 0
BITMAP
8008
4010
2010
2020
1040
0840
0880
0500
0300
0200
0500
0480
0880
1040
1020
2020
4010
4008
8008
ENDCHAR
STARTCHAR 0426
ENCODING 1062
SWIDTH 684 0
DWIDTH 19 0
BBX 15 23 3 -4
BITMAP
8008
8008
8008
8008
8008
8008
8008
8008
8008
8008
8008
8008
8008
8008
8008
8008
8008
8008
FFFE
0002
0002
0002
0002
ENDCHAR
STARTCHAR 0427
ENCODING 1063
SWIDTH 612 0
DWIDTH 17 0
BBX 12 19 2 0
BITMAP
8010
8010
8010
8010
8010
8010
8010
8010
8010
4010
1830
07D0
0010
0010
0010
0010
0010
0010
0010
ENDCHAR
STARTCHAR 0428
ENCODING 1064
SWIDTH 900 0
DWIDTH 25 0
BBX 19 19 3 0
BITMAP
804020
804020
804020
804020
804020
804020
804020
804020
804020
804020
804020
804020
804020
804020
804020
804020
804020
804020
FFFFE0
ENDCHAR
STARTCHAR 0429
ENCODING 1065
SWIDTH 900 0
DWIDTH 25 0
BBX 22 23 3 -4
BITMAP
804020
804020
804020
804020
804020
804020
804020
804020
804020
804020
804020
804020
804020
804020
804020
804020
804020
804020
FFFFFC
000004
000004
000004
000004
ENDCHAR
STARTCHAR 042A
ENCODING 1066
SWIDTH 720 0
DWIDTH 20 0
BBX 18 19 1 0
BITMAP
FC0000
040000
040000
040000
040000
040000
040000
040000
07FE00
040100
040080
040080
040080
040040
040080
040080
040080
040100
07FE00
ENDCHAR
STARTCHAR 042B
ENCODING 1067
SWIDTH 792 0
DWIDTH 22 0
BBX 17 19 3 0
BITMAP
800080
800080
800080
800080
800080
800080
800080
800080
FFC080
802080
802080
801080
801080
801080
801080
801080
802080
802080
FFC080
ENDCHAR
STARTCHAR 042C
ENCODING 1068
SWIDTH 576 0
DWIDTH 16 0
BBX 12 19 3 0
BITMAP
8000
8000
8000
8000
8000
8000
8000
8000
FFC0
8020
8010
8010
8010
8010
8010
8010
8010
8020
FFC0
ENDCHAR
STARTCHAR 042D
ENCODING 1069
SWIDTH 576 0
DWIDTH 16 0
BBX 13 20 2 0
BITMAP
0F00
30C0
4020
8010
0010
0010
0008
0008
0008
0008
1FF8
0008
0008
0008
0008
0010
8010
8020
4020
3FC0
ENDCHAR
STARTCHAR 042E
ENCODING 1070
SWIDTH 900 0
DWIDTH 25 0
BBX 20 20 3 0
BITMAP
001E00
806180
818040
810020
820020
820010
840010
840010
840010
840010
FC0010
840010
840010
840010
840010
820030
820020
810020
808040
807F80
ENDCHAR
STARTCHAR 042F
ENCODING 1071
SWIDTH 612 0
DWIDTH 17 0
BBX 14 19 1 0
BITMAP
1FFC
2004
4004
4004
4004
4004
4004
4004
2004
1FFC
0404
0404
0804
0804
1004
1004
2004
2004
C004
ENDCHAR
STARTCHAR 0430
ENCODING 1072
SWIDTH 504 0
DWIDTH 14 0
BBX 12 14 2 0
BITMAP
3F00
C080
8080
0080
0040
0040
0FC0
6040
8040
8040
8040
8040
81C0
7E70
ENDCHAR
STARTCHAR 0431
ENCODING 1073
SWIDTH 540 0
DWIDTH 15 0
BBX 11 21 2 0
BITMAP
00C0
1F00
2000
4000
8000
8000
8000
9F00
E0C0
8040
8020
8020
8020
8020
8020
8020
8020
8020
8020
4040
3F80
ENDCHAR
STARTCHAR 0432
ENCODING 1074
SWIDTH 540 0
DWIDTH 15 0
BBX 10 14 3 0
BITMAP
FF00
8080
8080
8080
8080
8080
8300
FC80
8040
8040
8040
8040
8080
FF00
ENDCHAR
STARTCHAR 0433
ENCODING 1075
SWIDTH 432 0
DWIDTH 12 0
BBX 8 14 3 0
BITMAP
FF
80
80
80
80
80
80
80
80
80
80
80
80
80
ENDCHAR
STARTCHAR 0434
ENCODING 1076
SWIDTH 540 0
DWIDTH 15 0
BBX 14 18 0 -4
BITMAP
0FF0
0810
0810
0810
1010
1010
1010
1010
1010
1010
1010
2010
2010
FFFC
8004
8004
8004
8004
ENDCHAR
STARTCHAR 0435
ENCODING 1077
SWIDTH 504 0
DWIDTH 14 0
BBX 11 14 2 0
BITMAP
3F00
40C0
8040
8020
8020
8020
FFE0
8000
8000
8000
8020
8060
4040
3F80
ENDCHAR
STARTCHAR 0436
ENCODING 1078
SWIDTH 720 0
DWIDTH 20 0
BBX 18 14 1 0
BITMAP
6040C0
204100
104200
104200
084400
084400
07F800
044400
084400
104200
104200
204100
204100
C040C0
ENDCHAR
STARTCHAR 0437
ENCODING 1079
SWIDTH 468 0
DWIDTH 13 0
BBX 9 14 2 0
BITMAP
7F00
8080
0080
0080
0080
0100
3E00
0100
0080
0080
0080
0080
8080
7F00
ENDCHAR
STARTCHAR 0438
ENCODING 1080
SWIDTH 576 0
DWIDTH 16 0
BBX 10 14 3 0
BITMAP
8040
80C0
8140
8140
8240
8440
8440
8840
9040
9040
A040
C040
8040
8040
ENDCHAR
STARTCHAR 0439
ENCODING 1081
SWIDTH 576 0
DWIDTH 16 0
BBX 10 20 3 0
BITMAP
4100
2100
1200
0C00
0000
0000
8040
80C0
8140
8140
8240
8440
8440
8840
9040
9040
A040
C040
8040
8040
ENDCHAR
STARTCHAR 043A
ENCODING 1082
SWIDTH 504 0
DWIDTH 14 0
BBX 10 14 3 0
BITMAP
81C0
8100
8200
8400
8400
8800
F000
8800
8400
8400
8200
8200
8100
80C0
ENDCHAR
STARTCHAR 043B
ENCODING 1083
SWIDTH 504 0
DWIDTH 14 0
BBX 12 14 0 0
BITMAP
0FF0
0810
0810
0810
0810
0810
0810
1010
1010
1010
1010
1010
2010
C010
ENDCHAR
STARTCHAR 043C
ENCODING 1084
SWIDTH 648 0
DWIDTH 18 0
BBX 13 14 3 0
BITMAP
8008
C018
C028
A028
9048
9088
8888
8908
8508
8208
8008
8008
8008
8008
ENDCHAR
STARTCHAR 043D
ENCODING 1085
SWIDTH 576 0
DWIDTH 16 0
BBX 10 14 3 0
BITMAP
8040
8040
8040
8040
8040
8040
FFC0
8040
8040
8040
8040
8040
8040
8040
ENDCHAR
STARTCHAR 043E
ENCODING 1086
SWIDTH 540 0
DWIDTH 15 0
BBX 11 14 2 0
BITMAP
3F80
4040
8040
8020
8020
8020
8020
8020
8020
8020
8020
8040
4040
3F80
ENDCHAR
STARTCHAR 043F
ENCODING 1087
SWIDTH 540 0
DWIDTH 15 0
BBX 10 14 3 0
BITMAP
FFC0
8040
8040
8040
8040
8040
8040
8040
8040
8040
8040
8040
8040
8040
ENDCHAR
STARTCHAR 0440
ENCODING 1088
SWIDTH 540 0
DWIDTH 15 0
BBX 11 20 3 -6
BITMAP
BF00
C0C0
8040
8020
8020
8020
8020
8020
8020
8020
8020
8040
C080
A100
9E00
8000
8000
8000
8000
8000
ENDCHAR
STARTCHAR 0441
ENCODING 1089
SWIDTH 468 0
DWIDTH 13 0
BBX 10 14 2 0
BITMAP
3F00
40C0
8040
8000
8000
8000
8000
8000
8000
8000
8000
8000
4040
3F80
ENDCHAR
STARTCHAR 0442
ENCODING 1090
SWIDTH 468 0
DWIDTH 13 0
BBX 11 14 1 0
BITMAP
FFE0
0400
0400
0400
0400
0400
0400
0400
0400
0400
0400
0400
0400
0400
ENDCHAR
STARTCHAR 0443
ENCODING 1091
SWIDTH 432 0
DWIDTH 12 0
BBX 11 20 1 -6
BITMAP
8020
8040
8040
4040
4080
4080
2100
2100
2100
1200
1200
0A00
0C00
0400
0800
0800
0800
1000
1000
6000
ENDCHAR
STARTCHAR 0444
ENCODING 1092
SWIDTH 720 0
DWIDTH 20 0
BBX 16 24 2 -5
BITMAP
0100
0100
0100
0100
0100
3F7E
8182
8081
8101
8101
8101
8101
8101
8101
8101
8101
8081
4182
2346
1D38
0100
0100
0100
0100
ENDCHAR
STARTCHAR 0445
ENCODING 1093
SWIDTH 468 0
DWIDTH 13 0
BBX 11 14 1 0
BITMAP
8020
4040
2080
2100
1100
0A00
0400
0C00
0A00
1100
2080
4080
4040
8020
ENDCHAR
STARTCHAR 0446
ENCODING 1094
SWIDTH 576 0
DWIDTH 16 0
BBX 12 18 3 -4
BITMAP
8040
8040
8040
8040
8040
8040
8040
8040
8040
8040
8040
8040
8040
FFF0
0010
0010
0010
0010
ENDCHAR
STARTCHAR 0447
ENCODING 1095
SWIDTH 504 0
DWIDTH 14 0
BBX 10 14 2 0
BITMAP
8040
8040
8040
8040
8040
8040
80C0
4140
2A40
0040
0040
0040
0040
0040
ENDCHAR
STARTCHAR 0448
ENCODING 1096
SWIDTH 756 0
DWIDTH 21 0
BBX 16 14 3 0
BITMAP
8101
8101
8101
8101
8101
8101
8101
8101
8101
8101
8101
8101
8101
FFFF
ENDCHAR
STARTCHAR 0449
ENCODING 1097
SWIDTH 792 0
DWIDTH 22 0
BBX 18 18 3 -4
BITMAP
810100
810100
810100
810100
810100
810100
810100
810100
810100
810100
810100
810100
810100
FFFFC0
000040
000040
000040
000040
ENDCHAR
STARTCHAR 044A
ENCODING 1098
SWIDTH 576 0
DWIDTH 16 0
BBX 14 14 1 0
BITMAP
F800
0800
0800
0800
0800
0800
0FF0
0808
0804
0804
0804
0808
0808
0FF0
ENDCHAR
STARTCHAR 044B
ENCODING 1099
SWIDTH 648 0
DWIDTH 18 0
BBX 13 14 3 0
BITMAP
8008
8008
8008
8008
8008
8008
FE08
8108
8088
8088
8088
8088
8108
FE08
ENDCHAR
STARTCHAR 044C
ENCODING 1100
SWIDTH 504 0
DWIDTH 14 0
BBX 10 14 3 0
BITMAP
8000
8000
8000
8000
8000
8000
FF00
8080
8080
8040
8040
8080
8080
FF00
ENDCHAR
STARTCHAR 044D
ENCODING 1101
SWIDTH 468 0
DWIDTH 13 0
BBX 10 14 2 0
BITMAP
7F00
8080
0080
0040
0040
0040
0040
1FC0
0040
0040
0040
0080
8080
7F00
ENDCHAR
STARTCHAR 044E
ENCODING 1102
SWIDTH 720 0
DWIDTH 20 0
BBX 16 14 3 0
BITMAP
81F8
8204
8402
8802
8801
8801
F801
8801
8801
8801
8802
8402
8204
81F8
ENDCHAR
STARTCHAR 044F
ENCODING 1103
SWIDTH 504 0
DWIDTH 14 0
BBX 10 14 1 0
BITMAP
1FC0
6040
4040
4040
4040
4040
4040
3840
0FC0
1040
1040
2040
2040
C040
ENDCHAR
STARTCHAR 0450
ENCODING 1104
SWIDTH 504 0
DWIDTH 14 0
BBX 11 21 2 0
BITMAP
1000
1000
0800
0400
0000
0000
0000
3F00
40C0
8040
8020
8020
8020
FFE0
8000
8000
8000
8020
8060
4040
3F80
ENDCHAR
STARTCHAR 0451
ENCODING 1105
SWIDTH 504 0
DWIDTH 14 0
BBX 11 19 2 0
BITMAP
3180
0000
0000
0000
0000
3F00
40C0
8040
8020
8020
8020
FFE0
8000
8000
8000
8020
8060
4040
3F80
ENDCHAR
STARTCHAR 0452
ENCODING 1106
SWIDTH 540 0
DWIDTH 15 0
BBX 12 27 1 -6
BITMAP
2000
2000
2000
FE00
2000
2000
2000
2FC0
3020
2010
2010
2010
2010
2010
2010
2010
2010
2010
2010
2010
2010
0010
0010
0010
0010
0010
0060
ENDCHAR
STARTCHAR 0453
ENCODING 1107
SWIDTH 432 0
DWIDTH 12 0
BBX 8 21 3 0
BITMAP
02
04
08
10
10
00
00
FF
80
80
80
80
80
80
80
80
80
80
80
80
80
ENDCHAR
STARTCHAR 0454
ENCODING 1108
SWIDTH 468 0
DWIDTH 13 0
BBX 10 14 2 0
BITMAP
3F00
40C0
8040
8000
8000
8000
8000
FE00
8000
8000
8000
8000
4040
3F80
ENDCHAR
STARTCHAR 0455
ENCODING 1109
SWIDTH 432 0
DWIDTH 12 0
BBX 10 14 1 0
BITMAP
3F80
4040
8000
8000
4000
4000
3800
0780
0040
0040
0040
0040
4040
3F80
ENDCHAR
STARTCHAR 0456
ENCODING 1110
SWIDTH 216 0
DWIDTH 6 0
BBX 1 20 3 0
BITMAP
80
00
00
00
00
00
80
80
80
80
80
80
80
80
80
80
80
80
80
80
ENDCHAR
STARTCHAR 0457
ENCODING 1111
SWIDTH 216 0
DWIDTH 6 0
BBX 6 19 0 0
BITMAP
84
00
00
00
00
10
10
10
10
10
10
10
10
10
10
10
10
10
10
ENDCHAR
STARTCHAR 0458
ENCODING 1112
SWIDTH 216 0
DWIDTH 6 0
BBX 3 26 1 -6
BITMAP
20
00
00
00
00
00
20
20
20
20
20
20
20
20
20
20
20
20
20
20
20
20
20
20
20
C0
ENDCHAR
STARTCHAR 0459
ENCODING 1113
SWIDTH 756 0
DWIDTH 21 0
BBX 20 14 0 0
BITMAP
0FE000
082000
082000
082000
082000
082000
083FC0
102020
102020
102010
102010
102020
202020
C01FC0
ENDCHAR
STARTCHAR 045A
ENCODING 1114
SWIDTH 792 0
DWIDTH 22 0
BBX 18 14 3 0
BITMAP
808000
808000
808000
808000
808000
808000
FFFF00
808080
808040
808040
808040
808040
808080
807F00
ENDCHAR
STARTCHAR 045B
ENCODING 1115
SWIDTH 540 0
DWIDTH 15 0
BBX 12 21 1 0
BITMAP
2000
2000
2000
FE00
2000
2000
2000
2FC0
3020
2010
2010
2010
2010
2010
2010
2010
2010
2010
2010
2010
2010
ENDCHAR
STARTCHAR 045C
ENCODING 1116
SWIDTH 504 0
DWIDTH 14 0
BBX 10 21 3 0
BITMAP
0200
0400
0400
0800
0000
0000
0000
81C0
8100
8200
8400
8400
8800
F000
8800
8400
8400
8200
8200
8100
80C0
ENDCHAR
STARTCHAR 045D
ENCODING 1117
SWIDTH 576 0
DWIDTH 16 0
BBX 10 21 3 0
BITMAP
2000
1000
1000
0800
0400
0000
0000
8040
80C0
8140
8140
8240
8440
8440
8840
9040
9040
A040
C040
8040
8040
ENDCHAR
STARTCHAR 045E
ENCODING 1118
SWIDTH 432 0
DWIDTH 12 0
BBX 11 26 1 -6
BITMAP
2080
2100
1A00
0400
0000
0000
8020
8040
8040
4040
4080
4080
2100
2100
2100
1200
1200
0A00
0C00
0400
0800
0800
0800
1000
1000
6000
ENDCHAR
STARTCHAR 045F
ENCODING 1119
SWIDTH 540 0
DWIDTH 15 0
BBX 10 17 3 -4
BITMAP
8040
8040
8040
8040
8040
8040
8040
8040
8040
8040
8040
8040
8040
FFC0
0800
0800
0800
ENDCHAR
STARTCHAR 0472
ENCODING 1138
SWIDTH 648 0
DWIDTH 18 0
BBX 15 20 2 0
BITMAP
0780
1870
2008
4004
4004
8004
8002
8002
8002
8002
FFFE
8002
8002
8002
8002
8004
4004
4008
2010
1FE0
ENDCHAR
STARTCHAR 0473
ENCODING 1139
SWIDTH 540 0
DWIDTH 15 0
BBX 11 14 2 0
BITMAP
3F80
4040
8040
8020
8020
8020
8020
FFE0
8020
8020
8020
8040
4040
3F80
ENDCHAR
STARTCHAR 0490
ENCODING 1168
SWIDTH 504 0
DWIDTH 14 0
BBX 10 24 3 0
BITMAP
0040
0040
0040
0040
0040
FF80
8000
8000
8000
8000
8000
8000
8000
8000
8000
8000
8000
8000
8000
8000
8000
8000
8000
8000
ENDCHAR
STARTCHAR 0491
ENCODING 1169
SWIDTH 432 0
DWIDTH 12 0
BBX 8 17 3 1
BITMAP
01
01
01
FE
80
80
80
80
80
80
80
80
80
80
80
80
80
ENDCHAR
STARTCHAR 0492
ENCODING 1170
SWIDTH 504 0
DWIDTH 14 0
BBX 12 19 1 0
BITMAP
3FF0
2000
2000
2000
2000
2000
2000
2000
FF80
2000
2000
2000
2000
2000
2000
2000
2000
2000
2000
ENDCHAR
STARTCHAR 0493
ENCODING 1171
SWIDTH 432 0
DWIDTH 12 0
BBX 10 14 1 0
BITMAP
3FC0
2000
2000
2000
2000
2000
FF00
2000
2000
2000
2000
2000
2000
2000
ENDCHAR
STARTCHAR 0494
ENCODING 1172
SWIDTH 576 0
DWIDTH 16 0
BBX 12 24 3 -5
BITMAP
FF80
8000
8000
8000
8000
8000
8000
8000
9E00
E1C0
8020
8010
8010
8010
8010
8010
8010
8010
8010
0010
0010
0010
0020
01C0
ENDCHAR
STARTCHAR 0495
ENCODING 1173
SWIDTH 504 0
DWIDTH 14 0
BBX 10 20 3 -6
BITMAP
FF00
8000
8000
8000
8000
8000
9C00
E180
8080
8040
8040
8040
8040
8040
0040
0040
0040
0040
0080
0300
ENDCHAR
STARTCHAR 0496
ENCODING 1174
SWIDTH 900 0
DWIDTH 25 0
BBX 23 23 1 -4
BITMAP
60100C
101010
101010
081020
081020
041040
041040
021080
021080
03FF00
021080
041080
041040
081020
081020
101010
101010
201008
E01006
000002
000002
000002
000002
ENDCHAR
STARTCHAR 0497
ENCODING 1175
SWIDTH 720 0
DWIDTH 20 0
BBX 19 18 1 -4
BITMAP
6040C0
204100
104200
104200
084400
084400
07F800
044400
084400
104200
104200
204100
204100
C040E0
000020
000020
000020
000020
ENDCHAR
STARTCHAR 0498
ENCODING 1176
SWIDTH 540 0
DWIDTH 15 0
BBX 12 24 2 -4
BITMAP
0E00
30C0
4020
0020
0010
0010
0010
0020
0020
0080
1F80
0060
0010
0010
0010
0010
0010
0010
8020
70C0
0F00
0400
0400
0400
ENDCHAR
STARTCHAR 0499
ENCODING 1177
SWIDTH 468 0
DWIDTH 13 0
BBX 9 18 2 -4
BITMAP
7F00
8080
0080
0080
0080
0100
3E00
0100
0080
0080
0080
0080
8080
6300
1C00
0800
0800
0800
ENDCHAR
STARTCHAR 049A
ENCODING 1178
SWIDTH 612 0
DWIDTH 17 0
BBX 13 23 3 -4
BITMAP
8030
8040
8040
8080
8100
8100
8200
8200
8400
FC00
8400
8200
8100
8100
8080
8080
8040
8020
8018
0008
0008
0008
0008
ENDCHAR
STARTCHAR 049B
ENCODING 1179
SWIDTH 504 0
DWIDTH 14 0
BBX 11 18 3 -4
BITMAP
81C0
8100
8200
8400
8400
8800
F000
8800
8400
8400
8200
8200
8100
80E0
0020
0020
0020
0020
ENDCHAR
STARTCHAR 049C
ENCODING 1180
SWIDTH 612 0
DWIDTH 17 0
BBX 13 19 3 0
BITMAP
8030
8040
8040
8080
9080
9100
9200
9200
9400
FC00
9200
9200
9100
9080
8080
8040
8040
8020
8018
ENDCHAR
STARTCHAR 049D
ENCODING 1181
SWIDTH 540 0
DWIDTH 15 0
BBX 11 14 3 0
BITMAP
80C0
8100
8100
A200
A400
A400
F800
A400
A400
A200
A200
8100
8080
8060
ENDCHAR
STARTCHAR 04A0
ENCODING 1184
SWIDTH 720 0
DWIDTH 20 0
BBX 18 19 1 0
BITMAP
FC0180
040200
040200
040400
040400
040800
041000
041000
042000
07E000
041000
041000
040800
040800
040400
040200
040200
040100
0400C0
ENDCHAR
STARTCHAR 04A1
ENCODING 1185
SWIDTH 576 0
DWIDTH 16 0
BBX 14 14 1 0
BITMAP
F80C
0810
0820
0820
0840
0880
0F00
0880
0840
0840
0820
0810
0810
080C
ENDCHAR
STARTCHAR 04A2
ENCODING 1186
SWIDTH 720 0
DWIDTH 20 0
BBX 16 23 3 -4
BITMAP
8008
8008
8008
8008
8008
8008
8008
8008
8008
FFF8
8008
8008
8008
8008
8008
8008
8008
8008
8007
0001
0001
0001
0001
ENDCHAR
STARTCHAR 04A3
ENCODING 1187
SWIDTH 576 0
DWIDTH 16 0
BBX 12 17 3 -4
BITMAP
8040
8040
8040
8040
8040
8040
FFC0
8040
8040
8040
8040
8040
8040
8070
0010
0010
0010
ENDCHAR
STARTCHAR 04A4
ENCODING 1188
SWIDTH 900 0
DWIDTH 25 0
BBX 21 19 3 0
BITMAP
800FF8
800800
800800
800800
800800
800800
800800
800800
800800
FFF800
800800
800800
800800
800800
800800
800800
800800
800800
800800
ENDCHAR
STARTCHAR 04A5
ENCODING 1189
SWIDTH 756 0
DWIDTH 21 0
BBX 16 14 3 0
BITMAP
80FF
8080
8080
8080
8080
8080
FF80
8080
8080
8080
8080
8080
8080
8080
ENDCHAR
STARTCHAR 04AA
ENCODING 1194
SWIDTH 576 0
DWIDTH 16 0
BBX 13 24 2 -4
BITMAP
0780
1860
2010
4008
C000
8000
8000
8000
8000
8000
8000
8000
8000
8000
8000
8000
4008
4008
2010
1860
0780
0200
0200
0200
ENDCHAR
STARTCHAR 04AB
ENCODING 1195
SWIDTH 468 0
DWIDTH 13 0
BBX 10 18 2 -4
BITMAP
3F00
40C0
8040
8000
8000
8000
8000
8000
8000
8000
8000
8000
4040
3180
0E00
0400
0400
0400
ENDCHAR
STARTCHAR 04AE
ENCODING 1198
SWIDTH 540 0
DWIDTH 15 0
BBX 13 19 1 0
BITMAP
8008
8010
4010
2020
2020
1040
1080
0880
0500
0500
0200
0200
0200
0200
0200
0200
0200
0200
0200
ENDCHAR
STARTCHAR 04AF
ENCODING 1199
SWIDTH 432 0
DWIDTH 12 0
BBX 11 20 1 -6
BITMAP
8020
8040
8040
4040
4080
4080
2100
2100
1100
1200
1200
0A00
0C00
0400
0400
0400
0400
0400
0400
0400
ENDCHAR
STARTCHAR 04B0
ENCODING 1200
SWIDTH 540 0
DWIDTH 15 0
BBX 13 19 1 0
BITMAP
8008
8010
4010
2020
2020
1040
1080
0880
0500
0500
0200
3FE0
0200
0200
0200
0200
0200
0200
0200
ENDCHAR
STARTCHAR 04B1
ENCODING 1201
SWIDTH 432 0
DWIDTH 12 0
BBX 11 20 1 -6
BITMAP
8020
8040
8040
4040
4080
4080
2100
2100
1100
1200
1200
0A00
0C00
0400
7F80
0400
0400
0400
0400
0400
ENDCHAR
STARTCHAR 04B2
ENCODING 1202
SWIDTH 576 0
DWIDTH 16 0
BBX 15 23 1 -4
BITMAP
8008
4010
2010
2020
1040
0840
0880
0500
0300
0200
0500
0480
0880
1040
1020
2020
4010
4008
8006
0002
0002
0002
0002
ENDCHAR
STARTCHAR 04B3
ENCODING 1203
SWIDTH 468 0
DWIDTH 13 0
BBX 13 18 1 -4
BITMAP
8020
4040
2080
2100
1100
0A00
0400
0C00
0A00
1100
2080
4080
4040
8038
0008
0008
0008
0008
ENDCHAR
STARTCHAR 04B6
ENCODING 1206
SWIDTH 648 0
DWIDTH 18 0
BBX 15 23 2 -4
BITMAP
8010
8010
8010
8010
8010
8010
8010
8010
8010
4010
1830
07D0
0010
0010
0010
0010
0010
0010
000E
0002
0002
0002
0002
ENDCHAR
STARTCHAR 04B7
ENCODING 1207
SWIDTH 504 0
DWIDTH 14 0
BBX 12 18 2 -4
BITMAP
8040
8040
8040
8040
8040
8040
80C0
4140
2A40
0040
0040
0040
0040
0070
0010
0010
0010
0010
ENDCHAR
STARTCHAR 04B8
ENCODING 1208
SWIDTH 612 0
DWIDTH 17 0
BBX 12 19 2 0
BITMAP
8010
8010
8010
8010
8010
8010
8210
8210
8210
4210
3A30
07D0
0210
0210
0210
0210
0010
0010
0010
ENDCHAR
STARTCHAR 04B9
ENCODING 1209
SWIDTH 504 0
DWIDTH 14 0
BBX 10 14 2 0
BITMAP
8040
8040
8040
8040
8840
8840
88C0
4940
2A40
0840
0840
0040
0040
0040
ENDCHAR
STARTCHAR 04BA
ENCODING 1210
SWIDTH 612 0
DWIDTH 17 0
BBX 12 19 3 0
BITMAP
8000
8000
8000
8000
8000
8000
8000
9E00
E0C0
8020
8010
8010
8010
8010
8010
8010
8010
8010
8010
ENDCHAR
STARTCHAR 04BB
ENCODING 1211
SWIDTH 540 0
DWIDTH 15 0
BBX 10 21 3 0
BITMAP
8000
8000
8000
8000
8000
8000
8000
BF00
C080
8080
8040
8040
8040
8040
8040
8040
8040
8040
8040
8040
8040
ENDCHAR
STARTCHAR 04C0
ENCODING 1216
SWIDTH 360 0
DWIDTH 10 0
BBX 6 19 2 0
BITMAP
FC
20
20
20
20
20
20
20
20
20
20
20
20
20
20
20
20
20
FC
ENDCHAR
STARTCHAR 04C1
ENCODING 1217
SWIDTH 900 0
DWIDTH 25 0
BBX 23 25 1 0
BITMAP
008200
008400
006C00
001000
000000
000000
60100C
101010
101010
081020
081020
041040
041040
021080
021080
03FF00
021080
041080
041040
081020
081020
101010
101010
201008
E01006
ENDCHAR
STARTCHAR 04C2
ENCODING 1218
SWIDTH 720 0
DWIDTH 20 0
BBX 18 20 1 0
BITMAP
020800
021000
012000
00C000
000000
000000
6040C0
204100
104200
104200
084400
084400
07F800
044400
084400
104200
104200
204100
204100
C040C0
ENDCHAR
STARTCHAR 04CF
ENCODING 1231
SWIDTH 216 0
DWIDTH 6 0
BBX 1 21 3 0
BITMAP
80
80
80
80
80
80
80
80
80
80
80
80
80
80
80
80
80
80
80
80
80
ENDCHAR
STARTCHAR 04D0
ENCODING 1232
SWIDTH 576 0
DWIDTH 16 0
BBX 15 25 1 0
BITMAP
0820
0840
0680
0100
0000
0000
0100
0300
0480
0480
0440
0840
0840
0820
1020
1020
1010
2010
3FF0
2008
4008
4004
8004
8004
8002
ENDCHAR
STARTCHAR 04D1
ENCODING 1233
SWIDTH 504 0
DWIDTH 14 0
BBX 12 20 2 0
BITMAP
4100
2100
1200
0C00
0000
0000
3F00
C080
8080
0080
0040
0040
0FC0
6040
8040
8040
8040
8040
81C0
7E70
ENDCHAR
STARTCHAR 04D2
ENCODING 1234
SWIDTH 576 0
DWIDTH 16 0
BBX 15 24 1 0
BITMAP
0860
0000
0000
0000
0000
0100
0300
0480
0480
0440
0840
0840
0820
1020
1020
1010
2010
3FF0
2008
4008
4004
8004
8004
8002
ENDCHAR
STARTCHAR 04D3
ENCODING 1235
SWIDTH 504 0
DWIDTH 14 0
BBX 12 19 2 0
BITMAP
2100
0000
0000
0000
0000
3F00
C080
8080
0080
0040
0040
0FC0
6040
8040
8040
8040
8040
81C0
7E70
ENDCHAR
STARTCHAR 04D4
ENCODING 1236
SWIDTH 828 0
DWIDTH 23 0
BBX 22 19 0 0
BITMAP
003FF8
005000
005000
009000
009000
011000
011000
021000
041000
041FF8
081000
081000
1FF000
101000
201000
201000
401000
401000
801FFC
ENDCHAR
STARTCHAR 04D5
ENCODING 1237
SWIDTH 828 0
DWIDTH 23 0
BBX 20 14 2 0
BITMAP
3F1FC0
C0A020
80C020
004010
004010
008010
0FFFF0
608000
808000
804000
804010
80C010
812020
7E0FC0
ENDCHAR
STARTCHAR 04D6
ENCODING 1238
SWIDTH 540 0
DWIDTH 15 0
BBX 11 25 3 0
BITMAP
2080
2100
1A00
0400
0000
0000
FFC0
8000
8000
8000
8000
8000
8000
8000
8000
FFC0
8000
8000
8000
8000
8000
8000
8000
8000
FFE0
ENDCHAR
STARTCHAR 04D7
ENCODING 1239
SWIDTH 504 0
DWIDTH 14 0
BBX 11 20 2 0
BITMAP
2080
2100
1A00
0400
0000
0000
3F00
40C0
8040
8020
8020
8020
FFE0
8000
8000
8000
8020
8060
4040
3F80
ENDCHAR
STARTCHAR 04D8
ENCODING 1240
SWIDTH 648 0
DWIDTH 18 0
BBX 15 20 2 0
BITMAP
0380
1C70
2008
4008
4004
0004
0002
0002
0002
0002
FFFE
8002
8002
8002
8002
8004
4004
4008
2010
1FE0
ENDCHAR
STARTCHAR 04D9
ENCODING 1241
SWIDTH 504 0
DWIDTH 14 0
BBX 11 14 2 0
BITMAP
3F80
4040
8040
0020
0020
0020
0020
FFE0
8020
8020
8020
8040
4040
3F80
ENDCHAR
STARTCHAR 04DC
ENCODING 1244
SWIDTH 900 0
DWIDTH 25 0
BBX 23 24 1 0
BITMAP
00C600
000000
000000
000000
000000
60100C
101010
101010
081020
081020
041040
041040
021080
021080
03FF00
021080
041080
041040
081020
081020
101010
101010
201008
E01006
ENDCHAR
STARTCHAR 04DD
ENCODING 1245
SWIDTH 720 0
DWIDTH 20 0
BBX 18 19 1 0
BITMAP
021000
000000
000000
000000
000000
6040C0
204100
104200
104200
084400
084400
07F800
044400
084400
104200
104200
204100
204100
C040C0
ENDCHAR
STARTCHAR 04DE
ENCODING 1246
SWIDTH 540 0
DWIDTH 15 0
BBX 12 24 2 0
BITMAP
1080
0000
0000
0000
0E00
30C0
4020
0020
0010
0010
0010
0020
0020
0080
1F80
0060
0010
0010
0010
0010
0010
0010
8020
7FC0
ENDCHAR
STARTCHAR 04DF
ENCODING 1247
SWIDTH 468 0
DWIDTH 13 0
BBX 9 19 2 0
BITMAP
2100
0000
0000
0000
0000
7F00
8080
0080
0080
0080
0100
3E00
0100
0080
0080
0080
0080
8080
7F00
ENDCHAR
STARTCHAR 04E2
ENCODING 1250
SWIDTH 684 0
DWIDTH 19 0
BBX 13 24 3 0
BITMAP
1FC0
0000
0000
0000
0000
8008
8018
8028
8028
8048
8088
8088
8108
8208
8208
8408
8408
8808
9008
9008
A008
C008
C008
8008
ENDCHAR
STARTCHAR 04E3
ENCODING 1251
SWIDTH 576 0
DWIDTH 16 0
BBX 10 19 3 0
BITMAP
7F80
0000
0000
0000
0000
8040
80C0
8140
8140
8240
8440
8440
8840
9040
9040
A040
C040
8040
8040
ENDCHAR
STARTCHAR 04E4
ENCODING 1252
SWIDTH 684 0
DWIDTH 19 0
BBX 13 24 3 0
BITMAP
18C0
0000
0000
0000
0000
8008
8018
8028
8028
8048
8088
8088
8108
8208
8208
8408
8408
8808
9008
9008
A008
C008
C008
8008
ENDCHAR
STARTCHAR 04E5
ENCODING 1253
SWIDTH 576 0
DWIDTH 16 0
BBX 10 19 3 0
BITMAP
2100
0000
0000
0000
0000
8040
80C0
8140
8140
8240
8440
8440
8840
9040
9040
A040
C040
8040
8040
ENDCHAR
STARTCHAR 04E6
ENCODING 1254
SWIDTH 648 0
DWIDTH 18 0
BBX 15 24 2 0
BITMAP
0C60
0000
0000
0000
0780
1870
2008
4004
4004
8004
8002
8002
8002
8002
8002
8002
8002
8002
8002
8004
4004
4008
2010
1FE0
ENDCHAR
STARTCHAR 04E7
ENCODING 1255
SWIDTH 540 0
DWIDTH 15 0
BBX 11 19 2 0
BITMAP
3180
0000
0000
0000
0000
3F80
4040
8040
8020
8020
8020
8020
8020
8020
8020
8020
8040
4040
3F80
ENDCHAR
STARTCHAR 04E8
ENCODING 1256
SWIDTH 648 0
DWIDTH 18 0
BBX 15 20 2 0
BITMAP
0780
1870
2008
4004
4004
8004
8002
8002
8002
8002
FFFE
8002
8002
8002
8002
8004
4004
4008
2010
1FE0
ENDCHAR
STARTCHAR 04E9
ENCODING 1257
SWIDTH 540 0
DWIDTH 15 0
BBX 11 14 2 0
BITMAP
3F80
4040
8040
8020
8020
8020
8020
FFE0
8020
8020
8020
8040
4040
3F80
ENDCHAR
STARTCHAR 04EE
ENCODING 1262
SWIDTH 540 0
DWIDTH 15 0
BBX 14 24 1 0
BITMAP
0FE0
0000
0000
0000
0000
8004
8008
4008
4008
2010
2010
1020
1020
0820
0840
0440
0480
0280
0280
0100
0100
0200
0200
1E00
ENDCHAR
STARTCHAR 04EF
ENCODING 1263
SWIDTH 432 0
DWIDTH 12 0
BBX 11 25 1 -6
BITMAP
3F80
0000
0000
0000
0000
8020
8040
8040
4040
4080
4080
2100
2100
2100
1200
1200
0A00
0C00
0400
0800
0800
0800
1000
1000
6000
ENDCHAR
STARTCHAR 04F0
ENCODING 1264
SWIDTH 540 0
DWIDTH 15 0
BBX 14 24 1 0
BITMAP
0860
0000
0000
0000
0000
8004
8008
4008
4008
2010
2010
1020
1020
0820
0840
0440
0480
0280
0280
0100
0100
0200
0200
1E00
ENDCHAR
STARTCHAR 04F1
ENCODING 1265
SWIDTH 432 0
DWIDTH 12 0
BBX 11 25 1 -6
BITMAP
2180
0000
0000
0000
0000
8020
8040
8040
4040
4080
4080
2100
2100
2100
1200
1200
0A00
0C00
0400
0800
0800
0800
1000
1000
6000
ENDCHAR
STARTCHAR 04F2
ENCODING 1266
SWIDTH 540 0
DWIDTH 15 0
BBX 14 26 1 0
BITMAP
0008
0110
0220
0440
0040
0000
0000
8004
8008
4008
4008
2010
2010
1020
1020
0820
0840
0440
0480
0280
0280
0100
0100
0200
0200
1E00
ENDCHAR
STARTCHAR 04F3
ENCODING 1267
SWIDTH 432 0
DWIDTH 12 0
BBX 11 27 1 -6
BITMAP
0020
0440
0880
1100
0100
0000
0000
8020
8040
8040
4040
4080
4080
2100
2100
2100
1200
1200
0A00
0C00
0400
0800
0800
0800
1000
1000
6000
ENDCHAR
STARTCHAR 04F4
ENCODING 1268
SWIDTH 612 0
DWIDTH 17 0
BBX 12 24 2 0
BITMAP
1080
0000
0000
0000
0000
8010
8010
8010
8010
8010
8010
8010
8010
8010
4010
1830
07D0
0010
0010
0010
0010
0010
0010
0010
ENDCHAR
STARTCHAR 04F5
ENCODING 1269
SWIDTH 504 0
DWIDTH 14 0
BBX 10 19 2 0
BITMAP
6300
0000
0000
0000
0000
8040
8040
8040
8040
8040
8040
80C0
4140
2A40
0040
0040
0040
0040
0040
ENDCHAR
STARTCHAR 04F8
ENCODING 1272
SWIDTH 792 0
DWIDTH 22 0
BBX 17 24 3 0
BITMAP
063000
000000
000000
000000
000000
800080
800080
800080
800080
800080
800080
800080
800080
FFC080
802080
802080
801080
801080
801080
801080
801080
802080
802080
FFC080
ENDCHAR
STARTCHAR 04F9
ENCODING 1273
SWIDTH 648 0
DWIDTH 18 0
BBX 13 19 3 0
BITMAP
10C0
0000
0000
0000
0000
8008
8008
8008
8008
8008
8008
FE08
8108
8088
8088
8088
8088
8108
FE08
ENDCHAR
STARTCHAR 0E3F
ENCODING 3647
SWIDTH 576 0
DWIDTH 16 0
BBX 12 24 3 -2
BITMAP
0400
0400
0400
FF80
8440
8420
8420
8420
8420
8420
8440
8580
FE40
8420
8410
8410
8410
8410
8410
8420
8440
7F80
0400
0400
ENDCHAR
STARTCHAR 1E80
ENCODING 7808
SWIDTH 864 0
DWIDTH 24 0
BBX 22 26 1 0
BITMAP
008000
004000
002000
002000
001000
000000
000000
803004
803004
805004
404808
404808
404808
408808
208410
208410
210410
210210
110220
110220
120220
120140
0A0140
0A0140
0C00C0
040080
ENDCHAR
STARTCHAR 1E81
ENCODING 7809
SWIDTH 720 0
DWIDTH 20 0
BBX 18 21 1 0
BITMAP
020000
010000
008000
008000
004000
000000
000000
804040
80C040
80C080
414080
412080
412100
222100
221100
221100
241200
140A00
140A00
180C00
080400
ENDCHAR
STARTCHAR 1E82
ENCODING 7810
SWIDTH 864 0
DWIDTH 24 0
BBX 22 26 1 0
BITMAP
000400
000800
001000
002000
002000
000000
000000
803004
803004
805004
404808
404808
404808
408808
208410
208410
210410
210210
110220
110220
120220
120140
0A0140
0A0140
0C00C0
040080
ENDCHAR
STARTCHAR 1E83
ENCODING 7811
SWIDTH 720 0
DWIDTH 20 0
BBX 18 21 1 0
BITMAP
001000
002000
004000
008000
008000
000000
000000
804040
80C040
80C080
414080
412080
412100
222100
221100
221100
241200
140A00
140A00
180C00
080400
ENDCHAR
STARTCHAR 1E84
ENCODING 7812
SWIDTH 864 0
DWIDTH 24 0
BBX 22 24 1 0
BITMAP
008400
000000
000000
000000
000000
803004
803004
805004
404808
404808
404808
408808
208410
208410
210410
210210
110220
110220
120220
120140
0A0140
0A0140
0C00C0
040080
ENDCHAR
STARTCHAR 1E85
ENCODING 7813
SWIDTH 720 0
DWIDTH 20 0
BBX 18 19 1 0
BITMAP
021000
000000
000000
000000
000000
804040
80C040
80C080
414080
412080
412100
222100
221100
221100
241200
140A00
140A00
180C00
080400
ENDCHAR
STARTCHAR 1E9E
ENCODING 7838
SWIDTH 648 0
DWIDTH 18 0
BBX 14 19 3 0
BITMAP
FFF8
8010
8020
8020
8040
8080
8080
8100
80E0
8018
8004
8004
8004
8004
8004
8004
8004
8808
87F0
ENDCHAR
STARTCHAR 1EA0
ENCODING 7840
SWIDTH 576 0
DWIDTH 16 0
BBX 15 23 1 -4
BITMAP
0100
0300
0480
0480
0440
0840
0840
0820
1020
1020
1010
2010
3FF0
2008
4008
4004
8004
8004
8002
0000
0000
0100
0100
ENDCHAR
STARTCHAR 1EA1
ENCODING 7841
SWIDTH 504 0
DWIDTH 14 0
BBX 12 18 2 -4
BITMAP
3F00
C080
8080
0080
0040
0040
0FC0
6040
8040
8040
8040
8040
81C0
4270
3C00
0000
0800
0800
ENDCHAR
STARTCHAR 1EA2
ENCODING 7842
SWIDTH 576 0
DWIDTH 16 0
BBX 15 25 1 0
BITMAP
03C0
0080
0100
0100
0000
0000
0100
0300
0480
0480
0440
0840
0840
0820
1020
1020
1010
2010
3FF0
2008
4008
4004
8004
8004
8002
ENDCHAR
STARTCHAR 1EA3
ENCODING 7843
SWIDTH 504 0
DWIDTH 14 0
BBX 12 20 2 0
BITMAP
1E00
0200
0400
0000
0000
0000
3F00
C080
8080
0080
0040
0040
0FC0
6040
8040
8040
8040
8040
81C0
7E70
ENDCHAR
STARTCHAR 1EA4
ENCODING 7844
SWIDTH 576 0
DWIDTH 16 0
BBX 15 29 1 0
BITMAP
0004
0008
0010
0020
03A0
04C0
0840
0020
0000
0000
0100
0300
0480
0480
0440
0840
0840
0820
1020
1020
1010
2010
3FF0
2008
4008
4004
8004
8004
8002
ENDCHAR
STARTCHAR 1EA5
ENCODING 7845
SWIDTH 504 0
DWIDTH 14 0
BBX 12 24 2 0
BITMAP
0020
0040
0040
0080
1C00
2200
2100
4080
0000
0000
3F00
C080
8080
0080
0040
0040
0FC0
6040
8040
8040
8040
8040
81C0
7E70
ENDCHAR
STARTCHAR 1EA6
ENCODING 7846
SWIDTH 576 0
DWIDTH 16 0
BBX 15 29 1 0
BITMAP
4000
2000
2000
1000
0380
04C0
0840
0020
0000
0000
0100
0300
0480
0480
0440
0840
0840
0820
1020
1020
1010
2010
3FF0
2008
4008
4004
8004
8004
8002
ENDCHAR
STARTCHAR 1EA7
ENCODING 7847
SWIDTH 504 0
DWIDTH 14 0
BBX 13 23 1 1
BITMAP
8000
4000
2000
0E00
1100
1080
2040
0000
0000
1F80
6040
4040
0040
0020
0020
07E0
3020
4020
8020
8020
8020
40E0
3F38
ENDCHAR
STARTCHAR 1EA8
ENCODING 7848
SWIDTH 576 0
DWIDTH 16 0
BBX 15 29 1 0
BITMAP
00F0
0008
0010
0020
03A0
04C0
0840
0020
0000
0000
0100
0300
0480
0480
0440
0840
0840
0820
1020
1020
1010
2010
3FF0
2008
4008
4004
8004
8004
8002
ENDCHAR
STARTCHAR 1EA9
ENCODING 7849
SWIDTH 504 0
DWIDTH 14 0
BBX 12 24 2 0
BITMAP
03C0
0040
0040
0080
1C00
2200
2100
4080
0000
0000
3F00
C080
8080
0080
0040
0040
0FC0
6040
8040
8040
8040
8040
81C0
7E70
ENDCHAR
STARTCHAR 1EAA
ENCODING 7850
SWIDTH 576 0
DWIDTH 16 0
BBX 15 29 1 0
BITMAP
0400
1B00
00A0
0000
0380
04C0
0840
0020
0000
0000
0100
0300
0480
0480
0440
0840
0840
0820
1020
1020
1010
2010
3FF0
2008
4008
4004
8004
8004
8002
ENDCHAR
STARTCHAR 1EAB
ENCODING 7851
SWIDTH 504 0
DWIDTH 14 0
BBX 12 23 2 1
BITMAP
7880
0700
0000
1C00
2200
2100
4080
0000
0000
3F00
C080
8080
0080
0040
0040
0FC0
6040
8040
8040
8040
8040
81C0
7E70
ENDCHAR
STARTCHAR 1EAC
ENCODING 7852
SWIDTH 576 0
DWIDTH 16 0
BBX 15 30 1 -4
BITMAP
0100
0280
0440
0820
0000
0000
0000
0100
0300
0480
0480
0440
0840
0840
0820
1020
1020
1010
2010
3FF0
2008
4008
4004
8004
8004
8002
0000
0000
0100
0100
ENDCHAR
STARTCHAR 1EAD
ENCODING 7853
SWIDTH 504 0
DWIDTH 14 0
BBX 12 25 2 -4
BITMAP
0800
1400
2200
4100
0000
0000
0000
3F00
C080
8080
0080
0040
0040
0FC0
6040
8040
8040
8040
8040
81C0
4270
3C00
0000
0800
0800
ENDCHAR
STARTCHAR 1EAE
ENCODING 7854
SWIDTH 576 0
DWIDTH 16 0
BBX 15 29 1 0
BITMAP
0040
0080
0080
0100
0020
0840
0440
0380
0000
0000
0100
0300
0480
0480
0440
0840
0840
0820
1020
1020
1010
2010
3FF0
2008
4008
4004
8004
8004
8002
ENDCHAR
STARTCHAR 1EAF
ENCODING 7855
SWIDTH 504 0
DWIDTH 14 0
BBX 12 24 2 0
BITMAP
0100
0200
0400
0400
4880
4100
2200
1C00
0000
0000
3F00
C080
8080
0080
0040
0040
0FC0
6040
8040
8040
8040
8040
81C0
7E70
ENDCHAR
STARTCHAR 1EB0
ENCODING 7856
SWIDTH 576 0
DWIDTH 16 0
BBX 15 29 1 0
BITMAP
0800
0400
0200
0200
0120
0840
0440
0380
0000
0000
0100
0300
0480
0480
0440
0840
0840
0820
1020
1020
1010
2010
3FF0
2008
4008
4004
8004
8004
8002
ENDCHAR
STARTCHAR 1EB1
ENCODING 7857
SWIDTH 504 0
DWIDTH 14 0
BBX 12 24 2 0
BITMAP
2000
1000
1000
0800
4080
4100
2200
1C00
0000
0000
3F00
C080
8080
0080
0040
0040
0FC0
6040
8040
8040
8040
8040
81C0
7E70
ENDCHAR
STARTCHAR 1EB2
ENCODING 7858
SWIDTH 576 0
DWIDTH 16 0
BBX 15 29 1 0
BITMAP
0780
0040
0080
0100
0120
0840
0440
0380
0000
0000
0100
0300
0480
0480
0440
0840
0840
0820
1020
1020
1010
2010
3FF0
2008
4008
4004
8004
8004
8002
ENDCHAR
STARTCHAR 1EB3
ENCODING 7859
SWIDTH 504 0
DWIDTH 14 0
BBX 12 24 2 0
BITMAP
1E00
0200
0200
0400
4080
4100
2200
1C00
0000
0000
3F00
C080
8080
0080
0040
0040
0FC0
6040
8040
8040
8040
8040
81C0
7E70
ENDCHAR
STARTCHAR 1EB4
ENCODING 7860
SWIDTH 576 0
DWIDTH 16 0
BBX 15 28 1 0
BITMAP
1E00
01E0
0000
0020
0840
0440
0380
0000
0000
0100
0300
0480
0480
0440
0840
0840
0820
1020
1020
1010
2010
3FF0
2008
4008
4004
8004
8004
8002
ENDCHAR
STARTCHAR 1EB5
ENCODING 7861
SWIDTH 504 0
DWIDTH 14 0
BBX 12 23 2 0
BITMAP
7800
0780
0000
4080
4100
2200
1C00
0000
0000
3F00
C080
8080
0080
0040
0040
0FC0
6040
8040
8040
8040
8040
81C0
7E70
ENDCHAR
STARTCHAR 1EB6
ENCODING 7862
SWIDTH 576 0
DWIDTH 16 0
BBX 15 29 1 -4
BITMAP
0820
0840
0480
0300
0000
0000
0100
0300
0480
0480
0440
0840
0840
0820
1020
1020
1010
2010
3FF0
2008
4008
4004
8004
8004
8002
0000
0000
0100
0100
ENDCHAR
STARTCHAR 1EB7
ENCODING 7863
SWIDTH 504 0
DWIDTH 14 0
BBX 12 24 2 -4
BITMAP
4100
2100
1200
0C00
0000
0000
3F00
C080
8080
0080
0040
0040
0FC0
6040
8040
8040
8040
8040
81C0
4270
3C00
0000
0800
0800
ENDCHAR
STARTCHAR 1EB8
ENCODING 7864
SWIDTH 540 0
DWIDTH 15 0
BBX 11 23 3 -4
BITMAP
FFC0
8000
8000
8000
8000
8000
8000
8000
8000
FFC0
8000
8000
8000
8000
8000
8000
8000
8000
FFE0
0000
0000
0400
0400
ENDCHAR
STARTCHAR 1EB9
ENCODING 7865
SWIDTH 504 0
DWIDTH 14 0
BBX 11 18 2 -4
BITMAP
3F00
40C0
8040
8020
8020
8020
FFE0
8000
8000
8000
8020
8060
4040
3180
0E00
0000
0400
0400
ENDCHAR
STARTCHAR 1EBA
ENCODING 7866
SWIDTH 540 0
DWIDTH 15 0
BBX 11 25 3 0
BITMAP
0F00
0200
0400
0400
0000
0000
FFC0
8000
8000
8000
8000
8000
8000
8000
8000
FFC0
8000
8000
8000
8000
8000
8000
8000
8000
FFE0
ENDCHAR
STARTCHAR 1EBB
ENCODING 7867
SWIDTH 504 0
DWIDTH 14 0
BBX 11 20 2 0
BITMAP
0F00
0200
0400
0400
0000
0000
3F00
40C0
8040
8020
8020
8020
FFE0
8000
8000
8000
8020
8060
4040
3F80
ENDCHAR
STARTCHAR 1EBC
ENCODING 7868
SWIDTH 540 0
DWIDTH 15 0
BBX 11 25 3 0
BITMAP
1000
6C00
0380
0000
0000
0000
FFC0
8000
8000
8000
8000
8000
8000
8000
8000
FFC0
8000
8000
8000
8000
8000
8000
8000
8000
FFE0
ENDCHAR
STARTCHAR 1EBD
ENCODING 7869
SWIDTH 504 0
DWIDTH 14 0
BBX 11 20 2 0
BITMAP
1000
6C40
0380
0000
0000
0000
3F00
40C0
8040
8020
8020
8020
FFE0
8000
8000
8000
8020
8060
4040
3F80
ENDCHAR
STARTCHAR 1EBE
ENCODING 7870
SWIDTH 540 0
DWIDTH 15 0
BBX 12 29 3 0
BITMAP
0010
0020
0040
0080
0E80
1300
2100
0080
0000
0000
FFC0
8000
8000
8000
8000
8000
8000
8000
8000
FFC0
8000
8000
8000
8000
8000
8000
8000
8000
FFE0
ENDCHAR
STARTCHAR 1EBF
ENCODING 7871
SWIDTH 504 0
DWIDTH 14 0
BBX 12 24 2 0
BITMAP
0010
0020
0040
0080
0E80
1100
2080
0000
0000
0000
3F00
40C0
8040
8020
8020
8020
FFE0
8000
8000
8000
8020
8060
4040
3F80
ENDCHAR
STARTCHAR 1EC0
ENCODING 7872
SWIDTH 540 0
DWIDTH 15 0
BBX 12 29 2 0
BITMAP
8000
4000
4000
2000
0700
0980
1080
0040
0000
0000
7FE0
4000
4000
4000
4000
4000
4000
4000
4000
7FE0
4000
4000
4000
4000
4000
4000
4000
4000
7FF0
ENDCHAR
STARTCHAR 1EC1
ENCODING 7873
SWIDTH 504 0
DWIDTH 14 0
BBX 12 24 1 0
BITMAP
8000
4000
4000
2000
1700
0880
1040
0000
0000
0000
1F80
2060
4020
4010
8010
8010
7FF0
8000
8000
8000
4010
4030
2020
1FC0
ENDCHAR
STARTCHAR 1EC2
ENCODING 7874
SWIDTH 540 0
DWIDTH 15 0
BBX 11 29 3 0
BITMAP
03C0
0020
0040
0080
0E80
1300
2100
0080
0000
0000
FFC0
8000
8000
8000
8000
8000
8000
8000
8000
FFC0
8000
8000
8000
8000
8000
8000
8000
8000
FFE0
ENDCHAR
STARTCHAR 1EC3
ENCODING 7875
SWIDTH 504 0
DWIDTH 14 0
BBX 11 24 2 0
BITMAP
01E0
0020
0040
0040
0E80
1100
2080
0000
0000
0000
3F00
40C0
8040
8020
8020
8020
FFE0
8000
8000
8000
8020
8060
4040
3F80
ENDCHAR
STARTCHAR 1EC4
ENCODING 7876
SWIDTH 540 0
DWIDTH 15 0
BBX 11 29 3 0
BITMAP
1000
6C00
0280
0000
0E00
1300
2100
0080
0000
0000
FFC0
8000
8000
8000
8000
8000
8000
8000
8000
FFC0
8000
8000
8000
8000
8000
8000
8000
8000
FFE0
ENDCHAR
STARTCHAR 1EC5
ENCODING 7877
SWIDTH 504 0
DWIDTH 14 0
BBX 11 24 2 0
BITMAP
1000
6C40
0380
0000
0E00
1100
2080
0000
0000
0000
3F00
40C0
8040
8020
8020
8020
FFE0
8000
8000
8000
8020
8060
4040
3F80
ENDCHAR
STARTCHAR 1EC6
ENCODING 7878
SWIDTH 540 0
DWIDTH 15 0
BBX 11 30 3 -4
BITMAP
0400
0A00
1100
2080
0000
0000
0000
FFC0
8000
8000
8000
8000
8000
8000
8000
8000
FFC0
8000
8000
8000
8000
8000
8000
8000
8000
FFE0
0000
0000
0400
0400
ENDCHAR
STARTCHAR 1EC7
ENCODING 7879
SWIDTH 504 0
DWIDTH 14 0
BBX 11 25 2 -4
BITMAP
0400
0A00
1100
2080
0000
0000
0000
3F00
40C0
8040
8020
8020
8020
FFE0
8000
8000
8000
8020
8060
4040
3180
0E00
0000
0400
0400
ENDCHAR
STARTCHAR 1EC8
ENCODING 7880
SWIDTH 360 0
DWIDTH 10 0
BBX 6 25 2 0
BITMAP
38
08
10
00
00
00
FC
20
20
20
20
20
20
20
20
20
20
20
20
20
20
20
20
20
FC
ENDCHAR
STARTCHAR 1EC9
ENCODING 7881
SWIDTH 216 0
DWIDTH 6 0
BBX 3 20 2 0
BITMAP
E0
20
40
40
00
00
40
40
40
40
40
40
40
40
40
40
40
40
40
40
ENDCHAR
STARTCHAR 1ECA
ENCODING 7882
SWIDTH 360 0
DWIDTH 10 0
BBX 6 23 2 -4
BITMAP
FC
20
20
20
20
20
20
20
20
20
20
20
20
20
20
20
20
20
FC
00
00
10
10
ENDCHAR
STARTCHAR 1ECB
ENCODING 7883
SWIDTH 216 0
DWIDTH 6 0
BBX 1 24 3 -4
BITMAP
80
00
00
00
00
00
80
80
80
80
80
80
80
80
80
80
80
80
80
80
00
00
80
80
ENDCHAR
STARTCHAR 1ECC
ENCODING 7884
SWIDTH 648 0
DWIDTH 18 0
BBX 15 24 2 -4
BITMAP
0780
1870
2008
4004
4004
8004
8002
8002
8002
8002
8002
8002
8002
8002
8002
8004
4004
4008
2010
1860
0780
0000
0100
0100
ENDCHAR
STARTCHAR 1ECD
ENCODING 7885
SWIDTH 540 0
DWIDTH 15 0
BBX 11 18 2 -4
BITMAP
3F80
4040
8040
8020
8020
8020
8020
8020
8020
8020
8020
8040
4040
3180
0E00
0000
0400
0400
ENDCHAR
STARTCHAR 1ECE
ENCODING 7886
SWIDTH 648 0
DWIDTH 18 0
BBX 15 25 2 0
BITMAP
03C0
0080
0100
0100
0000
0780
1870
2008
4004
4004
8004
8002
8002
8002
8002
8002
8002
8002
8002
8002
8004
4004
4008
2010
1FE0
ENDCHAR
STARTCHAR 1ECF
ENCODING 7887
SWIDTH 540 0
DWIDTH 15 0
BBX 11 20 2 0
BITMAP
0F00
0200
0400
0400
0000
0000
3F80
4040
8040
8020
8020
8020
8020
8020
8020
8020
8020
8040
4040
3F80
ENDCHAR
STARTCHAR 1ED0
ENCODING 7888
SWIDTH 648 0
DWIDTH 18 0
BBX 15 29 2 0
BITMAP
0004
0008
0010
0020
03A0
0440
0820
0000
0000
0780
1870
2008
4004
4004
8004
8002
8002
8002
8002
8002
8002
8002
8002
8002
8004
4004
4008
2010
1FE0
ENDCHAR
STARTCHAR 1ED1
ENCODING 7889
SWIDTH 540 0
DWIDTH 15 0
BBX 12 24 2 0
BITMAP
0010
0020
0040
0040
0E80
1100
2080
0000
0000
0000
3F80
4040
8040
8020
8020
8020
8020
8020
8020
8020
8020
8040
4040
3F80
ENDCHAR
STARTCHAR 1ED2
ENCODING 7890
SWIDTH 648 0
DWIDTH 18 0
BBX 15 29 2 0
BITMAP
4000
2000
2000
1000
0B80
0440
0820
0000
0000
0780
1870
2008
4004
4004
8004
8002
8002
8002
8002
8002
8002
8002
8002
8002
8004
4004
4008
2010
1FE0
ENDCHAR
STARTCHAR 1ED3
ENCODING 7891
SWIDTH 540 0
DWIDTH 15 0
BBX 12 24 1 0
BITMAP
8000
4000
4000
2000
1700
0880
1040
0000
0000
0000
1FC0
2020
4020
4010
8010
8010
8010
8010
8010
8010
4010
4020
2020
1FC0
ENDCHAR
STARTCHAR 1ED4
ENCODING 7892
SWIDTH 648 0
DWIDTH 18 0
BBX 15 29 2 0
BITMAP
0078
0008
0010
0010
03A0
0440
0820
0000
0000
0780
1870
2008
4004
4004
8004
8002
8002
8002
8002
8002
8002
8002
8002
8002
8004
4004
4008
2010
1FE0
ENDCHAR
STARTCHAR 1ED5
ENCODING 7893
SWIDTH 540 0
DWIDTH 15 0
BBX 11 24 2 0
BITMAP
01E0
0020
0040
0040
0E80
1100
2080
0000
0000
0000
3F80
4040
8040
8020
8020
8020
8020
8020
8020
8020
8020
8040
4040
3F80
ENDCHAR
STARTCHAR 1ED6
ENCODING 7894
SWIDTH 648 0
DWIDTH 18 0
BBX 15 29 2 0
BITMAP
0400
1B10
00E0
0000
0380
0440
0820
0000
0000
0780
1870
2008
4004
4004
8004
8002
8002
8002
8002
8002
8002
8002
8002
8002
8004
4004
4008
2010
1FE0
ENDCHAR
STARTCHAR 1ED7
ENCODING 7895
SWIDTH 540 0
DWIDTH 15 0
BBX 11 24 2 0
BITMAP
1000
6C40
0380
0000
0E00
1100
2080
0000
0000
0000
3F80
4040
8040
8020
8020
8020
8020
8020
8020
8020
8020
8040
4040
3F80
ENDCHAR
STARTCHAR 1ED8
ENCODING 7896
SWIDTH 648 0
DWIDTH 18 0
BBX 15 30 2 -4
BITMAP
0100
0280
0440
0820
0000
0000
0780
1870
2008
4004
4004
8004
8002
8002
8002
8002
8002
8002
8002
8002
8002
8004
4004
4008
2010
1860
0780
0000
0100
0100
ENDCHAR
STARTCHAR 1ED9
ENCODING 7897
SWIDTH 540 0
DWIDTH 15 0
BBX 11 25 2 -4
BITMAP
0400
0A00
1100
2080
0000
0000
0000
3F80
4040
8040
8020
8020
8020
8020
8020
8020
8020
8020
8040
4040
3180
0E00
0000
0400
0400
ENDCHAR
STARTCHAR 1EDA
ENCODING 7898
SWIDTH 648 0
DWIDTH 18 0
BBX 15 26 2 0
BITMAP
0040
0080
0080
0102
0002
0002
07C2
183C
2008
4008
4004
8004
8002
8002
8002
8002
8002
8002
8002
8002
8002
8004
4004
4008
2010
1FE0
ENDCHAR
STARTCHAR 1EDB
ENCODING 7899
SWIDTH 540 0
DWIDTH 15 0
BBX 11 21 2 0
BITMAP
0100
0200
0200
0400
0000
0020
0020
3FC0
4040
8040
8020
8020
8020
8020
8020
8020
8020
8020
8040
4040
3F80
ENDCHAR
STARTCHAR 1EDC
ENCODING 7900
SWIDTH 648 0
DWIDTH 18 0
BBX 15 26 2 0
BITMAP
0400
0400
0200
0102
0002
0002
07C2
183C
2008
4008
4004
8004
8002
8002
8002
8002
8002
8002
8002
8002
8002
8004
4004
4008
2010
1FE0
ENDCHAR
STARTCHAR 1EDD
ENCODING 7901
SWIDTH 540 0
DWIDTH 15 0
BBX 11 21 2 0
BITMAP
1000
1000
0800
0400
0000
0020
0020
3FC0
4040
8040
8020
8020
8020
8020
8020
8020
8020
8020
8040
4040
3F80
ENDCHAR
STARTCHAR 1EDE
ENCODING 7902
SWIDTH 648 0
DWIDTH 18 0
BBX 15 25 2 0
BITMAP
03C0
0080
0102
0102
0002
07C2
183C
2008
4008
4004
8004
8002
8002
8002
8002
8002
8002
8002
8002
8002
8004
4004
4008
2010
1FE0
ENDCHAR
STARTCHAR 1EDF
ENCODING 7903
SWIDTH 540 0
DWIDTH 15 0
BBX 11 20 2 0
BITMAP
0F00
0200
0400
0400
0020
0020
3FC0
4040
8040
8020
8020
8020
8020
8020
8020
8020
8020
8040
4040
3F80
ENDCHAR
STARTCHAR 1EE0
ENCODING 7904
SWIDTH 648 0
DWIDTH 18 0
BBX 15 24 2 1
BITMAP
0F10
00E2
0002
0002
07C2
183C
2008
4008
4004
8004
8002
8002
8002
8002
8002
8002
8002
8002
8002
8004
4004
4008
2010
1FE0
ENDCHAR
STARTCHAR 1EE1
ENCODING 7905
SWIDTH 540 0
DWIDTH 15 0
BBX 11 19 2 1
BITMAP
7C40
0380
0000
0020
0020
3FC0
4040
8040
8020
8020
8020
8020
8020
8020
8020
8020
8040
4040
3F80
ENDCHAR
STARTCHAR 1EE2
ENCODING 7906
SWIDTH 648 0
DWIDTH 18 0
BBX 15 27 2 -4
BITMAP
0002
0002
0002
07C2
183C
2008
4008
4004
8004
8002
8002
8002
8002
8002
8002
8002
8002
8002
8004
4004
4008
2010
1860
0780
0000
0100
0100
ENDCHAR
STARTCHAR 1EE3
ENCODING 7907
SWIDTH 540 0
DWIDTH 15 0
BBX 11 20 2 -3
BITMAP
0020
0020
3FC0
4040
8040
8020
8020
8020
8020
8020
8020
8020
8020
8040
4040
3180
0E00
0000
0400
0400
ENDCHAR
STARTCHAR 1EE4
ENCODING 7908
SWIDTH 648 0
DWIDTH 18 0
BBX 12 23 3 -4
BITMAP
8010
8010
8010
8010
8010
8010
8010
8010
8010
8010
8010
8010
8010
8010
8010
8010
8010
4020
30C0
0F00
0000
0200
0200
ENDCHAR
STARTCHAR 1EE5
ENCODING 7909
SWIDTH 540 0
DWIDTH 15 0
BBX 10 18 3 -4
BITMAP
8040
8040
8040
8040
8040
8040
8040
8040
8040
8040
8040
8040
80C0
6340
1C00
0000
0800
0800
ENDCHAR
STARTCHAR 1EE6
ENCODING 7910
SWIDTH 648 0
DWIDTH 18 0
BBX 12 25 3 0
BITMAP
0F00
0100
0200
0000
0000
0000
8010
8010
8010
8010
8010
8010
8010
8010
8010
8010
8010
8010
8010
8010
8010
8010
8010
4020
3FC0
ENDCHAR
STARTCHAR 1EE7
ENCODING 7911
SWIDTH 540 0
DWIDTH 15 0
BBX 10 20 3 0
BITMAP
1E00
0400
0400
0800
0000
0000
8040
8040
8040
8040
8040
8040
8040
8040
8040
8040
8040
8040
80C0
7F40
ENDCHAR
STARTCHAR 1EE8
ENCODING 7912
SWIDTH 648 0
DWIDTH 18 0
BBX 15 26 3 0
BITMAP
0080
0100
0200
0400
0402
0002
0004
8018
8010
8010
8010
8010
8010
8010
8010
8010
8010
8010
8010
8010
8010
8010
8010
8010
4020
3FC0
ENDCHAR
STARTCHAR 1EE9
ENCODING 7913
SWIDTH 540 0
DWIDTH 15 0
BBX 12 20 3 1
BITMAP
0200
0400
0800
0010
0010
0010
8060
8040
8040
8040
8040
8040
8040
8040
8040
8040
8040
8040
80C0
7F40
ENDCHAR
STARTCHAR 1EEA
ENCODING 7914
SWIDTH 648 0
DWIDTH 18 0
BBX 15 26 3 0
BITMAP
1000
0800
0400
0400
0202
0002
0004
8018
8010
8010
8010
8010
8010
8010
8010
8010
8010
8010
8010
8010
8010
8010
8010
8010
4020
3FC0
ENDCHAR
STARTCHAR 1EEB
ENCODING 7915
SWIDTH 540 0
DWIDTH 15 0
BBX 12 21 3 0
BITMAP
2000
2000
1000
0800
0010
0010
0010
8060
8040
8040
8040
8040
8040
8040
8040
8040
8040
8040
8040
80C0
7F40
ENDCHAR
STARTCHAR 1EEC
ENCODING 7916
SWIDTH 648 0
DWIDTH 18 0
BBX 15 25 3 0
BITMAP
0F00
0100
0200
0002
0002
0004
8018
8010
8010
8010
8010
8010
8010
8010
8010
8010
8010
8010
8010
8010
8010
8010
8010
4020
3FC0
ENDCHAR
STARTCHAR 1EED
ENCODING 7917
SWIDTH 540 0
DWIDTH 15 0
BBX 12 20 3 0
BITMAP
1E00
0400
0400
0810
0010
0010
8060
8040
8040
8040
8040
8040
8040
8040
8040
8040
8040
8040
80C0
7F40
ENDCHAR
STARTCHAR 1EEE
ENCODING 7918
SWIDTH 648 0
DWIDTH 18 0
BBX 15 24 3 1
BITMAP
3E00
01C0
0002
0002
0004
8018
8010
8010
8010
8010
8010
8010
8010
8010
8010
8010
8010
8010
8010
8010
8010
8010
4020
3FC0
ENDCHAR
STARTCHAR 1EEF
ENCODING 7919
SWIDTH 540 0
DWIDTH 15 0
BBX 12 19 3 1
BITMAP
7880
0700
0010
0010
0010
8060
8040
8040
8040
8040
8040
8040
8040
8040
8040
8040
8040
80C0
7F40
ENDCHAR
STARTCHAR 1EF0
ENCODING 7920
SWIDTH 648 0
DWIDTH 18 0
BBX 15 26 3 -4
BITMAP
0002
0002
0004
8018
8010
8010
8010
8010
8010
8010
8010
8010
8010
8010
8010
8010
8010
8010
8010
8010
4020
30C0
0F00
0000
0000
0200
ENDCHAR
STARTCHAR 1EF1
ENCODING 7921
SWIDTH 540 0
DWIDTH 15 0
BBX 12 21 3 -4
BITMAP
0010
0010
0010
8060
8040
8040
8040
8040
8040
8040
8040
8040
8040
8040
8040
80C0
6340
1C00
0000
0800
0800
ENDCHAR
STARTCHAR 1EF2
ENCODING 7922
SWIDTH 540 0
DWIDTH 15 0
BBX 13 26 1 0
BITMAP
0800
0800
0400
0200
0000
0000
0000
8008
8010
4010
2020
2020
1040
1080
0880
0500
0500
0200
0200
0200
0200
0200
0200
0200
0200
0200
ENDCHAR
STARTCHAR 1EF3
ENCODING 7923
SWIDTH 432 0
DWIDTH 12 0
BBX 11 26 1 -5
BITMAP
1000
0800
0400
0000
0000
0000
8020
8040
8040
4040
4080
4080
2100
2100
2100
1200
1200
0A00
0C00
0400
0800
0800
0800
1000
1000
6000
ENDCHAR
STARTCHAR 1EF4
ENCODING 7924
SWIDTH 540 0
DWIDTH 15 0
BBX 13 23 1 -4
BITMAP
8008
8010
4010
2020
2020
1040
1080
0880
0500
0500
0200
0200
0200
0200
0200
0200
0200
0200
0200
0000
0000
0200
0200
ENDCHAR
STARTCHAR 1EF5
ENCODING 7925
SWIDTH 432 0
DWIDTH 12 0
BBX 11 20 1 -6
BITMAP
8020
8040
8040
4040
4080
4080
2100
2100
2100
1200
1200
0A00
0C00
0400
0800
0800
0800
1080
1000
6000
ENDCHAR
STARTCHAR 1EF6
ENCODING 7926
SWIDTH 540 0
DWIDTH 15 0
BBX 13 25 1 0
BITMAP
0780
0100
0100
0200
0000
0000
8008
8010
4010
2020
2020
1040
1080
0880
0500
0500
0200
0200
0200
0200
0200
0200
0200
0200
0200
ENDCHAR
STARTCHAR 1EF7
ENCODING 7927
SWIDTH 432 0
DWIDTH 12 0
BBX 11 26 1 -6
BITMAP
0F00
0200
0400
0400
0000
0000
8020
8040
8040
4040
4080
4080
2100
2100
2100
1200
1200
0A00
0C00
0400
0800
0800
0800
1000
1000
6000
ENDCHAR
STARTCHAR 1EF8
ENCODING 7928
SWIDTH 540 0
DWIDTH 15 0
BBX 13 24 1 1
BITMAP
1E20
01C0
0000
0000
0000
8008
8010
4010
2020
2020
1040
1080
0880
0500
0500
0200
0200
0200
0200
0200
0200
0200
0200
0200
ENDCHAR
STARTCHAR 1EF9
ENCODING 7929
SWIDTH 432 0
DWIDTH 12 0
BBX 11 26 1 -6
BITMAP
1000
6C00
0380
0000
0000
0000
8020
8040
8040
4040
4080
4080
2100
2100
2100
1200
1200
0A00
0C00
0400
0800
0800
0800
1000
1000
6000
ENDCHAR
STARTCHAR 2013
ENCODING 8211
SWIDTH 576 0
DWIDTH 16 0
BBX 14 1 1 8
BITMAP
FFFC
ENDCHAR
STARTCHAR 2014
ENCODING 8212
SWIDTH 756 0
DWIDTH 21 0
BBX 20 1 1 8
BITMAP
FFFFF0
ENDCHAR
STARTCHAR 2018
ENCODING 8216
SWIDTH 216 0
DWIDTH 6 0
BBX 3 5 2 16
BITMAP
60
40
80
80
C0
ENDCHAR
STARTCHAR 2019
ENCODING 8217
SWIDTH 216 0
DWIDTH 6 0
BBX 2 5 2 15
BITMAP
40
40
40
40
80
ENDCHAR
STARTCHAR 201A
ENCODING 8218
SWIDTH 216 0
DWIDTH 6 0
BBX 2 5 2 -4
BITMAP
40
40
40
40
80
ENDCHAR
STARTCHAR 201C
ENCODING 8220
SWIDTH 396 0
DWIDTH 11 0
BBX 8 6 2 15
BITMAP
01
62
44
84
84
C4
ENDCHAR
STARTCHAR 201D
ENCODING 8221
SWIDTH 396 0
DWIDTH 11 0
BBX 7 6 2 15
BITMAP
46
46
42
44
84
08
ENDCHAR
STARTCHAR 201E
ENCODING 8222
SWIDTH 396 0
DWIDTH 11 0
BBX 7 6 2 -4
BITMAP
44
46
44
44
88
08
ENDCHAR
STARTCHAR 2020
ENCODING 8224
SWIDTH 540 0
DWIDTH 15 0
BBX 11 27 2 -6
BITMAP
0400
0400
0400
0400
0400
0400
0400
FFE0
0400
0400
0400
0400
0400
0400
0400
0400
0400
0400
0400
0400
0400
0400
0400
0400
0400
0400
0400
ENDCHAR
STARTCHAR 2021
ENCODING 8225
SWIDTH 540 0
DWIDTH 15 0
BBX 11 27 2 -6
BITMAP
0400
0400
0400
0400
0400
0400
0400
FFE0
0400
0400
0400
0400
0400
0400
0400
0400
0400
0400
0400
0400
FFE0
0400
0400
0400
0400
0400
0400
ENDCHAR
STARTCHAR 2022
ENCODING 8226
SWIDTH 324 0
DWIDTH 9 0
BBX 5 5 2 6
BITMAP
70
F8
F8
F8
70
ENDCHAR
STARTCHAR 2026
ENCODING 8230
SWIDTH 720 0
DWIDTH 20 0
BBX 14 1 3 0
BITMAP
8304
ENDCHAR
STARTCHAR 2030
ENCODING 8240
SWIDTH 1224 0
DWIDTH 34 0
BBX 30 20 2 0
BITMAP
18000000
66008000
82010000
81020000
81020000
81040000
81080000
81080000
82100000
42200000
3C43E0F8
00441104
00881204
01081204
01081204
02081204
04081204
04081204
08041104
1003E0F8
ENDCHAR
STARTCHAR 2032
ENCODING 8242
SWIDTH 216 0
DWIDTH 6 0
BBX 2 8 2 11
BITMAP
40
40
40
80
80
80
80
80
ENDCHAR
STARTCHAR 2033
ENCODING 8243
SWIDTH 360 0
DWIDTH 10 0
BBX 6 8 2 11
BITMAP
44
44
44
84
84
88
88
88
ENDCHAR
STARTCHAR 2039
ENCODING 8249
SWIDTH 288 0
DWIDTH 8 0
BBX 6 10 1 3
BITMAP
08
10
20
40
80
80
40
20
10
0C
ENDCHAR
STARTCHAR 203A
ENCODING 8250
SWIDTH 288 0
DWIDTH 8 0
BBX 6 10 1 3
BITMAP
40
20
10
08
04
04
08
10
60
80
ENDCHAR
STARTCHAR 2044
ENCODING 8260
SWIDTH 144 0
DWIDTH 4 0
BBX 12 19 -4 0
BITMAP
0010
0020
0020
0040
0080
0080
0100
0100
0200
0400
0400
0800
1000
1000
2000
4000
4000
8000
8000
ENDCHAR
STARTCHAR 2070
ENCODING 8304
SWIDTH 360 0
DWIDTH 10 0
BBX 7 11 2 9
BITMAP
10
EC
84
82
82
82
82
82
82
84
78
ENDCHAR
STARTCHAR 2074
ENCODING 8308
SWIDTH 324 0
DWIDTH 9 0
BBX 7 10 1 9
BITMAP
04
1C
14
24
44
84
84
7E
04
04
ENDCHAR
STARTCHAR 2075
ENCODING 8309
SWIDTH 324 0
DWIDTH 9 0
BBX 7 10 1 9
BITMAP
FC
80
80
80
7C
02
02
02
82
7C
ENDCHAR
STARTCHAR 2076
ENCODING 8310
SWIDTH 360 0
DWIDTH 10 0
BBX 7 10 2 9
BITMAP
30
40
80
80
FC
84
82
82
84
78
ENDCHAR
STARTCHAR 2077
ENCODING 8311
SWIDTH 324 0
DWIDTH 9 0
BBX 7 9 1 9
BITMAP
FE
82
84
04
08
08
10
10
10
ENDCHAR
STARTCHAR 2078
ENCODING 8312
SWIDTH 396 0
DWIDTH 11 0
BBX 7 11 2 9
BITMAP
10
EC
82
82
82
7C
C6
82
82
82
7C
ENDCHAR
STARTCHAR 2079
ENCODING 8313
SWIDTH 360 0
DWIDTH 10 0
BBX 7 10 1 10
BITMAP
66
82
82
82
42
3E
04
04
08
10
ENDCHAR
STARTCHAR 2080
ENCODING 8320
SWIDTH 360 0
DWIDTH 10 0
BBX 7 10 2 0
BITMAP
7C
84
82
82
82
82
82
82
84
7C
ENDCHAR
STARTCHAR 2081
ENCODING 8321
SWIDTH 360 0
DWIDTH 10 0
BBX 7 10 1 0
BITMAP
18
28
C8
08
08
08
08
08
08
3E
ENDCHAR
STARTCHAR 2082
ENCODING 8322
SWIDTH 324 0
DWIDTH 9 0
BBX 7 10 1 0
BITMAP
7C
82
02
02
04
04
18
20
40
FC
ENDCHAR
STARTCHAR 2083
ENCODING 8323
SWIDTH 324 0
DWIDTH 9 0
BBX 7 10 1 0
BITMAP
7C
02
02
04
38
04
02
02
82
7C
ENDCHAR
STARTCHAR 2084
ENCODING 8324
SWIDTH 324 0
DWIDTH 9 0
BBX 8 10 1 0
BITMAP
04
1C
14
24
44
84
84
FF
04
04
ENDCHAR
STARTCHAR 2085
ENCODING 8325
SWIDTH 324 0
DWIDTH 9 0
BBX 7 10 1 0
BITMAP
FC
80
80
80
BC
42
02
02
82
7C
ENDCHAR
STARTCHAR 2086
ENCODING 8326
SWIDTH 360 0
DWIDTH 10 0
BBX 7 10 2 0
BITMAP
30
40
40
80
F8
84
82
82
84
78
ENDCHAR
STARTCHAR 2087
ENCODING 8327
SWIDTH 324 0
DWIDTH 9 0
BBX 7 10 1 0
BITMAP
FE
82
84
04
08
08
08
10
10
20
ENDCHAR
STARTCHAR 2088
ENCODING 8328
SWIDTH 396 0
DWIDTH 11 0
BBX 7 10 2 0
BITMAP
7C
82
82
82
7C
C6
82
82
82
7C
ENDCHAR
STARTCHAR 2089
ENCODING 8329
SWIDTH 360 0
DWIDTH 10 0
BBX 7 10 1 0
BITMAP
7E
82
82
82
42
3E
04
04
08
10
ENDCHAR
STARTCHAR 20A1
ENCODING 8353
SWIDTH 576 0
DWIDTH 16 0
BBX 13 23 2 -1
BITMAP
0440
0440
1FE0
2450
4448
4488
8480
8880
8880
8880
8880
8880
8880
8900
8900
9100
9100
5108
5110
3120
1FC0
1200
1200
ENDCHAR
STARTCHAR 20A4
ENCODING 8356
SWIDTH 576 0
DWIDTH 16 0
BBX 12 20 2 0
BITMAP
0380
1860
2010
4000
4000
4000
4000
4000
FFC0
2000
2000
2000
FFC0
1000
1000
2000
2000
2000
4000
FFF0
ENDCHAR
STARTCHAR 20A6
ENCODING 8358
SWIDTH 648 0
DWIDTH 18 0
BBX 18 19 0 0
BITMAP
100200
180200
140200
140200
120200
120200
110200
7EFFC0
108200
104200
104200
FFFFC0
102200
101200
100A00
100A00
100600
100600
100200
ENDCHAR
STARTCHAR 20A8
ENCODING 8360
SWIDTH 684 0
DWIDTH 19 0
BBX 16 19 3 0
BITMAP
FC00
8200
8100
8100
8100
8100
811E
8220
8220
FC20
8820
8410
8408
8206
8202
8101
8101
8081
807E
ENDCHAR
STARTCHAR 20A9
ENCODING 8361
SWIDTH 900 0
DWIDTH 25 0
BBX 23 19 1 0
BITMAP
803002
803004
402804
402804
404808
404408
204408
FFFFFE
208410
208210
108210
FFFFFE
110120
090120
0A0120
0A0120
0A00C0
0600C0
040040
ENDCHAR
STARTCHAR 20AA
ENCODING 8362
SWIDTH 756 0
DWIDTH 21 0
BBX 15 19 3 0
BITMAP
FF82
8042
8042
8442
8442
8442
8442
8442
8442
8442
8442
8442
8442
8442
8442
8402
8402
8402
87FC
ENDCHAR
STARTCHAR 20AB
ENCODING 8363
SWIDTH 540 0
DWIDTH 15 0
BBX 12 21 2 0
BITMAP
0020
0020
0020
03F0
0020
0020
3F20
40A0
8060
8020
8020
8020
8020
8020
8020
8020
40E0
3120
0E00
0000
FFE0
ENDCHAR
STARTCHAR 20AC
ENCODING 8364
SWIDTH 576 0
DWIDTH 16 0
BBX 13 20 2 0
BITMAP
0780
1860
2010
4008
4000
8000
8000
8000
FF00
8000
8000
8000
FF00
8000
8000
8000
4008
4008
2010
1FE0
ENDCHAR
STARTCHAR 20AD
ENCODING 8365
SWIDTH 540 0
DWIDTH 15 0
BBX 15 19 0 0
BITMAP
1004
1008
1010
1020
1040
1040
1080
1100
FFFC
1100
1100
1080
1040
1020
1020
1010
1008
1004
1002
ENDCHAR
STARTCHAR 20AE
ENCODING 8366
SWIDTH 576 0
DWIDTH 16 0
BBX 14 19 1 0
BITMAP
FFFC
0200
0200
0200
0200
0210
0260
0180
0600
1A10
0260
0180
0600
1A00
0200
0200
0200
0200
0200
ENDCHAR
STARTCHAR 20B1
ENCODING 8369
SWIDTH 576 0
DWIDTH 16 0
BBX 16 19 0 0
BITMAP
1FF0
1008
1004
FFFF
1004
1004
1004
1004
7FFF
1004
1008
1FF0
1000
1000
1000
1000
1000
1000
1000
ENDCHAR
STARTCHAR 20B2
ENCODING 8370
SWIDTH 612 0
DWIDTH 17 0
BBX 14 23 2 -1
BITMAP
0080
0080
1FE0
2090
4088
4100
8100
8100
8100
8100
8100
8200
83FC
8204
8204
8204
8204
4208
2408
1410
0FE0
0400
0400
ENDCHAR
STARTCHAR 20B4
ENCODING 8372
SWIDTH 612 0
DWIDTH 17 0
BBX 14 20 1 0
BITMAP
0380
0C60
3010
0010
0010
0010
0010
0010
7FEC
0080
0300
0400
FFFC
2000
2000
2000
2000
2008
1010
0FE0
ENDCHAR
STARTCHAR 20B5
ENCODING 8373
SWIDTH 576 0
DWIDTH 16 0
BBX 13 24 2 -2
BITMAP
0080
0080
0080
1FE0
2110
4108
4108
8100
8100
8100
8200
8200
8200
8200
8200
8200
8200
8400
4408
4410
3420
0FC0
0400
0800
ENDCHAR
STARTCHAR 20B8
ENCODING 8376
SWIDTH 576 0
DWIDTH 16 0
BBX 13 19 2 0
BITMAP
FFF8
0000
0000
0000
FFF8
0200
0200
0200
0200
0200
0200
0200
0200
0200
0200
0200
0200
0200
0200
ENDCHAR
STARTCHAR 20B9
ENCODING 8377
SWIDTH 576 0
DWIDTH 16 0
BBX 14 19 2 0
BITMAP
FFFC
0040
0020
0020
FFFC
0020
0020
0040
0040
FF80
0400
0200
0200
0100
0080
0040
0040
0020
0010
ENDCHAR
STARTCHAR 20BA
ENCODING 8378
SWIDTH 576 0
DWIDTH 16 0
BBX 14 19 1 0
BITMAP
1000
1000
1000
1080
1300
1C00
3000
D0C0
1300
1C00
3000
D004
1004
1004
1004
1008
1008
1010
1FE0
ENDCHAR
STARTCHAR 20BD
ENCODING 8381
SWIDTH 576 0
DWIDTH 16 0
BBX 15 19 0 0
BITMAP
1FFC
1004
1002
1002
1002
1002
1002
1002
1004
FFF8
1000
1000
1000
1000
7FC0
1000
1000
1000
1000
ENDCHAR
STARTCHAR 20BF
ENCODING 8383
SWIDTH 576 0
DWIDTH 16 0
BBX 12 24 3 -2
BITMAP
1000
1200
1200
FF00
8040
8020
8020
8020
8020
8020
8040
8180
FE40
8020
8010
8010
8010
8010
8010
8020
8040
7F80
1200
1200
ENDCHAR
STARTCHAR 2113
ENCODING 8467
SWIDTH 432 0
DWIDTH 12 0
BBX 10 21 1 0
BITMAP
0E00
1100
2100
2080
2080
2100
2100
2100
2100
2200
2200
2400
2800
2800
3000
2000
E000
2000
2040
1040
0F80
ENDCHAR
STARTCHAR 2116
ENCODING 8470
SWIDTH 1008 0
DWIDTH 28 0
BBX 24 20 3 0
BITMAP
000018
800862
C00881
A00881
A00881
900881
880881
880881
840842
84083C
820800
810800
81087E
808800
804800
804800
802800
802800
801800
800800
ENDCHAR
STARTCHAR 2122
ENCODING 8482
SWIDTH 612 0
DWIDTH 17 0
BBX 13 7 2 12
BITMAP
F108
4198
4198
4168
4128
4108
4100
ENDCHAR
STARTCHAR 2126
ENCODING 8486
SWIDTH 684 0
DWIDTH 19 0
BBX 15 20 2 0
BITMAP
03C0
1C30
2008
4004
4004
8002
8002
8002
8002
8002
8002
8002
8002
8002
4006
4004
2008
1010
0820
FC3E
ENDCHAR
STARTCHAR 212E
ENCODING 8494
SWIDTH 684 0
DWIDTH 19 0
BBX 17 20 1 0
BITMAP
01E000
0E1800
100400
200200
400100
400100
400080
C00080
C00080
C00080
FFFF00
C00000
C00000
400000
400000
400000
200100
200200
100400
07F800
ENDCHAR
STARTCHAR 2150
ENCODING 8528
SWIDTH 864 0
DWIDTH 24 0
BBX 22 19 1 0
BITMAP
180040
680080
880080
080100
080200
080200
080400
080800
080800
7F11FC
002104
002108
004008
008010
008010
010020
010020
020020
040040
ENDCHAR
STARTCHAR 2151
ENCODING 8529
SWIDTH 864 0
DWIDTH 24 0
BBX 22 19 1 0
BITMAP
180040
680080
880080
080100
080200
080200
080400
080800
080800
7F10F8
002104
002104
004104
008104
0080FC
010008
010008
020010
040020
ENDCHAR
STARTCHAR 2153
ENCODING 8531
SWIDTH 864 0
DWIDTH 24 0
BBX 22 19 1 0
BITMAP
180040
680080
880080
080100
080200
080200
080400
080800
080800
7F10F8
002004
002004
004008
008070
008008
010004
010004
020104
0400F8
ENDCHAR
STARTCHAR 2154
ENCODING 8532
SWIDTH 828 0
DWIDTH 23 0
BBX 21 20 1 0
BITMAP
100000
640080
820100
020100
020200
040400
080400
100800
200800
401000
FE21F0
002008
004008
008008
0080F0
010018
020008
020008
040208
0401F0
ENDCHAR
STARTCHAR 2155
ENCODING 8533
SWIDTH 864 0
DWIDTH 24 0
BBX 22 19 1 0
BITMAP
180040
680080
880080
080100
080200
080200
080400
080800
080800
7F11F0
002100
002100
004100
0081F8
008004
010004
010004
020004
0401F8
ENDCHAR
STARTCHAR 2156
ENCODING 8534
SWIDTH 828 0
DWIDTH 23 0
BBX 21 20 1 0
BITMAP
100000
640080
820100
020100
020200
040400
080400
100800
200800
401000
FE23F0
002200
004200
008200
0082F0
010108
020008
020008
040208
0401F0
ENDCHAR
STARTCHAR 2157
ENCODING 8535
SWIDTH 828 0
DWIDTH 23 0
BBX 21 20 1 0
BITMAP
180000
640080
020100
020100
040200
380400
060400
020800
021000
821000
6C23E0
104200
004200
008200
0103F0
010008
020008
020008
040008
0803F0
ENDCHAR
STARTCHAR 2158
ENCODING 8536
SWIDTH 828 0
DWIDTH 23 0
BBX 21 19 1 0
BITMAP
040080
1C0100
140100
240200
440200
840400
840800
7E0800
041000
0423F0
002200
004200
008200
0082F0
010108
020008
020008
040208
0401F0
ENDCHAR
STARTCHAR 2159
ENCODING 8537
SWIDTH 864 0
DWIDTH 24 0
BBX 22 19 1 0
BITMAP
180040
680080
880080
080100
080200
080200
080400
080800
080800
7F1020
002040
002080
004100
0081F8
008104
010104
010104
020104
0400F8
ENDCHAR
STARTCHAR 215A
ENCODING 8538
SWIDTH 828 0
DWIDTH 23 0
BBX 21 19 1 0
BITMAP
FC0080
800100
800200
800200
7C0400
020800
020800
021000
822000
6C2040
104080
004100
008200
0103F0
010210
020408
040408
040210
0801F0
ENDCHAR
STARTCHAR 215B
ENCODING 8539
SWIDTH 900 0
DWIDTH 25 0
BBX 23 19 1 0
BITMAP
180040
680080
880080
080100
080200
080200
080400
080800
080800
7F10FC
002102
002102
004084
008078
008084
010102
010102
020102
04007C
ENDCHAR
STARTCHAR 215C
ENCODING 8540
SWIDTH 864 0
DWIDTH 24 0
BBX 22 20 1 0
BITMAP
180000
640080
020100
020100
040200
380400
060400
020800
021000
821000
6C21F8
104204
004204
008108
0100F0
010108
020204
020204
040204
0800F8
ENDCHAR
STARTCHAR 215D
ENCODING 8541
SWIDTH 864 0
DWIDTH 24 0
BBX 22 19 1 0
BITMAP
FC0080
800100
800200
800200
7C0400
020800
020800
021000
822000
6C21F8
104208
004208
008208
0101F0
010108
020204
040204
040204
0801F8
ENDCHAR
STARTCHAR 215E
ENCODING 8542
SWIDTH 828 0
DWIDTH 23 0
BBX 21 19 1 0
BITMAP
FE0100
820200
840200
040400
080800
080800
101000
101000
102000
0041F0
004208
008208
010208
0101F0
020318
040408
040408
080408
0803F0
ENDCHAR
STARTCHAR 2190
ENCODING 8592
SWIDTH 720 0
DWIDTH 20 0
BBX 19 10 1 4
BITMAP
080000
100000
200000
400000
800000
FFFFE0
C00000
200000
100000
080000
ENDCHAR
STARTCHAR 2191
ENCODING 8593
SWIDTH 720 0
DWIDTH 20 0
BBX 11 20 5 0
BITMAP
0400
0E00
1500
2480
4440
8420
0400
0400
0400
0400
0400
0400
0400
0400
0400
0400
0400
0400
0400
0400
ENDCHAR
STARTCHAR 2192
ENCODING 8594
SWIDTH 720 0
DWIDTH 20 0
BBX 20 9 0 5
BITMAP
000100
000080
000040
000020
FFFFF0
000020
000040
000080
000100
ENDCHAR
STARTCHAR 2193
ENCODING 8595
SWIDTH 720 0
DWIDTH 20 0
BBX 9 19 6 0
BITMAP
0800
0800
0800
0800
0800
0800
0800
0800
0800
0800
0800
0800
0800
0800
0880
8900
4A00
2C00
1800
ENDCHAR
STARTCHAR 2194
ENCODING 8596
SWIDTH 720 0
DWIDTH 20 0
BBX 19 10 1 4
BITMAP
080000
100200
200100
400080
800040
FFFFE0
C00040
200080
100100
080200
ENDCHAR
STARTCHAR 2195
ENCODING 8597
SWIDTH 720 0
DWIDTH 20 0
BBX 11 20 5 0
BITMAP
0400
0E00
1500
2480
4440
8420
0400
0400
0400
0400
0400
0400
0400
0400
0400
0440
4480
2500
1600
0C00
ENDCHAR
STARTCHAR 2196
ENCODING 8598
SWIDTH 720 0
DWIDTH 20 0
BBX 14 14 4 3
BITMAP
FE00
C000
A000
9000
8800
8400
8200
0100
0080
0040
0020
0010
0008
0004
ENDCHAR
STARTCHAR 2197
ENCODING 8599
SWIDTH 720 0
DWIDTH 20 0
BBX 14 14 3 3
BITMAP
01FC
000C
0014
0024
0044
0084
0104
0200
0400
0800
1000
2000
4000
8000
ENDCHAR
STARTCHAR 2198
ENCODING 8600
SWIDTH 720 0
DWIDTH 20 0
BBX 14 14 3 3
BITMAP
8000
4000
2000
1000
0800
0400
0200
0104
0084
0044
0024
0014
000C
01FC
ENDCHAR
STARTCHAR 2199
ENCODING 8601
SWIDTH 720 0
DWIDTH 20 0
BBX 14 14 4 3
BITMAP
0004
0008
0010
0020
0040
0080
0100
8200
8400
8800
9000
A000
C000
FE00
ENDCHAR
STARTCHAR 21A9
ENCODING 8617
SWIDTH 720 0
DWIDTH 20 0
BBX 19 15 1 2
BITMAP
000300
0000C0
000020
000020
080020
100020
200020
400040
800040
FFFE80
800000
400000
200000
100000
080000
ENDCHAR
STARTCHAR 21AA
ENCODING 8618
SWIDTH 720 0
DWIDTH 20 0
BBX 20 14 0 2
BITMAP
1C0000
200000
400000
800000
800000
800100
800080
400040
200020
1FFFF0
000020
000040
000080
000100
ENDCHAR
STARTCHAR 21B0
ENCODING 8624
SWIDTH 720 0
DWIDTH 20 0
BBX 13 19 3 1
BITMAP
1000
2000
4000
8000
FFF8
8008
4008
2008
1008
0808
0008
0008
0008
0008
0008
0008
0008
0008
0008
ENDCHAR
STARTCHAR 21B1
ENCODING 8625
SWIDTH 720 0
DWIDTH 20 0
BBX 13 19 5 1
BITMAP
0080
0040
0020
0010
FFF8
8010
8020
8040
8080
8000
8000
8000
8000
8000
8000
8000
8000
8000
8000
ENDCHAR
STARTCHAR 21B2
ENCODING 8626
SWIDTH 720 0
DWIDTH 20 0
BBX 13 19 3 0
BITMAP
0008
0008
0008
0008
0008
0008
0008
0008
0008
0808
1008
2008
4008
8008
FFF0
4000
2000
1000
0800
ENDCHAR
STARTCHAR 21B3
ENCODING 8627
SWIDTH 720 0
DWIDTH 20 0
BBX 13 19 5 0
BITMAP
8000
8000
8000
8000
8000
8000
8000
8000
8000
8080
8040
8020
8010
8008
7FF8
0010
0020
0040
0080
ENDCHAR
STARTCHAR 21B6
ENCODING 8630
SWIDTH 792 0
DWIDTH 22 0
BBX 21 17 1 1
BITMAP
007F00
0180C0
020020
040010
040010
040010
080008
080008
080000
080000
080000
884000
488000
290000
1A0000
140000
080000
ENDCHAR
STARTCHAR 21B7
ENCODING 8631
SWIDTH 792 0
DWIDTH 22 0
BBX 21 17 1 1
BITMAP
0FE000
301800
400400
400200
800200
800200
800100
800100
000100
000100
000100
002108
001110
000920
000540
000380
000100
ENDCHAR
STARTCHAR 21BA
ENCODING 8634
SWIDTH 756 0
DWIDTH 21 0
BBX 18 19 2 0
BITMAP
007F00
005000
004800
104400
204200
404100
804080
800080
800080
800040
800040
800040
800080
800080
800080
400100
200200
100400
0FF800
ENDCHAR
STARTCHAR 21BB
ENCODING 8635
SWIDTH 756 0
DWIDTH 21 0
BBX 18 19 2 0
BITMAP
7F0000
030000
0D0000
110400
210200
410100
400080
800080
800080
800040
800040
800040
800080
800080
800080
400100
200300
100400
0FF800
ENDCHAR
STARTCHAR 21C4
ENCODING 8644
SWIDTH 720 0
DWIDTH 20 0
BBX 20 19 0 1
BITMAP
000100
000080
000040
000020
FFFFF0
000020
000040
000080
000100
040000
080000
100000
200000
400000
7FFFF0
200000
100000
080000
040000
ENDCHAR
STARTCHAR 21C6
ENCODING 8646
SWIDTH 720 0
DWIDTH 20 0
BBX 19 20 1 0
BITMAP
080000
100000
200000
400000
800000
FFFFE0
800000
400000
200000
100000
080200
000100
000080
000040
000020
FFFFE0
000040
000080
000100
000200
ENDCHAR
STARTCHAR 2202
ENCODING 8706
SWIDTH 576 0
DWIDTH 16 0
BBX 12 19 2 0
BITMAP
1800
0600
0100
0080
0040
0F40
30E0
4020
8020
8010
8010
8010
8010
8010
8010
8020
4020
2040
1F80
ENDCHAR
STARTCHAR 2206
ENCODING 8710
SWIDTH 576 0
DWIDTH 16 0
BBX 15 19 1 0
BITMAP
0100
0300
0480
0480
0440
0840
0840
0820
1020
1020
1010
2010
2010
2008
4008
4004
8004
8004
FFFE
ENDCHAR
STARTCHAR 220F
ENCODING 8719
SWIDTH 684 0
DWIDTH 19 0
BBX 15 25 2 -6
BITMAP
FFFE
2004
2004
2004
2004
2004
2004
2004
2004
2004
2004
2004
2004
2004
2004
2004
2004
2004
2004
2004
2004
2004
2004
2004
2004
ENDCHAR
STARTCHAR 2211
ENCODING 8721
SWIDTH 468 0
DWIDTH 13 0
BBX 12 25 0 -6
BITMAP
FFF0
4000
2000
1000
1000
0800
0400
0400
0200
0100
0080
0080
0080
0080
0100
0200
0200
0400
0800
1000
1000
2000
4000
4000
FFF0
ENDCHAR
STARTCHAR 2212
ENCODING 8722
SWIDTH 576 0
DWIDTH 16 0
BBX 13 1 2 8
BITMAP
FFF8
ENDCHAR
STARTCHAR 221A
ENCODING 8730
SWIDTH 576 0
DWIDTH 16 0
BBX 14 19 1 0
BITMAP
0004
0008
0008
0008
0010
F010
1010
1020
0820
0820
0840
0840
0440
0440
0480
0280
0280
0300
0100
ENDCHAR
STARTCHAR 221E
ENCODING 8734
SWIDTH 720 0
DWIDTH 20 0
BBX 19 10 1 3
BITMAP
7E1F80
812040
80C040
804040
808020
804020
80C040
812040
421080
3C0F00
ENDCHAR
STARTCHAR 222B
ENCODING 8747
SWIDTH 324 0
DWIDTH 9 0
BBX 7 27 1 -6
BITMAP
0E
10
10
10
10
10
10
10
10
10
10
10
10
10
10
10
10
10
10
10
10
10
10
10
10
10
F0
ENDCHAR
STARTCHAR 2248
ENCODING 8776
SWIDTH 576 0
DWIDTH 16 0
BBX 13 7 2 5
BITMAP
7800
8708
00D0
0000
0000
FC08
03F0
ENDCHAR
STARTCHAR 2260
ENCODING 8800
SWIDTH 576 0
DWIDTH 16 0
BBX 12 11 2 3
BITMAP
0040
0080
0100
FFF0
0200
0200
0400
0800
FFF0
1000
1000
ENDCHAR
STARTCHAR 2264
ENCODING 8804
SWIDTH 576 0
DWIDTH 16 0
BBX 12 16 2 0
BITMAP
0010
0060
0180
0600
1800
2000
C000
6000
1800
0600
0100
00C0
0030
0000
0000
FFF0
ENDCHAR
STARTCHAR 2265
ENCODING 8805
SWIDTH 576 0
DWIDTH 16 0
BBX 12 16 2 0
BITMAP
4000
3000
0C00
0300
0080
0060
0010
0020
00C0
0300
0C00
3000
4000
0000
0000
FFF0
ENDCHAR
STARTCHAR 25CA
ENCODING 9674
SWIDTH 576 0
DWIDTH 16 0
BBX 13 19 2 0
BITMAP
0600
0900
0880
1080
2040
2020
4020
8010
8008
8008
8010
4010
4020
2040
1040
1080
0900
0500
0200
ENDCHAR
STARTCHAR 2713
ENCODING 10003
SWIDTH 900 0
DWIDTH 25 0
BBX 17 19 4 0
BITMAP
000080
000080
000100
000100
000200
000200
800400
800400
400800
401000
201000
202000
102000
104000
084000
088000
048000
030000
030000
ENDCHAR
STARTCHAR 274C
ENCODING 10060
SWIDTH 900 0
DWIDTH 25 0
BBX 17 17 4 2
BITMAP
800080
400100
200200
100400
080800
041000
022000
014000
008000
014000
022000
041000
080800
100400
200200
400100
800080
ENDCHAR
STARTCHAR 2B0E
ENCODING 11022
SWIDTH 720 0
DWIDTH 20 0
BBX 20 13 0 3
BITMAP
FFFE00
000200
000200
000200
000200
000200
000200
000200
002210
001220
000A40
000680
000300
ENDCHAR
STARTCHAR 2B0F
ENCODING 11023
SWIDTH 720 0
DWIDTH 20 0
BBX 19 13 1 4
BITMAP
000600
000D00
001480
002440
004420
000400
000400
000400
000400
000400
000400
000400
FFFC00
ENDCHAR
STARTCHAR 2B10
ENCODING 11024
SWIDTH 720 0
DWIDTH 20 0
BBX 19 13 1 3
BITMAP
0FFFE0
080000
080000
080000
080000
080000
080000
080000
888000
490000
2A0000
1C0000
080000
ENDCHAR
STARTCHAR 2B11
ENCODING 11025
SWIDTH 720 0
DWIDTH 20 0
BBX 19 13 1 4
BITMAP
0C0000
1A0000
290000
488000
884000
080000
080000
080000
080000
080000
080000
080000
0FFFE0
ENDCHAR
STARTCHAR ECE0
ENCODING 60640
SWIDTH 1152 0
DWIDTH 32 0
BBX 28 20 2 0
BITMAP
00E00070
07E003F0
0FE007F0
3F000F80
3C001E00
78003C00
70003800
E0007800
E0007000
E0007FC0
E0007FC0
E0007FC0
E0007000
E0003800
70003800
78003C00
3C001F00
1FE00FF0
0FE007F0
03E001F0
ENDCHAR
STARTCHAR EFCC
ENCODING 61388
SWIDTH 1044 0
DWIDTH 29 0
BBX 23 20 4 0
BITMAP
000300
FE1FF0
FC7EF8
C0E01C
C1C00E
C38FC4
C31FE0
C33860
C73000
FE3000
FE7000
C63000
C73000
C33870
C39FE0
C187C4
C1C00E
C0F03C
C03FF8
001FE0
ENDCHAR
STARTCHAR F6D7
ENCODING 63191
SWIDTH 0 0
DWIDTH 0 0
BBX 6 5 -3 19
BITMAP
04
08
10
00
84
ENDCHAR
STARTCHAR F6D8
ENCODING 63192
SWIDTH 0 0
DWIDTH 0 0
BBX 6 5 -3 19
BITMAP
80
40
20
00
84
ENDCHAR
STARTCHAR FB01
ENCODING 64257
SWIDTH 504 0
DWIDTH 14 0
BBX 11 21 1 0
BITMAP
1C00
2060
2000
2000
2000
2000
2000
FFC0
2040
2040
2040
2040
2040
2040
2040
2040
2040
2040
2040
2040
2040
ENDCHAR
STARTCHAR FB02
ENCODING 64258
SWIDTH 504 0
DWIDTH 14 0
BBX 13 21 1 0
BITMAP
1C00
2040
2040
2040
2040
2040
2040
FC40
2040
2040
2040
2040
2040
2040
2040
2040
2040
2040
2040
2040
2038
ENDCHAR
ENDFONT
